<?xml version="1.0" encoding="UTF-8"?>
<svg xmlns="http://www.w3.org/2000/svg" version="1.1" viewBox="0 0 300 300">
  <defs>
    <style>
      .cls-1 {
        fill: #91252a;
      }

      .cls-2 {
        fill: #fff;
      }

      .cls-3 {
        fill: none;
      }
    </style>
  </defs>
  <!-- Generator: Adobe Illustrator 28.7.10, SVG Export Plug-In . SVG Version: 1.2.0 Build 236)  -->
  <g>
    <g id="_圖層_2" data-name="圖層_2">
      <g>
        <path class="cls-1" d="M300,149.5c.3,82.8-66.6,150.2-149.5,150.5C67.7,300.3.3,233.4,0,150.5-.3,67.7,66.6.3,149.5,0c82.8-.3,150.2,66.6,150.5,149.5Z"/>
        <g>
          <g>
            <path class="cls-2" d="M100.7,40l1.1.9c9,7.3,12.1,10.9,16,25.3l7.1,21.7c0,.3.2.6.3.9q0,0,0,.2c1.1,2.7,3.6,4.7,6.7,4.8h36.2c3.1,0,5.6-2.1,6.7-4.8q0,0,.1-.2c.1-.3.2-.6.3-.9l7.1-21.7c4-14.3,7-18,16-25.3l1.1-.9c2-1.3,3.3-3.6,3.3-6.2s-1.4-5-3.5-6.3c-.3-.2-.6-.4-.9-.5h-.1c-.3,0-.5-.2-.8-.3-11.9-4.5-23.9-7.2-35.8-8.3-1.8-3.9-6.3-6.6-11.5-6.6s-9.8,2.8-11.5,6.6c-11.9,1-23.9,3.7-35.8,8.3-.3,0-.5.2-.8.3h-.1c-.3,0-.6.3-.9.5-2.1,1.3-3.5,3.7-3.5,6.3-.3,2.6,1,4.9,3.1,6.2ZM108.4,33.7c13.1-4.6,26.5-7,40.5-7.2h2.2c14,.2,27.3,2.6,40.5,7.2,0,0,.7.2.7.9s-.2.7-.5.8h0c-13.5,8.3-17.8,28.6-17.8,28.6l-6,19.7h0c-.4,1.3-1.5,2.2-2.8,2.2h-30c-1.3,0-2.4-.9-2.8-2.1h0c0,0-6.4-19.8-6.4-19.8,0,0-4.3-20.3-17.7-28.7h0c-.3,0-.5-.4-.5-.8,0-.6.6-.8.6-.8Z"/>
            <path class="cls-2" d="M19.3,131.3c0,2.5,1.4,4.9,3.7,6.2s4.9,1.3,7.1.2l1.4-.5c10.8-4.1,15.5-5,29.9-1.2l22.3,4.7c.3.1.6.2.9.2h.2c2.9.4,5.8-.8,7.5-3.4q0-.1.2-.2l8.9-15.4,8.9-15.4c0,0,0-.2,0-.2,1.4-2.7,1-5.9-.8-8.2,0,0,0,0,0-.2-.2-.2-.4-.5-.6-.7l-15.2-17c-10.6-10.6-12.2-15-14-26.5l-.2-1.4c-.2-2.4-1.5-4.7-3.7-6-2.3-1.3-5.1-1.3-7.3,0-.3,0-.6.3-.9.5h0c-.2.3-.4.5-.7.6-9.8,8-18.2,17.1-25.1,26.9-4.2-.4-8.9,2.1-11.5,6.7s-2.5,9.9,0,13.3c-5.1,10.8-8.7,22.6-10.7,35.1,0,.3,0,.6,0,.8h0c-.1.5-.1.8-.1,1.2ZM28.5,127.8c2.6-13.7,7.2-26.4,14-38.6l.5-.9h0l.5-.9c7.1-12,15.9-22.4,26.4-31.5,0,0,.5-.5,1.1-.2.3.2.5.5.4.9h0c.6,15.8,16,29.7,16,29.7l14,15.1h0c.8,1,1,2.4.4,3.6h0l-7.5,13h0l-7.5,13h0c-.7,1.2-2,1.7-3.2,1.4h0l-20.1-4.6s-19.7-6.4-33.7,1h0c-.3.2-.7.2-1,.1-.5-.4-.3-1.1-.3-1.1Z"/>
            <path class="cls-2" d="M109.4,202.1s0-.1,0-.2c1.8-2.3,2.2-5.5.8-8.2,0-.1,0-.2,0-.2l-8.9-15.4-8.9-15.4c0-.1,0-.1-.2-.2-1.6-2.6-4.6-3.8-7.5-3.4h-.2c-.3.1-.6.1-.9.2l-22.2,4.7c-14.4,3.7-19.1,2.9-29.9-1.2l-1.4-.5c-2.2-1.1-4.8-1.1-7.1.2s-3.6,3.7-3.7,6.2v1h0c0,.4,0,.7,0,.9,2,12.5,5.7,24.3,10.7,35.2-2.5,3.4-2.6,8.7,0,13.3,2.6,4.6,7.3,7.1,11.5,6.7,6.9,9.8,15.2,18.9,25.1,26.8.2.2.4.4.7.5,0,0,0,0,0,.1h0c.3.2.6.4.9.5,2.2,1.2,4.9,1.2,7.3-.1,2.2-1.3,3.6-3.6,3.7-6l.2-1.4c1.8-11.5,3.4-15.9,13.9-26.5l15.2-17c.3-.2.5-.4.7-.6ZM101.6,198.6h0l-14.1,15.2s-15.4,13.9-16,29.7h0c0,.3,0,.7-.4.9-.6.3-1.1-.2-1.1-.2-10.5-9.1-19.3-19.4-26.4-31.5l-.5-.9h0l-.5-.9c-6.9-12.2-11.4-25-14-38.6,0,0-.2-.7.4-1,.3-.2.7-.2,1,0h0c14,7.4,33.7,1,33.7,1l20.1-4.6h0c1.2-.3,2.5.3,3.2,1.4h0l7.5,13h0l7.5,13h0c.6,1.2.4,2.6-.5,3.5Z"/>
            <path class="cls-2" d="M199.4,260l-1.1-.9c-9-7.3-12.1-10.9-16-25.3l-7.1-21.7c-.1-.3-.2-.6-.3-.9q0-.1-.1-.2c-1.1-2.7-3.6-4.6-6.7-4.8h-36.2c-3,.1-5.6,2.1-6.7,4.8q0,.1,0,.2c0,.3-.2.6-.3.9l-7.1,21.7c-4,14.3-7,18-16,25.3l-1.1.9c-2,1.3-3.3,3.6-3.3,6.2s1.4,5,3.5,6.4c.3.2.6.4.9.5h0c.3.1.5.2.8.3,11.9,4.5,23.9,7.2,35.8,8.3,1.8,3.9,6.3,6.6,11.5,6.6s9.8-2.8,11.5-6.6c11.9-1,23.9-3.7,35.8-8.3.3-.1.5-.2.8-.3h.1c.3-.1.6-.3.9-.5,2.1-1.3,3.5-3.7,3.5-6.4.2-2.6-1.1-4.9-3.1-6.2ZM191.6,266.3c-13.1,4.6-26.5,7-40.5,7.2h-2.2c-14-.2-27.3-2.6-40.5-7.1,0,0-.7-.2-.7-.9s.2-.7.5-.8h0c13.5-8.4,17.8-28.7,17.8-28.7l6-19.7h0c.4-1.3,1.5-2.2,2.8-2.2h30.1c1.3,0,2.4.9,2.8,2.1h0c0,.1,6,19.8,6,19.8,0,0,4.3,20.3,17.7,28.7h0c.3.1.5.4.5.8.3.6-.3.8-.3.8Z"/>
            <path class="cls-2" d="M280.7,168.7c-.1-2.5-1.4-4.9-3.7-6.2-2.2-1.3-4.9-1.3-7.1-.2l-1.4.5c-10.8,4.1-15.5,5-29.9,1.2l-22.3-4.7c-.3-.1-.6-.2-.9-.2h-.2c-2.9-.4-5.8.8-7.5,3.4l-.2.2-8.9,15.4-8.9,15.4c0,.1-.1.2-.1.2-1.4,2.7-1,5.9.8,8.2,0,.1.1.1.1.2.2.2.4.5.6.7l15.2,17c10.4,10.6,12.1,15.1,13.9,26.5l.2,1.4c.2,2.4,1.5,4.7,3.7,6,2.3,1.3,5.1,1.3,7.3.1.3-.1.6-.3.9-.5h.1c.2-.3.4-.4.7-.6,9.9-8,18.2-17.1,25.1-26.9,4.2.4,8.9-2.1,11.5-6.7,2.6-4.6,2.5-9.9,0-13.3,5.1-10.8,8.7-22.6,10.7-35.1.1-.3.1-.6.1-.8h0c.3-.5.3-.8.2-1.2ZM271.5,172.2c-2.6,13.7-7.2,26.4-14,38.6l-.5.9h0l-.5.9c-7.1,12-15.9,22.4-26.4,31.5,0,0-.5.5-1.1.2-.3-.2-.5-.5-.4-.9h0c-.6-15.8-15.9-29.7-15.9-29.7l-14-15.1h-.1c-.8-1-1-2.4-.4-3.6h0l7.5-13h0l7.5-13h0c.7-1.2,2-1.7,3.2-1.4h.1l20.1,4.6s19.7,6.4,33.7-1h0c.3-.2.6-.2,1-.1.4.4.2,1.1.2,1.1Z"/>
            <path class="cls-2" d="M190.6,97.9s-.1,0-.1.2c-1.8,2.3-2.2,5.5-.8,8.2,0,0,.1.2.1.2l8.9,15.4,8.9,15.4c0,.1.1.1.2.2,1.6,2.6,4.6,3.8,7.5,3.4h.2c.3-.1.6-.1.9-.2l22.4-4.7c14.4-3.7,19.1-2.9,29.9,1.2l1.4.5c2.2,1.1,4.8,1.1,7.1-.2,2.3-1.3,3.6-3.7,3.7-6.2v-1h0c0-.4-.1-.7-.1-.9-2-12.5-5.7-24.3-10.7-35.2,2.5-3.4,2.6-8.7,0-13.3-2.6-4.6-7.3-7.1-11.5-6.7-6.9-9.8-15.2-18.9-25.1-26.9-.2-.2-.4-.4-.7-.5h-.1c-.3-.3-.6-.5-.9-.6-2.2-1.2-4.9-1.2-7.3,0-2.3,1.3-3.6,3.6-3.7,6l-.2,1.4c-1.8,11.5-3.4,15.9-13.9,26.5l-15.2,17c-.5.2-.7.5-.9.7ZM198.4,101.4h0l14.1-15.2s15.4-13.9,16-29.7h0c0-.3.1-.7.4-.9.6-.3,1.1.2,1.1.2,10.5,9.1,19.3,19.4,26.4,31.5l.5.9h0l.5.9c6.9,12.2,11.4,25,14,38.6,0,0,.2.7-.4,1-.3.2-.7.1-1-.1h0c-14-7.4-33.7-1-33.7-1l-20.1,4.6h-.1c-1.2.3-2.5-.3-3.2-1.4h0l-7.5-13h0l-7.5-13h0c-.6-1.1-.4-2.5.5-3.4Z"/>
          </g>
          <rect class="cls-3" x="137" y="139.3" width="4.6" height="4.8"/>
          <rect class="cls-3" x="137" y="125.6" width="4.6" height="3.9"/>
          <path class="cls-2" d="M194,154.1h-18.4v6.3h12.3l-.4,1.2c-5.3,16.4-20.4,27.5-37.6,27.5s-32.4-11-37.6-27.5l-.4-1.2h12.3v-6.3h-18.2c-1.2,0-2.2,1-2.2,2.2h0c1.5,10.5,6.6,20.1,14.4,27.4,8.7,8.1,20,12.5,31.9,12.5s23.2-4.5,31.9-12.5c7.8-7.3,12.8-16.8,14.4-27.3v-.2c-.2-1.1-1.1-2.1-2.4-2.1Z"/>
          <path class="cls-2" d="M196.2,142.8v-.2c-1.6-10.4-6.6-20-14.4-27.3-7.3-6.8-16.4-11-26.2-12.2v7.3c14.8,2.1,27.2,12.5,31.9,27.1l.4,1.2h-12.3v6.3h18.4c1.3,0,2.2-.9,2.2-2.2Z"/>
          <path class="cls-2" d="M106,145.1h18.4v-6.3h-12.4l.4-1.2c4.7-14.6,17.1-24.9,31.8-27.1v-7.3c-9.7,1.2-18.8,5.4-26.1,12.2-7.8,7.3-12.8,16.9-14.4,27.3v.2c0,1.2,1,2.2,2.3,2.2Z"/>
          <path class="cls-2" d="M133.7,175.3v4.4c9.8-2.5,14.5-7.9,16.7-12.5,2.3,4.6,6.9,9.9,16.5,12.4v-4.4c-11.2-3.4-13.7-11-14.3-14.4h13.5v-4.3h-13.6v-6h-4.2v6h-14.3v4.3h14.1c-.5,3.5-3.1,11.2-14.4,14.5Z"/>
          <path class="cls-2" d="M155.3,124h-6.3c-.5,0-.8.4-.8.8v18.9h3.6v-16.9h3.5v20.7h3.9v-20.7h3.7v16.9h3.5v-18.9c0-.5-.4-.8-.8-.8h-6.3v-2.9h7.8v-2.9h-20.1v2.9h8.2v2.9s.1,0,.1,0Z"/>
          <path class="cls-2" d="M138.7,122.5c1.7-1.6,2.2-4.3,2.2-4.3h-3.8s-.3,2.8-1.5,4.4h-1.2c-.5,0-.8.4-.8.8v22.8c0,.5.4.8.8.8h9.8c.5,0,.8-.4.8-.8v-9.4c0-.5-.4-.8-.8-.8h-7.1v-3h7.1c.5,0,.8-.4.8-.8v-8.7c0-.5-.4-.8-.8-.8l-5.5-.2ZM141.6,139.3v4.8h-4.6v-4.8h4.6ZM141.6,129.5h-4.6v-3.9h4.6v3.9Z"/>
        </g>
      </g>
    </g>
  </g>
</svg>