<?xml version="1.0" encoding="UTF-8"?>
<svg xmlns="http://www.w3.org/2000/svg" version="1.1" viewBox="0 0 138.5 1175.9">
  <defs>
    <style>
      .cls-1 {
        fill: #f4aa8d;
      }
    </style>
  </defs>
  <!-- Generator: Adobe Illustrator 28.7.10, SVG Export Plug-In . SVG Version: 1.2.0 Build 236)  -->
  <g>
    <g id="_圖層_1" data-name="圖層_1">
      <g>
        <path class="cls-1" d="M121.3,167.9c0,2.8-1.4,4.9-3.3,6.8-13,12.8-26.1,25.7-39.1,38.5-6.6,6.5-13.1,12.9-19.6,19.4-.8.8-1.5,1.3-2.6,1.7-9.4,3.1-29,9.9-29.6,10-.5.1-1.1,0-1.6-.6-.9-1.1-.3-2.2,0-3.2,3.5-9.6,7-19.2,10.5-28.9.2-.7.6-1.1,1.1-1.6,18.6-18.5,37.3-37,55.9-55.4,1.4-1.4,2.8-2.9,4.3-4.2,3.1-2.6,7.1-2.7,10,0,4,3.7,7.8,7.6,11.6,11.5,1.6,1.6,2.3,3.7,2.3,6ZM51.4,221.9c1.4.1,2.2-1.1,3.1-2,12.6-12.3,25.2-24.6,37.8-36.9,3.6-3.5,3.5-3.3,0-7-1.3-1.4-2.1-1.4-3.4,0-13.3,13.2-26.6,26.4-40,39.5-1.7,1.6-1,3-.7,4.7.3,1.8,2,1,3.2,1.7ZM117.5,167.8c0-1.3-.5-2.5-1.4-3.4-3.7-3.7-7.4-7.5-11.1-11.1-1.7-1.6-3.6-1.7-5.3,0-2,2-4,4.1-6.1,6-1.1,1-.9,1.5,0,2.5,4.9,4.7,9.7,9.5,14.4,14.3,1,1,1.7,1.4,2.8.2,1.6-1.7,3.3-3.1,5-4.7,1.1-1,1.7-2.3,1.7-3.8ZM40.6,210.9c.2.3,4.8,2.8,7.9-.2,12.6-12.3,25.1-24.7,37.8-37,1.6-1.5,1.3-2.2,0-3.6-1.4-1.4-2.1-1.5-3.6,0-12,12-40,39.1-42,40.8ZM57.6,228.5c.8-.7,29-28.1,42.5-41.3,1.2-1.1,1.8-2,.2-3.4-1.4-1.3-2.2-1.5-3.6,0-8.5,8.5-35.4,34.9-40.2,39.7-.5.5.5,4,1.2,5ZM54.5,230.3c0-1.1-3.3-4.9-4.5-4.8-3.8.2-4.9-2.2-5.5-5.2-.2-.9-.5-1.8-.8-2.7-.7-2.1-2.7-1.4-4.1-1.8-1.4-.5-1.3,1.1-1.6,1.8-1.1,2.8-2.1,5.7-3.2,8.6-.4,1-.7,2,.2,2.9,1.8,1.8,3.6,3.7,5.4,5.6.5.6,1.1.7,1.8.4,3.7-1.2,7.4-2.4,11.1-3.7.5-.2,1.2-.2,1.1-1ZM106.7,180.3c-.2-.2-.3-.5-.5-.7-5.2-5.2-10.4-10.5-15.7-15.6-1.3-1.3-1.7.6-2.5.9-1,.5-.8,1.1-.1,1.8,5.2,5.1,10.4,10.2,15.6,15.3.4.4.9.8,1.5.2.6-.6,1.4-1,1.7-1.9ZM30.3,238.7c1.2-.3,5.6-1.6,6.7-2.2-1.5-1.4-2.9-2.6-4.4-4-.7,1.8-1.4,3.8-2.3,6.2Z"/>
        <path class="cls-1" d="M35.9,874.2c-3.1-.9-3.2-1.1-2.3-4.3,1.8-6.4,4.6-7.9,10.9-6.1,3.1.9,6.1,1.8,9.2,2.7,1.4.4,2,0,2.5-1.4,1.8-5.7,1.8-5.7-3.4-8.6-3.2-1.8-6.2-3.9-8.8-6.6-1.1-1.2-2-1.6-3.4-.3-.9.9-2.2,1.6-3.3.1-1-1.4,0-2.3,1-3.2,1.8-1.6,3.5-3.4,5.4-4.8,1.6-1.2,1.6-2.1.5-3.7-5.4-8.1-7.5-17-6.4-26.8,2.3-20.5,21.2-35,41.7-31.8,6,.9,11.6,2.9,16.6,6.5,1.4,1,2.3,1,3.7,0,5.9-4.3,4.6-5.6,10.3,1.2,15.2,18.4,15.6,43,.6,60-10.2,11.6-23.4,16.4-38.7,15.2-2.4-.2-3.3.3-3.9,2.7-1.2,5.1-1.3,5,3.6,6.5,2.8.8,5.6,1.6,8.3,2.7,4.7,1.9,6.2,8.1,3.1,12-1,1.3-2.2.8-3.5.4-7.3-2.1-36.5-10.4-43.8-12.4ZM73.1,849.8c-3.5-4.7-3.2-7.3,1.6-11.1,1.8-1.4,3.9-2.6,5.8-3.9,3-2.1,3.3-3.4,1.3-6.4-1.2-1.8-2.1-3.8-1.4-6,1.5-4.7,4.5-7.9,9.3-9,5.1-1.2,7.9.3,10.1,5,.4.9.8,1.8,1.5,2.5,2.2,2.2,2.4,4.7,1.4,7.5-.6,1.6-.4,3.2.4,4.8.6,1.3,1.1,1.8,2.1.2,2.1-3.4,3.3-7.2,4.1-11.1.3-1.3-.2-2.1-1.5-2.6-1.8-.7-3.2-2.1-4.2-3.9-.6-1.1-1.6-2.4-.2-3.4,1.3-1,2.2.3,3.1,1.2.7.8,1.1,2.1,2.7,1.7,0-2.3-.7-4.4-1.2-6.5-.4-1.7-1.2-1.8-2.7-1.1-2.7,1.2-5.4,2.1-8.1,3.1-1.5.6-3.1,1.1-3.9-1-.8-2.2,1.2-2.2,2.5-2.7,1.6-.6,3.4-.9,4.9-1.7,6.7-3,5.7-1.6,2.4-7.2-.3-.6-.6-1.2-1.3-1.5-.5.1-.5.6-.6.9-1.4,3.3-3.5,3.8-6.3,1.7-1.4-1.1-2.7-2.4-3.3-4-1.3-3.7-4.6-3.2-7.6-4.4.4,1.8.8,2.8,1,4,.5,3.9-2,5.9-5.7,4.6-1.3-.4-2.4-1.2-3.5-2-4.7-3.6-5.4-3.6-10.1-.4-1.5,1.1-1.8,2.1-.7,3.6.9,1.2,1.8,2.5,2.6,3.8.6.9.9,2.1.1,3-1.3,1.6-.8,3.1-.2,4.8,1.8,4.8.3,7.6-4.7,8.8-1.3.3-2.6.7-3.6,1.7-1.7,1.6-3.8,2.3-6,2.7-3.2.6-6.5.6-9.8.3,2.5,12.4,15.6,22.9,29.9,23.8ZM63,856.8c10,2.9,18.9,2.5,27.6-.5,26.5-9,38-43.7,15.1-68.5-1.8-1.9-2.6.6-3.8,1.1-1.6.7-.4,1.5.2,2.2,2.9,3.1,5.2,6.7,7.1,10.5,11.8,23.6-4.8,47.9-24.5,51.5-13.1,2.4-24.7-.6-34.9-9.2-2-1.7-2.8-.4-3.9.6-1.7,1.6.2,2.2.9,2.8,5,4.6,10.7,7.8,16.1,9.4ZM42,820.4c3-2.6,5.4-5.5,8-8.4,1.6-1.8,2.4-3.5,1.4-6.2-1.6-4,0-7.8,2.5-11.1.9-1.2,2.4-1.9,3.8-.6,1.4,1.3.4,2.3-.7,3.3-2.4,2.2-3.3,5-1.9,7.9,1.6,3.3.8,5.7-1.5,8.1-2.7,2.9-5.3,5.8-8.3,9.1,4.4,0,8.2,0,11.5-2.4,1.4-.9,2.8-1.7,4.4-2.1,3.3-.8,3.6-1.3,2.3-4.6-.6-1.7-1.3-3.4-.4-5,1-1.9.5-3.2-.8-4.6-1.9-2.1-2.8-4.4-1.2-7.1.2-.4.6-.8.2-1.3-2.6-2.7-1.8-6-1-9.3-12.1,4-22,22.5-18.4,34.3ZM76.4,846.7c4.2.9,7.6.5,10.7-2.1,2.2-1.9,4.9-3.4,7.9-1.1.8.6,1.5.2,2.1-.3,1.2-1.1,2.4-2.2,3.6-3.3,1.1-.9,1.1-1.7.1-2.9-1.5-1.8-2.8-4.1-2.1-6.4,1.1-4,0-7.3-2.2-10.4,0,0-.1-.2-.1-.3-.6-2.9-2.8-3.2-5.1-2.8-3.2.5-5.4,2.5-6.8,5.3-.8,1.5-.5,2.9.6,4.3,3,4.2,2.7,6.9-1.2,10.3-1.2,1.1-2.7,1.9-4,2.9-1.4,1-3,1.8-4.1,3.1-1.7,2-1.3,3.3.8,3.8ZM77.9,882.1c.8.2,1.9,1.1,2.6-.2.5-1,.3-2.1-.2-3-.6-1.1-1.8-1.4-2.9-1.8-4-1.1-8-2.3-12-3.3-2.4-.6-3.1-2-2.4-4.3.6-1.9,1.1-3.9,1.7-5.9.4-1.3.4-2.1-1.2-2.5-1.6-.5-2.3-.2-2.7,1.4-.2.9-.5,1.9-.8,2.8-2,7.3-1.4,6.5-8.3,4.6-3.4-.9-6.9-2-10.3-2.9-1.9-.5-3.3.5-3.7,2.3-.5,2,1.4,1.8,2.4,2.1,6.2,1.8,31.5,9,37.9,10.8ZM63.7,788.5c-.3,1.3-.5,2.3,0,3.4.3.7.8,1.1,1.6.6,4.8-3.1,8.7-1.3,12.5,2,.9.7,2.3,2.3,3,1.3.8-1.2,0-3.1-.9-4.5-.2-.3-.7-.4-1-.5-1.7-1-2.3-2.5-2.2-4.4.2-3.3.2-3.4-3.1-3.2-1.2,0-2.5.3-3.7.3-3.6,0-5.1,2.6-6.2,5.2ZM87.2,788.1c.4.1.7.3,1.1.4.7.1,1.7,1.1,2.2-.1.4-1-.7-1.5-1.4-1.9-2-1.2-4.2-2-6.4-2.6-1.3-.3-2,0-2.2,1.3-.3,1.5.4,1.9,1.6,2,1.7.1,3.5.2,5.1.8ZM93.9,789.7c-.3,2.5.8,4.4,2.5,6.1,1,1.1,1.3.6,1.6-.6.6-2.6-.4-4-4-5.5Z"/>
        <g>
          <path class="cls-1" d="M50.8,0c28.5,0,46.2,31.4,31.9,56.4-1.4,2.4-1,3.4.8,5.2,8,7.8,15.9,15.8,23.7,23.9,3.7,3.8,3.4,8.8-.4,12.6-3.6,3.6-8.2,3.5-12.1-.4-8.2-8.2-16.4-16.4-24.5-24.8-1.6-1.6-2.6-2-4.9-1-21.7,9.5-46.4-3.1-51.5-26.1C8.6,22.2,26.6,0,50.8,0ZM16.1,37.6c0,19,15.4,34.5,34.2,34.5,19,0,34.5-15.6,34.4-34.6,0-18.9-15.6-34.5-34.3-34.5-19.1,0-34.4,15.4-34.3,34.6ZM106.7,91.5c0-1.7-.7-2.9-1.8-4-6.4-6.5-12.7-12.9-19-19.5-.9-.9-1.5-1-2.4-.1-1.9,1.8-3.8,3.6-5.7,5.3-1.2,1.1-1.3,1.8,0,3,6.4,6.4,12.8,12.9,19.2,19.3,1.6,1.6,3.4,2.7,5.7,1.6,2.5-1.1,3.8-3.1,4.1-5.7ZM74.2,72.2c.5-.4.9-.7,1.4-1.1,1.9-1.7,3.6-3.5,5.6-5,1.5-1.2,1-1.9-.1-2.9-1-.8-1.7-2.3-3.1-.4-1.5,2-3.5,3.6-5.5,5.1-.5.4-1.8.6-1.2,1.5.7,1.1,1.6,2.1,3,2.7Z"/>
          <path class="cls-1" d="M50.5,7.6c16.8.1,30.1,13.5,29.9,30.1-.1,16.7-13.7,30.2-30,30.1-17-.1-30.2-13.6-30-30.7.1-16.5,13.5-29.6,30.2-29.5ZM50.4,64.6c14.8.1,26.8-12,26.9-27,0-14.7-11.8-26.7-26.6-26.9-15-.2-27,11.4-27.2,26.3-.2,15.3,11.7,27.5,26.9,27.6Z"/>
          <path class="cls-1" d="M50.9,18.4c-.2,1-.9,1.4-1.9,1.5-3.8.2-7.1,1.5-10,4-.7.6-1.5,1-2.3.1-.8-.9-.3-1.7.3-2.3,3.4-3.3,7.7-4.7,12.4-4.7.9,0,1.4.6,1.5,1.5Z"/>
          <path class="cls-1" d="M29.5,34.7c.3-2.2.8-4.4,1.9-6.4.5-.9,1.2-1.6,2.3-1,1,.5.9,1.4.5,2.3-.8,1.7-1.5,3.5-1.8,5.5-.1.9-.5,1.7-1.7,1.6-1.2-.2-1.2-1.1-1.2-1.9Z"/>
        </g>
        <path class="cls-1" d="M134.4,1018.9c-.1,4.6-2,8.1-6.1,10.4-3.7,2-7.3,1.6-10.9-1.6-1.6-1.4-2.6-1.9-4.6-.3-3.1,2.4-7.2,2-10.6-1-8-6.9-15.8-13.9-23.6-20.9-5.5-4.9-11-10-16.5-14.9-2.4-2.2-3.8-4.7-2.5-7.9.8-2-.8-2.7-1.8-3.6-9.5-8.7-18.7-17.7-28.6-26-10.4-8.7-16.5-20.2-23-31.6-.6-1-.9-2,0-3.1.9-1,2-.9,3.1-.5,9.6,3.2,19.3,6.1,28.5,10.6,3.2,1.5,5.6,4,8.2,6.3,26.4,23.6,52.7,47.3,79.2,70.8,3.1,2.8,5,6.3,7.7,9.2,1,1.1,1.3,2.7,1.5,4.1ZM67.5,978.7c0,1,.8,1.1,1.3,1.4,4.7,2,8,5.7,11.7,9,10.7,9.7,21.5,19.4,32.1,29.2,1.8,1.7,2.9,1.6,4.4-.3,1.6-2.2,3.4-4.2,5.3-6.2,1.3-1.3,1.4-2.2-.1-3.6-14.7-12.9-29.2-25.9-43.8-39-1.3-1.2-2.1-1.4-3.2.1-2.1,2.7-7.4,9-7.6,9.3ZM62.9,977.8c.2-.3,6.2-7.5,9.1-10.5,1.7-1.8,1.5-2.8-.3-4.4-9.8-8.6-19.6-17.4-29.3-26.2-1.4-1.3-2.2-1.5-3.4,0-2.4,3-5,5.8-7.6,8.6-1.6,1.7-1.8,2.7.2,4.4,9.9,8.8,30.3,27.9,31.4,28ZM63.3,985.1c.2,1.3,1,2.1,1.8,2.8,13.1,11.9,26,24,39.5,35.4,1,.9,2.1,1.7,3.6,1.6,1.1,0,2.4-.4,2.9-1.4.5-1.1-.7-1.7-1.4-2.4-12.1-11-24.2-22-36.3-32.9-2.1-1.9-4.5-3.5-7.1-4.7-1.8-.9-2.8-.3-3.1,1.6ZM37.8,932.9c-8.8-4.2-16.9-7.3-26.1-9.6,4.1,7.5,8,14.2,12.8,20.3,1.1,1.4,1.8,1.7,3.1.2,3.2-3.6,6.5-7,10.2-10.9ZM124.5,1026.4c2.1-.3,4-1.6,5.2-4,1.2-2.6.3-4.7-1.2-6.9-1.5-2.1-2.7-2.7-4.4-.3-1.1,1.6-2.6,3-3.7,4.6-.8,1.2-2.9,2.2-1.6,4,1.1,1.7,2.9,2.6,5.6,2.5Z"/>
        <g>
          <path class="cls-1" d="M84.3,485.5c24.4.4,45.2,16.7,50.4,39.7,1.7,7.4,1.7,14.9-.8,22.2-4,12-16.2,15.7-26.1,8-1.2-.9-2.3-1.9-3.6-2.4-1.6-.7-3.2-.9-4.6.5-1.3,1.3-1.1,2.9-.5,4.4.9,2.4,2.8,4.2,4.4,6.1,3.1,3.6,4.9,7.7,4.3,12.6-.7,5.8-4.2,9.7-9,12.5-5.4,3.2-11.4,3.8-17.5,3.5-24.2-1.2-42.7-17.3-48.2-42.1-6.6-30,12.9-59.2,43.1-64.2,2.7-.4,5.4-.5,8.1-.7ZM83.6,588.6c3,0,6.5-.2,9.8-1.3,11-3.7,13.7-13.3,6.3-22.1-1.3-1.6-2.7-3-3.7-4.9-1.9-3.8-1.5-7.6,1.2-9.9,2.7-2.3,6.9-2.4,10.3,0,1.4,1,2.7,2.2,4.2,3.1,6.5,4.2,14.8,1.7,17.9-5.3,1.5-3.2,2.3-6.7,2.3-10.2.4-19.8-8.5-34.1-25.9-43.1-21.7-11.2-47.6-4.8-61.4,15.1-7.7,11.1-10.1,23.5-8.5,36.9,3,23.7,23.1,41.8,47.3,41.8Z"/>
          <path class="cls-1" d="M42.8,537.4c.2-4.9,4.5-8.8,9.5-8.7,4.7.1,8.5,4.2,8.4,9-.1,5.1-4.3,9-9.3,8.8-5-.3-8.8-4.3-8.6-9.2ZM56.9,537.5c0-2.7-2.3-4.9-5.1-4.9-2.6,0-5,2.4-5,5,0,2.7,2.1,4.9,4.9,5,2.9,0,5.2-2.2,5.2-5.1Z"/>
          <path class="cls-1" d="M99.2,514.9c0-5,4-8.8,9-8.8,4.9,0,8.9,4,8.8,8.9,0,4.9-4,8.8-9,8.8-5,0-8.9-4-8.8-8.9ZM113.1,514.9c0-2.6-2.5-5-5.1-5-2.7,0-5.2,2.6-5.1,5.3,0,2.6,2.5,4.8,5.2,4.7,2.7,0,5-2.4,5-5.1Z"/>
          <path class="cls-1" d="M84.8,497.4c5.2,0,9,3.7,8.9,8.7,0,4.7-4.1,8.8-8.7,8.9-4.7,0-8.9-3.9-9-8.6,0-5,3.7-9,8.7-9ZM90,506.1c0-2.7-2.5-4.9-5.2-4.8-2.8,0-5,2.4-4.8,5.1.1,2.8,2.5,4.8,5.3,4.6,2.7-.1,4.8-2.4,4.8-4.9Z"/>
          <path class="cls-1" d="M53.1,565.2c0-4.9,4-8.9,8.9-8.9,4.7,0,8.8,4.2,8.8,9.1,0,4.7-4.3,8.7-9.2,8.7-4.9,0-8.5-3.8-8.5-8.8ZM66.9,565.2c0-2.8-2.1-5.1-4.8-5.2-2.8,0-5.2,2.3-5.3,5.1,0,2.7,2.1,4.9,5,4.9,2.9,0,5.1-2.1,5.1-4.8Z"/>
          <path class="cls-1" d="M70.3,513.8c0,4.8-3.9,8.7-8.6,8.8-4.9,0-8.9-3.9-8.9-8.8,0-4.8,3.9-8.7,8.7-8.7,5,0,8.9,3.9,8.9,8.8ZM61.6,508.8c-2.6,0-4.8,2-4.9,4.7-.1,2.8,2,5.1,4.7,5.2,2.6,0,5.1-2.2,5.2-4.8,0-2.6-2.2-4.9-5-5Z"/>
          <path class="cls-1" d="M76.5,572.9c0-5,3.6-8.8,8.5-8.8,4.9,0,8.8,3.6,8.9,8.5,0,5-3.9,9.1-8.7,9-4.9,0-8.7-3.8-8.7-8.7ZM85.2,567.8c-2.6,0-5,2.4-5,5,0,2.6,2.2,4.8,4.8,4.9,2.7,0,5-2.1,5.1-4.8,0-2.7-2.1-5-4.9-5Z"/>
          <path class="cls-1" d="M107.9,538.6c0-5.1,3.8-9,8.8-8.9,4.7,0,8.7,4.1,8.6,8.8,0,4.8-4,8.7-8.8,8.7-5,0-8.7-3.6-8.7-8.6ZM121.5,538.4c0-2.5-2.2-4.8-4.8-4.9-2.8,0-5.1,2.2-5,4.9,0,2.6,2.2,4.8,4.8,4.9,2.7,0,5-2.2,5.1-5Z"/>
        </g>
        <g>
          <path class="cls-1" d="M118,390.5c1.4,4,1.1,4.5-2.9,5.9-23.9,8.3-47.9,16.6-71.8,24.9-4.1,1.4-4.2,1.3-5.6-2.7-.6-1.7-1.2-3.5-1.8-5.2-1-2.9-1-2.9-4-1.8-6.5,2.3-6.1,2.7-8.5-4-7.5-21.3-15.1-42.7-22.7-64-1.3-3.5-1.1-3.9,2.3-5.1q6-2.2,3.9-8.1c-.5-1.6-1.1-3.1-1.6-4.7-1-2.8-.8-3.3,2-4.3,8.5-3,57.4-20.1,73.4-25.7,3.4-1.2,3.8-1,5.1,2.5,5.4,15.4,26.9,77,32.3,92.3ZM82.9,301.9c-.7-1.9-1.3-2.5-3.5-1.8-22.4,7.9-44.9,15.7-67.3,23.6-3,1-3,1.1-2,4,10.1,29,20.2,58.1,30.3,87.1,1,3,1.1,3,4,2,22.4-7.8,44.7-15.6,67.1-23.4,3-1.1,3.1-1.1,2-4.2-5-14.4-25.5-72.6-30.6-87.3ZM11.2,342.4c-.7-2.1-1.6-2.5-3.5-1.6-1.5.7-3.6.6-2.6,3.6,7.4,20.7,14.6,41.4,21.8,62.1.9,2.7,2.4,1.7,4,1.2,1.8-.5,2.7-1.1,1.9-3.4-3.7-10.3-18.1-51.5-21.6-61.9Z"/>
          <path class="cls-1" d="M62.9,388c-.7.3-1.5.5-2.2.6-.8.1-1.6-.2-1.9-1-.4-.9,0-1.7.8-2.2.6-.4,1.2-.6,1.9-.8,11.4-4,22.8-7.9,34.1-11.9.5-.2,1.1-.4,1.7-.5.9-.1,1.8.1,2.2,1,.4,1.1-.2,1.9-1,2.4-.6.4-1.4.6-2.1.8-5.5,1.9-27.7,9.6-33.3,11.5Z"/>
          <path class="cls-1" d="M67.2,398.9c-.7.3-1.5.5-2.2.7-1.1.2-2,0-2.3-1.2-.4-1.1.1-1.9,1.1-2.3.6-.3,1.3-.5,1.9-.7,11.2-3.9,22.4-7.8,33.7-11.8.6-.2,1.3-.5,1.9-.6.9-.1,1.8.3,2.1,1.2.3.9,0,1.7-.9,2.3-.6.4-1.2.5-1.9.8-5.7,2-27.9,9.7-33.4,11.6Z"/>
          <path class="cls-1" d="M59.3,377.2c-.7.3-1.5.6-2.2.7-1,.1-1.7-.4-2-1.3-.3-.8,0-1.6.8-2,.7-.4,1.4-.7,2.1-.9,11.2-3.9,22.4-7.9,33.6-11.8.3,0,.5-.2.8-.3,1.3-.4,2.7-.6,3.2.9.5,1.5-.5,2.3-1.9,2.7-2.1.7-31.3,11-34.4,12.1Z"/>
          <path class="cls-1" d="M87.8,351.2c.7-.3,1.5-.6,2.2-.7,1-.1,1.7.3,2,1.3.3.9-.1,1.6-.9,1.9-.8.4-1.6.7-2.4,1-11.1,3.9-34.5,12-35.1,12.2-1.1.3-1.9,0-2.3-1.1-.4-1.1,0-1.9,1.1-2.3,1.7-.6,29.7-10.4,35.3-12.3Z"/>
          <path class="cls-1" d="M83.9,340.4c.6-.2,1.3-.5,1.9-.6,1.1-.2,2,.2,2.3,1.3.3.9-.2,1.7-1.1,2.1-.5.2-1.1.4-1.6.6-11.1,3.9-34.3,11.9-34.7,12.1-1.2.4-2.6.9-3.2-.8-.5-1.6.7-2.2,1.9-2.6,5.9-2.1,28.9-10,34.4-12Z"/>
          <path class="cls-1" d="M45.6,378c1-.3,2,0,2.4,1.1.4,1.2,0,2.1-1.3,2.5-2.2.8-4.4,1.6-6.6,2.3-1.1.4-2,0-2.4-1.1-.4-1,0-2,1-2.4,1.2-.5,5.8-2.2,6.8-2.4Z"/>
          <path class="cls-1" d="M49.2,388.8c1.2-.4,2.2,0,2.6,1.1.4,1.1-.2,1.9-1.2,2.3-2.2.9-4.5,1.7-6.8,2.4-1,.3-2,0-2.4-1-.4-1.2.1-2.1,1.2-2.6,1.1-.5,5.4-2,6.5-2.3Z"/>
          <path class="cls-1" d="M53.3,399.7c1.1-.3,1.9.2,2.3,1.2.3.9,0,1.9-.9,2.2-2.3.9-4.7,1.8-7,2.5-1,.3-2-.2-2.3-1.3-.3-1,.2-1.9,1.1-2.4,1.1-.5,5.6-2,6.8-2.3Z"/>
          <path class="cls-1" d="M36.5,373c-1.2.4-2.1,0-2.5-1.2-.3-1.1.2-1.9,1.2-2.3,2.2-.8,4.5-1.6,6.8-2.3,1-.3,1.8,0,2.1.9.4,1,.1,2-.9,2.4-1.2.6-5.7,2.1-6.7,2.4Z"/>
          <path class="cls-1" d="M38.3,356.2c1-.3,1.8,0,2.1.9.4,1,.1,2-.9,2.4-2.2.9-4.5,1.6-6.8,2.4-1.1.4-2,0-2.4-1.1-.4-1,0-1.9,1.1-2.3,1.2-.4,5.7-2,6.8-2.4Z"/>
        </g>
        <g>
          <path class="cls-1" d="M32.4,1088.4c5.8-14.1,11.6-28.3,17.4-42.4,3.7-9,9.9-11.5,19-7.8,20.3,8.3,40.7,16.7,61,25,7.7,3.1,10.6,9.8,7.5,17.4-11.8,29.1-23.7,58.2-35.7,87.2-2.9,7-9.9,9.9-16.8,7.1-21.1-8.6-42.2-17.2-63.3-25.9-7.1-2.9-9.8-9.7-6.9-16.8,5.9-14.6,11.9-29.2,17.9-43.8,0,0,0,0,0,0ZM36,1089.5s0,0,0,0c-5.8,14.3-11.7,28.5-17.5,42.8-2.8,6.8-1.1,10.9,5.7,13.7,20.2,8.3,40.5,16.6,60.7,24.8,6.9,2.8,11.1,1,13.9-5.9,11.4-27.9,22.8-55.7,34.2-83.6,3.4-8.2,1.8-12.1-6.4-15.5-19.8-8.1-39.6-16.2-59.4-24.3-6.9-2.8-11.2-1.1-14,5.8-5.8,14-11.5,28.1-17.2,42.1Z"/>
          <path class="cls-1" d="M121.6,1071.6c4.8,2,5.8,4.5,3.9,9.3-1.3,3.2-2.5,6.5-4,9.6-1.9,4.2-5.4,5.6-9.7,3.9-17.4-7.1-34.7-14.2-52-21.4-5.5-2.3-6.6-5.4-4.5-10.9,1-2.4,2-4.9,3-7.3,2.3-5.7,5.3-7.1,11-4.8,8.9,3.6,43.8,18,52.4,21.5ZM112.6,1090.3c3.5,1.4,4.5,1,6-2.5,1-2.3,1.9-4.6,2.8-7,1.7-4.3,1.6-4.7-2.6-6.4-15.3-6.3-30.7-12.5-46.1-18.8-2-.8-4-1.6-6-2.4-2.1-.8-3.7-.3-4.6,1.9-1,2.6-2.1,5.1-3.1,7.6-1.7,4.3-1.4,5.1,2.8,6.8,8.4,3.4,42.2,17.2,50.7,20.7Z"/>
          <path class="cls-1" d="M93.4,1157.9c-2.1,4.9-5.6,6.4-10.7,4.7-1.5-.5-2.9-1.1-4.2-1.9-3.6-2-5-5.7-3.5-9.5,3.4-8.7,6.9-17.3,10.6-25.9,2-4.7,7.6-6.2,12.9-3.8,4.9,2.2,6.9,6.9,5,11.7-.8,2.1-8.4,20.6-10.1,24.5ZM99.7,1132.6c1.4-3.5.3-6.1-2.9-7.6-3.3-1.5-6.8-.4-8.1,2.8-3.3,7.9-6.6,15.8-9.7,23.8-1.3,3.4,0,5.5,3.9,7.1,3.7,1.5,5.8.8,7.3-2.6,1.7-3.8,8-19.5,9.6-23.5Z"/>
          <path class="cls-1" d="M79.5,1124.4c-2.2,5.4-8.2,7.7-13.7,5.4-5-2.1-7.4-7.8-5.3-12.8,2.2-5.3,8.1-7.7,13.3-5.6,5.2,2.1,7.8,7.9,5.7,13ZM67.5,1126.3c3.2,1.4,6.8-.1,8.2-3.4,1.3-3-.3-6.7-3.4-7.9-3.1-1.3-6.6.2-8,3.3-1.3,3.1,0,6.8,3.1,8Z"/>
          <path class="cls-1" d="M59.1,1078.9c5.1,2.1,7.8,8,5.8,13-2.2,5.5-8,8-13.5,5.7-5.4-2.3-7.6-7.5-5.5-12.9,2.2-5.5,7.8-8,13.2-5.8ZM49.6,1086.3c-1.4,3.4,0,6.5,3.4,7.8,3.3,1.3,6.8-.1,8-3.2,1.3-3.3-.2-7.1-3.4-8.4-3.2-1.3-6.7.3-8.1,3.8Z"/>
          <path class="cls-1" d="M46.4,1137.4c-2.1,5.1-8,7.5-13.1,5.3-5.3-2.2-7.8-8-5.6-13.3,2.1-5.2,7.7-7.6,13-5.6,5.3,2,8,8.2,5.8,13.6ZM42.8,1135.8c1.4-3.3,0-6.9-3.4-8.2-3.2-1.3-6.6.2-8,3.3-1.4,3.3-.1,6.6,3.1,8,3.4,1.5,6.9.2,8.3-3.1Z"/>
          <path class="cls-1" d="M82.7,1088.7c5.4,2.2,8,7.9,5.9,13.2-2,5.3-7.8,7.7-13.3,5.5-5.4-2.1-7.8-7.7-5.6-13.3,2.1-5.2,7.7-7.6,13-5.4ZM81.7,1092.3c-3.3-1.4-6.9,0-8.3,3.3-1.4,3.1,0,6.7,3,8.1,3.2,1.5,7,.1,8.4-3,1.4-3.2,0-7-3.2-8.4Z"/>
          <path class="cls-1" d="M55.5,1114.7c-2.2,5.3-8.1,7.7-13.3,5.5-5.1-2.2-7.4-7.9-5.3-13.1,2.1-5.2,7.8-7.6,13-5.5,5.5,2.2,7.9,7.8,5.7,13.2ZM51.9,1113.2c1.3-3.1-.1-6.7-3.3-8-3.2-1.4-6.7.1-8.2,3.5-1.4,3.3,0,6.4,3.4,7.8,3.2,1.3,6.7-.1,8-3.3Z"/>
          <path class="cls-1" d="M106.7,1098.6c5.2,2.1,7.6,7.6,5.6,12.9-2,5.4-7.8,7.9-13.2,5.8-5.2-2.1-7.7-8-5.5-13.3,2.1-5.1,7.8-7.5,13-5.5ZM108.6,1110.4c1.3-3.1,0-6.9-2.9-8.2-3.1-1.4-6.9.1-8.2,3.4-1.4,3.2,0,6.7,3.1,8,3.1,1.3,6.8-.2,8.1-3.2Z"/>
          <path class="cls-1" d="M64.4,1133.7c5.2,2.1,8,8.3,5.9,13.3-2.1,5-8,7.5-13.2,5.5-5.2-2-7.9-7.8-5.9-12.9,2-5.3,8-7.9,13.2-5.9ZM66.6,1145.5c1.3-3.1,0-6.7-3.2-8-3.3-1.5-6.9,0-8.3,3.2-1.3,3.2,0,6.7,3.1,8,3.3,1.4,7,0,8.3-3.2Z"/>
        </g>
        <g>
          <path class="cls-1" d="M92.8,733.3c-.8,3.1-1,3.3-4.2,2.5-16.8-4.4-33.6-8.8-50.4-13.2-7.7-2.1-10.8-7.1-9.2-14.9.3-1.6-.1-2.2-1.6-2.5-.8-.2-1.6-.4-2.5-.7-.9-.3-1.3-.9-1.1-1.7.2-.9.8-1.5,1.9-1.3.3,0,.7.2,1,.2,1.1.1,2.4,1.3,3.3.4,1.1-1.1,1-2.8,1.4-4.3.2-.9-.5-1.1-1.2-1.3-1-.3-2-.5-3-.8-1-.3-1.3-1.1-1-2,.2-.9.9-1.2,1.7-1.1.7.1,1.4.2,2,.4,2.1.9,3,.2,3.4-2,.6-3.3,1-2.9-2.2-3.7-.7-.2-1.3-.3-1.9-.7-.7-.4-.8-1.1-.6-1.8.2-.7.7-1.2,1.5-1.1.7,0,1.4.1,2,.4,2.1.9,3.2.4,3.6-2,.5-3.2,1.1-2.9-2.2-3.7-.4-.1-.8-.2-1.2-.3-1.1-.3-1.6-.9-1.3-2,.3-1.2,1.2-1.3,2.2-1.1.2,0,.5,0,.8.2,3.3.7,4.6-.4,4.6-3.8,0-1-.6-1.1-1.2-1.3-1-.3-2-.5-2.9-.9-1-.3-1.3-1.1-1-2.1.3-.8.9-1.2,1.8-1.1.4,0,.8.2,1.3.2,1.1.1,2.4,1.1,3.1.3,1-1.1.9-2.8,1.3-4.3.2-.8-.4-1-1-1.2-.8-.2-1.6-.4-2.5-.6-1.1-.3-1.9-.9-1.6-2.1.3-1.4,1.4-1.6,2.6-1.2,0,0,.2,0,.2,0,3.5.8,4.4,0,4.7-3.7,0-.9-.3-1.2-1-1.4-1-.3-2-.5-2.9-.9-.9-.3-1.5-.9-1.3-1.9.3-1.1,1.1-1.4,2.2-1.2.8.2,1.7.3,2.5.6,1.3.5,1.9,0,2.1-1.3,0-.4.2-.8.3-1.2.9-2,.5-3.2-1.9-3.4-.6,0-1.2-.3-1.7-.4-.9-.3-1.4-1-1.1-2,.2-.9.9-1.7,1.8-1.3,3.4,1.6,4.8,0,6.4-2.9,1.8-3.2,5.3-4.1,8.9-3.7,1,.1,2,.4,3,.6,17.3,4.5,34.6,9.1,51.8,13.7,3,.8,3.1,1,2.3,4.1-3.6,13.8-18.2,68.9-21.9,82.7ZM110.4,653.3c1.1-4.3,1.3-3.5-2.5-4.5-15.7-4.2-31.4-8.3-47.2-12.5-1-.3-2-.6-3-.7-2.9-.4-5.7.9-6.8,3-.7,1.4-.9,2.5,1.2,2.8,1.4.2,3.7.3,3.1,2.4-.6,2.4-2.6.9-4.1.8-.8,0-1.7-.9-2.2.3-.6,1.4-1.3,2.9-1,4.4.2,1.2,1.9.8,2.8,1.2.5.2,1.1.4,1.6.7.5.3.7.9.6,1.6-.2.7-.6,1-1.3,1.1-.6,0-1.2,0-1.8-.2-3.1-.5-3-.5-4,2.5-.5,1.6-.6,2.7,1.6,3,1.4.2,3.4.5,2.9,2.4-.5,2.2-2.5,1.3-3.8.8-1.7-.6-2.6-.2-2.8,1.6,0,.6-.3,1.2-.5,1.7-.5,1.2-.3,2,1.1,2.2.6.1,1.2.3,1.7.5,1.1.4,2.5.7,2,2.3-.5,1.6-1.8,1.3-3,1-.7-.2-1.3-.4-2-.5-.4-.1-.9-.2-1.1.3-.6,1.5-1.5,3.1-1.2,4.6.2,1.1,1.8.9,2.8,1.3,1.2.4,2.5.7,2,2.3-.4,1.5-1.7,1.1-2.8.9-3.4-.7-3.3-.7-4.3,2.6-.5,1.8-.1,2.4,1.6,2.7,1.4.3,3.6.4,3,2.6-.6,2.2-2.6,1.1-3.9.7-1.6-.5-2.4-.2-2.6,1.5,0,.6-.3,1.2-.5,1.7-.6,1.5,0,2.1,1.5,2.5,1.4.4,3.9.3,3.2,2.6-.7,2.1-2.6.8-4,.5-1.5-.4-2.2,0-2.5,1.5,0,.6-.3,1.2-.5,1.7-.6,1.5-.4,2.3,1.4,2.7,1.4.3,3.6.5,3,2.6-.6,2-2.5.9-3.7.5-1.5-.4-2.1-.1-2.5,1.4-1.4,5.2.7,9.1,6,10.5,16.4,4.4,32.8,8.6,49.1,13,1.6.4,2.2.1,2.6-1.5.4-1.7,0-2.3-1.7-2.8-16.1-4.2-32.1-8.4-48.2-12.6-1-.3-2-.6-2.9-1-.8-.3-1.1-1.1-.9-1.9.2-.9,1-1.2,1.8-1,.7.1,1.3.3,2,.5,16.3,4.3,32.6,8.5,48.9,12.9,1.8.5,2.5.2,3-1.7,3-11.8,15.3-58.2,18.3-69.7Z"/>
          <path class="cls-1" d="M58,669.9c-2.8-.7-3-1.2-2.2-4,1.5-5.8,3.1-11.7,4.6-17.5.7-2.6,1.1-2.9,3.8-2.2,12,3.1,24,6.3,36,9.4,1.7.5,2.4,1.3,1.9,3.1-1.7,6.2-3.3,12.5-4.9,18.8-.5,2-1.7,2.3-3.5,1.8-6-1.6-29.8-7.9-35.7-9.5ZM92,675.4c1.6.5,2.2,0,2.6-1.5,1-4.3,2.2-8.6,3.3-12.8.4-1.5.3-2.2-1.4-2.7-10.5-2.7-20.9-5.4-31.3-8.2-1.4-.4-2,0-2.3,1.3-1.1,4.4-2.2,8.7-3.5,13.1-.5,1.8,0,2.4,1.7,2.8,5.1,1.3,25.7,6.7,30.8,8.1Z"/>
        </g>
      </g>
    </g>
  </g>
</svg>