<?xml version="1.0" encoding="UTF-8"?>
<svg xmlns="http://www.w3.org/2000/svg" version="1.1" viewBox="0 0 87 706">
  <defs>
    <style>
      .cls-1 {
        fill: #f4aa8d;
      }
    </style>
  </defs>
  <!-- Generator: Adobe Illustrator 28.7.10, SVG Export Plug-In . SVG Version: 1.2.0 Build 236)  -->
  <g>
    <g id="_圖層_1" data-name="圖層_1">
      <g>
        <path class="cls-1" d="M191.3,390.3c1.6-.2,3-.5,4.4-.4,7.6.2,13.1,6.2,12.7,13.9-.4,7.2-7.2,13-14.5,12.2-4.2-.5-8.4-1.1-12.7-1-2.7,0-5.2,1-7.6,1.9-1,.4-1.4,1.5-2.2,2.2-8.5,7.3-16.6,15.1-25.5,22-.9.7-1.9,1.4-3,2-.9.5-1.8.2-2.5-.5-.6-.6-.7-1.3-.2-2.1.5-1,1-2,1.6-2.9,7.1-9.5,14.1-19.2,21.5-28.5,4.4-5.5,5.2-11.4,3.9-17.9-.6-3-1-5.9-.3-8.9,1.6-7.1,8.6-11.3,15.9-9.5,6.7,1.6,10.7,8.6,9,15.4-.2.7-.3,1.3-.6,2.2ZM175.2,413.8c2.8-1.1,5.6-1.1,8.4-1.1,2.9,0,5.7.2,8.5.7,1.7.3,3.3.3,5,0,5.5-.9,9.6-6.3,8.9-11.8-.7-5.8-5.4-9.8-11.2-9.5-3.6.2-6.5,2.1-8.9,4.5-3,3-5.8,6.2-8.8,9.2-1.4,1.4-2.6,2.7-1.8,5,.3.8,0,1.8,0,3ZM177.8,374.6c-2.9.2-5.8,2-7.8,5.5-1.8,3.2-1.5,6.6-.7,10,1.1,4.3,1,8.4-.2,12.6-.3.9-.9,2-.7,2.8.4,1,1.8.3,2.6.6.2,0,.4,0,.6.2,1.2.8,1.9.2,2.8-.8,3.9-4.3,7.8-8.5,11.9-12.6,3.4-3.4,4.6-7.7,2.8-12-1.7-4-5.8-6.5-11.4-6.2ZM142.9,440.3c.5.1,18.7-15.6,27.4-23.5,1.2-1.1,2.1-2.5,2.6-4,.9-2.6-.6-4.6-3.3-4.7-2.3,0-3.8,1.1-5.1,2.8-6.8,9.1-21.5,28.5-21.7,29.4Z"/>
        <path class="cls-1" d="M203,402.5c.2,4.3-3,7.8-7.3,8.1-4.3.2-7.8-3-7.9-7.4-.2-4.2,3-7.6,7.3-7.8,4.3-.2,7.7,2.9,8,7.1ZM195.5,408.2c2.9-.1,5.3-2.6,5.3-5.4,0-3-2.7-5.4-5.6-5.2-2.9.1-5.2,2.8-5.1,5.8.1,2.8,2.6,4.9,5.5,4.8Z"/>
        <path class="cls-1" d="M179.1,377.8c4.3-.2,7.6,2.8,7.8,7,.2,4.3-2.9,7.7-7.2,7.9-4,.2-7.6-3.1-7.7-7.2-.2-4.1,3-7.5,7.2-7.7ZM179.7,390.4c2.8-.2,5.1-2.7,4.9-5.4-.2-2.9-2.8-5.2-5.7-5-2.8.2-4.9,2.7-4.8,5.5.2,2.8,2.7,5,5.5,4.9Z"/>
        <path class="cls-1" d="M169.9,413.1c0,1.3-.8,2.1-2,2-1.2,0-2-.7-2-2,0-1.2.5-2.1,1.8-2.1,1.4,0,1.9.9,2.1,2Z"/>
      </g>
      <g>
        <path class="cls-1" d="M74.3,101c0,1.7-.8,2.9-2,4.1-7.8,7.7-15.7,15.4-23.5,23.2-3.9,3.9-7.9,7.8-11.8,11.7-.5.5-.9.8-1.6,1-5.6,1.9-17.5,5.9-17.8,6-.3,0-.7,0-1-.3-.6-.7-.2-1.3,0-1.9,2.1-5.8,4.2-11.6,6.3-17.4.1-.4.4-.7.7-1,11.2-11.1,22.4-22.2,33.6-33.3.9-.9,1.7-1.7,2.6-2.5,1.8-1.5,4.3-1.6,6,0,2.4,2.2,4.7,4.6,7,6.9,1,1,1.4,2.2,1.4,3.6ZM32.3,133.4c.9,0,1.3-.6,1.9-1.2,7.6-7.4,15.1-14.8,22.7-22.2,2.1-2.1,2.1-2,0-4.2-.8-.8-1.2-.8-2.1,0-8,8-16,15.9-24.1,23.8-1,1-.6,1.8-.4,2.8.2,1.1,1.2.6,1.9,1ZM72,100.9c0-.8-.3-1.5-.8-2-2.2-2.2-4.4-4.5-6.7-6.7-1-1-2.1-1-3.2,0-1.2,1.2-2.4,2.5-3.7,3.6-.6.6-.5.9,0,1.5,2.9,2.8,5.8,5.7,8.7,8.6.6.6,1,.8,1.7.1.9-1,2-1.9,3-2.9.6-.6,1-1.4,1-2.3ZM25.8,126.8c.1.2,2.9,1.7,4.7-.1,7.6-7.4,15.1-14.9,22.7-22.2.9-.9.8-1.4,0-2.2-.8-.8-1.3-.9-2.2,0-7.2,7.2-24.1,23.5-25.3,24.5ZM36,137.4c.5-.4,17.4-16.9,25.5-24.8.7-.7,1.1-1.2.1-2-.8-.8-1.3-.9-2.2,0-5.1,5.1-21.3,21-24.2,23.9-.3.3.3,2.4.7,3ZM34.1,138.5c0-.7-2-2.9-2.7-2.9-2.3.1-2.9-1.3-3.3-3.1-.1-.6-.3-1.1-.5-1.7-.4-1.3-1.6-.8-2.5-1.1-.8-.3-.8.6-1,1.1-.7,1.7-1.2,3.5-1.9,5.2-.2.6-.4,1.2.1,1.7,1.1,1.1,2.2,2.2,3.2,3.3.3.3.6.4,1.1.3,2.2-.7,4.5-1.5,6.7-2.2.3,0,.7-.1.7-.6ZM65.5,108.4c-.1-.1-.2-.3-.3-.4-3.1-3.1-6.3-6.3-9.4-9.4-.8-.8-1,.3-1.5.6-.6.3-.5.7,0,1.1,3.1,3.1,6.3,6.1,9.4,9.2.3.3.6.5.9.1.3-.4.9-.6,1-1.1ZM19.6,143.5c.7-.2,3.4-1,4-1.3-.9-.8-1.8-1.6-2.6-2.4-.4,1.1-.9,2.3-1.4,3.7Z"/>
        <path class="cls-1" d="M22.9,525.7c-1.9-.5-1.9-.7-1.4-2.6,1.1-3.8,2.8-4.8,6.6-3.7,1.8.5,3.7,1.1,5.5,1.6.9.3,1.2,0,1.5-.9,1.1-3.4,1.1-3.4-2-5.2-1.9-1.1-3.7-2.4-5.3-4-.7-.7-1.2-1-2-.2-.6.5-1.3.9-2,0-.6-.8,0-1.4.6-1.9,1.1-1,2.1-2,3.2-2.9.9-.7,1-1.2.3-2.2-3.2-4.9-4.5-10.2-3.9-16.1,1.4-12.3,12.8-21,25.1-19.1,3.6.6,7,1.8,10,3.9.8.6,1.4.6,2.2,0,3.5-2.6,2.8-3.4,6.2.7,9.2,11,9.4,25.9.4,36.1-6.1,7-14,9.9-23.2,9.1-1.5-.1-2,.2-2.3,1.6-.7,3.1-.8,3,2.1,3.9,1.7.5,3.4,1,5,1.6,2.8,1.1,3.7,4.9,1.9,7.2-.6.8-1.4.5-2.1.2-4.4-1.2-22-6.2-26.3-7.5ZM45.3,511c-2.1-2.8-1.9-4.4,1-6.7,1.1-.9,2.3-1.5,3.5-2.3,1.8-1.3,2-2,.8-3.8-.7-1.1-1.3-2.3-.8-3.6.9-2.8,2.7-4.7,5.6-5.4,3-.7,4.8.2,6.1,3,.2.5.5,1.1.9,1.5,1.3,1.3,1.4,2.8.8,4.5-.4,1-.2,1.9.2,2.9.4.8.7,1.1,1.2.1,1.3-2.1,2-4.3,2.5-6.7.2-.8-.1-1.3-.9-1.6-1.1-.4-1.9-1.3-2.5-2.3-.3-.6-.9-1.4-.1-2,.8-.6,1.4.2,1.9.7.4.5.7,1.3,1.6,1,0-1.4-.4-2.6-.7-3.9-.3-1-.7-1.1-1.6-.7-1.6.7-3.2,1.3-4.9,1.9-.9.3-1.9.7-2.3-.6-.5-1.3.7-1.3,1.5-1.6,1-.3,2-.6,3-1,4.1-1.8,3.4-.9,1.4-4.3-.2-.3-.3-.7-.8-.9-.3,0-.3.3-.4.5-.8,2-2.1,2.3-3.8,1-.8-.6-1.6-1.4-2-2.4-.8-2.2-2.8-1.9-4.6-2.7.3,1.1.5,1.7.6,2.4.3,2.3-1.2,3.5-3.4,2.8-.8-.3-1.5-.7-2.1-1.2-2.8-2.2-3.2-2.2-6.1-.2-.9.6-1.1,1.3-.4,2.1.6.7,1.1,1.5,1.5,2.3.3.6.5,1.3,0,1.8-.8,1-.5,1.9-.1,2.9,1.1,2.9.2,4.6-2.8,5.3-.8.2-1.6.4-2.2,1-1,1-2.3,1.4-3.6,1.6-2,.4-3.9.4-5.9.2,1.5,7.5,9.4,13.8,17.9,14.3ZM39.2,515.2c6,1.8,11.3,1.5,16.6-.3,15.9-5.4,22.8-26.3,9.1-41.2-1.1-1.1-1.6.3-2.3.6-1,.4-.2.9.1,1.3,1.8,1.9,3.1,4,4.3,6.3,7.1,14.2-2.9,28.8-14.7,31-7.9,1.4-14.9-.3-21-5.5-1.2-1-1.7-.2-2.4.4-1,.9,0,1.3.5,1.7,3,2.8,6.5,4.7,9.7,5.6ZM26.6,493.3c1.8-1.6,3.3-3.3,4.8-5.1,1-1.1,1.5-2.1.8-3.7-.9-2.4,0-4.7,1.5-6.7.6-.7,1.5-1.1,2.3-.4.9.8.2,1.4-.4,2-1.4,1.3-2,3-1.1,4.7,1,2,.5,3.4-.9,4.9-1.6,1.7-3.2,3.5-5,5.5,2.6,0,4.9,0,6.9-1.5.8-.6,1.7-1,2.7-1.2,2-.5,2.2-.8,1.4-2.8-.4-1-.8-2-.2-3,.6-1.1.3-1.9-.5-2.8-1.1-1.2-1.7-2.7-.7-4.3.1-.2.4-.5,0-.8-1.6-1.7-1.1-3.6-.6-5.6-7.3,2.4-13.2,13.5-11,20.6ZM47.3,509.1c2.5.5,4.6.3,6.5-1.3,1.3-1.1,2.9-2.1,4.7-.7.5.4.9.1,1.3-.2.7-.6,1.4-1.4,2.2-2,.6-.6.7-1,0-1.7-.9-1.1-1.7-2.5-1.3-3.9.7-2.4,0-4.4-1.4-6.3,0,0,0-.1,0-.2-.4-1.7-1.7-1.9-3.1-1.7-1.9.3-3.2,1.5-4.1,3.2-.5.9-.3,1.7.3,2.6,1.8,2.5,1.6,4.1-.7,6.2-.7.6-1.6,1.1-2.4,1.7-.8.6-1.8,1.1-2.5,1.9-1,1.2-.8,2,.5,2.3ZM48.2,530.4c.5.1,1.1.7,1.5-.1.3-.6.2-1.2-.1-1.8-.4-.7-1.1-.9-1.7-1.1-2.4-.7-4.8-1.4-7.2-2-1.4-.4-1.9-1.2-1.5-2.6.4-1.2.6-2.4,1-3.5.2-.8.3-1.2-.7-1.5-.9-.3-1.4-.1-1.6.9-.1.6-.3,1.1-.5,1.7-1.2,4.4-.8,3.9-5,2.8-2.1-.6-4.1-1.2-6.2-1.7-1.2-.3-2,.3-2.3,1.4-.3,1.2.8,1.1,1.4,1.2,3.7,1.1,18.9,5.4,22.8,6.5ZM39.7,474.2c-.2.8-.3,1.4,0,2,.2.4.5.7,1,.4,2.9-1.9,5.3-.8,7.5,1.2.5.4,1.4,1.4,1.8.8.5-.7,0-1.9-.6-2.7-.1-.2-.4-.2-.6-.3-1-.6-1.4-1.5-1.3-2.6.1-2,.1-2-1.8-1.9-.8,0-1.5.2-2.3.2-2.2,0-3.1,1.6-3.8,3.1ZM53.8,473.9c.2,0,.4.2.6.2.4,0,1,.7,1.3,0,.3-.6-.4-.9-.8-1.1-1.2-.7-2.5-1.2-3.8-1.5-.8-.2-1.2,0-1.4.8-.2.9.2,1.2,1,1.2,1,0,2.1,0,3.1.5ZM57.8,474.9c-.2,1.5.5,2.6,1.5,3.7.6.6.8.3.9-.3.4-1.6-.2-2.4-2.4-3.3Z"/>
        <g>
          <path class="cls-1" d="M31.9,0c17.1,0,27.8,18.9,19.2,33.9-.8,1.4-.6,2,.5,3.1,4.8,4.7,9.5,9.5,14.2,14.4,2.2,2.3,2.1,5.3-.3,7.6-2.1,2.1-4.9,2.1-7.3-.2-4.9-4.9-9.9-9.9-14.7-14.9-.9-1-1.6-1.2-2.9-.6-13,5.7-27.9-1.9-31-15.7C6.5,13.4,17.4,0,31.9,0ZM11.1,22.6c0,11.4,9.3,20.7,20.6,20.7,11.4,0,20.7-9.4,20.7-20.8,0-11.3-9.4-20.7-20.6-20.7-11.5,0-20.7,9.3-20.6,20.8ZM65.5,55c0-1-.4-1.7-1.1-2.4-3.8-3.9-7.7-7.8-11.5-11.7-.5-.5-.9-.6-1.4,0-1.1,1.1-2.3,2.2-3.4,3.2-.7.6-.8,1.1,0,1.8,3.9,3.8,7.7,7.7,11.5,11.6,1,1,2,1.6,3.4,1,1.5-.7,2.3-1.9,2.5-3.4ZM46,43.4c.3-.2.6-.4.8-.6,1.1-1,2.2-2.1,3.4-3,.9-.7.6-1.2,0-1.7-.6-.5-1-1.4-1.9-.2-.9,1.2-2.1,2.2-3.3,3.1-.3.2-1.1.4-.7.9.4.7,1,1.3,1.8,1.6Z"/>
          <path class="cls-1" d="M31.7,4.6c10.1,0,18.1,8.1,18,18.1,0,10-8.2,18.2-18.1,18.1-10.2,0-18.1-8.2-18.1-18.4,0-9.9,8.1-17.8,18.1-17.7ZM31.7,38.9c8.9,0,16.1-7.2,16.2-16.2,0-8.8-7.1-16.1-16-16.2-9-.1-16.2,6.9-16.3,15.8-.1,9.2,7,16.5,16.2,16.6Z"/>
          <path class="cls-1" d="M31.9,11.1c-.1.6-.5.8-1.1.9-2.3.1-4.3.9-6,2.4-.4.4-.9.6-1.4,0-.5-.5-.2-1,.2-1.4,2.1-2,4.6-2.8,7.4-2.8.6,0,.8.3.9.9Z"/>
          <path class="cls-1" d="M19.1,20.9c.2-1.3.5-2.6,1.1-3.8.3-.6.7-1,1.4-.6.6.3.5.8.3,1.4-.5,1.1-.9,2.1-1.1,3.3,0,.6-.3,1-1,.9-.7,0-.7-.6-.7-1.2Z"/>
        </g>
        <path class="cls-1" d="M82.2,612.7c0,2.7-1.2,4.9-3.6,6.2-2.2,1.2-4.4.9-6.6-1-1-.9-1.6-1.1-2.8-.2-1.8,1.4-4.3,1.2-6.3-.6-4.8-4.1-9.5-8.4-14.2-12.6-3.3-3-6.6-6-9.9-9-1.4-1.3-2.3-2.8-1.5-4.8.5-1.2-.5-1.6-1.1-2.2-5.7-5.2-11.3-10.6-17.2-15.6-6.2-5.2-9.9-12.1-13.8-19-.3-.6-.5-1.2,0-1.8.5-.6,1.2-.5,1.8-.3,5.8,1.9,11.6,3.7,17.1,6.4,1.9.9,3.4,2.4,4.9,3.8,15.9,14.2,31.7,28.4,47.6,42.6,1.9,1.7,3,3.8,4.6,5.6.6.7.8,1.6.9,2.5ZM42,588.5c0,.6.5.7.8.8,2.8,1.2,4.8,3.4,7,5.4,6.5,5.8,12.9,11.7,19.3,17.6,1.1,1,1.8,1,2.6-.2,1-1.3,2.1-2.5,3.2-3.7.8-.8.9-1.3,0-2.1-8.8-7.8-17.6-15.6-26.3-23.4-.8-.7-1.2-.8-1.9,0-1.3,1.6-4.4,5.4-4.6,5.6ZM39.2,588c.1-.2,3.7-4.5,5.5-6.3,1.1-1.1.9-1.7-.2-2.6-5.9-5.2-11.8-10.5-17.6-15.7-.8-.8-1.3-.9-2.1,0-1.5,1.8-3,3.5-4.6,5.2-.9,1-1.1,1.6.1,2.7,5.9,5.3,18.2,16.8,18.9,16.8ZM39.5,592.3c.1.8.6,1.2,1.1,1.7,7.9,7.2,15.7,14.4,23.8,21.3.6.5,1.3,1.1,2.2,1,.7,0,1.4-.2,1.7-.9.3-.7-.4-1-.8-1.4-7.3-6.6-14.5-13.2-21.8-19.8-1.3-1.2-2.7-2.1-4.3-2.8-1.1-.5-1.7-.2-1.9.9ZM24.1,560.9c-5.3-2.5-10.2-4.4-15.7-5.8,2.5,4.5,4.8,8.5,7.7,12.2.7.8,1.1,1,1.9.1,1.9-2.1,3.9-4.2,6.1-6.5ZM76.2,617.2c1.3-.2,2.4-1,3.1-2.4.8-1.5.2-2.8-.7-4.1-.9-1.3-1.6-1.6-2.6-.2-.7,1-1.6,1.8-2.2,2.8-.5.7-1.7,1.3-1,2.4.7,1,1.8,1.6,3.4,1.5Z"/>
        <g>
          <path class="cls-1" d="M52.1,291.9c14.7.2,27.2,10,30.3,23.9,1,4.5,1,8.9-.5,13.3-2.4,7.2-9.7,9.4-15.7,4.8-.7-.5-1.4-1.1-2.2-1.5-1-.4-2-.5-2.8.3-.8.8-.6,1.7-.3,2.6.6,1.5,1.7,2.5,2.6,3.7,1.8,2.2,2.9,4.6,2.6,7.6-.4,3.5-2.5,5.8-5.4,7.5-3.3,1.9-6.8,2.3-10.5,2.1-14.6-.7-25.7-10.4-29-25.3-4-18.1,7.8-35.6,25.9-38.6,1.6-.3,3.3-.3,4.9-.4ZM51.6,354c1.8,0,3.9-.1,5.9-.8,6.6-2.2,8.3-8,3.8-13.3-.8-.9-1.6-1.8-2.2-2.9-1.2-2.3-.9-4.6.7-6,1.6-1.4,4.2-1.4,6.2,0,.9.6,1.6,1.3,2.5,1.9,3.9,2.5,8.9,1,10.8-3.2.9-1.9,1.4-4,1.4-6.1.2-11.9-5.1-20.5-15.5-25.9-13-6.8-28.6-2.9-36.9,9.1-4.6,6.7-6.1,14.1-5.1,22.2,1.8,14.2,13.9,25.1,28.5,25.1Z"/>
          <path class="cls-1" d="M27.1,323.1c.1-2.9,2.7-5.3,5.7-5.2,2.8,0,5.1,2.5,5.1,5.4,0,3.1-2.6,5.4-5.6,5.3-3-.2-5.3-2.6-5.2-5.5ZM35.6,323.2c0-1.6-1.4-2.9-3-2.9-1.6,0-3,1.4-3,3,0,1.6,1.3,3,3,3,1.8,0,3.1-1.3,3.1-3.1Z"/>
          <path class="cls-1" d="M61,309.6c0-3,2.4-5.3,5.4-5.3,3,0,5.3,2.4,5.3,5.4,0,3-2.4,5.3-5.4,5.3-3,0-5.3-2.4-5.3-5.4ZM69.4,309.6c0-1.6-1.5-3-3.1-3-1.6,0-3.1,1.6-3.1,3.2,0,1.6,1.5,2.9,3.2,2.8,1.6,0,3-1.4,3-3Z"/>
          <path class="cls-1" d="M52.3,299.1c3.1,0,5.4,2.2,5.4,5.2,0,2.8-2.4,5.3-5.2,5.3-2.8,0-5.3-2.4-5.4-5.2,0-3,2.2-5.4,5.2-5.4ZM55.5,304.3c0-1.6-1.5-3-3.1-2.9-1.7,0-3,1.4-2.9,3.1,0,1.7,1.5,2.9,3.2,2.8,1.6,0,2.9-1.4,2.9-3Z"/>
          <path class="cls-1" d="M33.3,339.8c0-3,2.4-5.4,5.3-5.4,2.8,0,5.3,2.5,5.3,5.5,0,2.8-2.6,5.2-5.5,5.2-2.9,0-5.1-2.3-5.1-5.3ZM41.6,339.9c0-1.7-1.3-3.1-2.9-3.1-1.7,0-3.1,1.4-3.2,3.1,0,1.6,1.3,3,3,2.9,1.7,0,3-1.3,3.1-2.9Z"/>
          <path class="cls-1" d="M43.6,309c0,2.9-2.3,5.2-5.2,5.3-3,0-5.4-2.4-5.4-5.3,0-2.9,2.4-5.3,5.2-5.3,3,0,5.4,2.3,5.4,5.3ZM38.4,306c-1.6,0-2.9,1.2-3,2.8,0,1.7,1.2,3.1,2.9,3.1,1.6,0,3.1-1.3,3.1-2.9,0-1.6-1.3-3-3-3Z"/>
          <path class="cls-1" d="M47.3,344.5c0-3,2.2-5.3,5.1-5.3,3,0,5.3,2.2,5.3,5.1,0,3-2.3,5.5-5.3,5.4-3,0-5.2-2.3-5.2-5.2ZM52.6,341.4c-1.6,0-3,1.4-3,3,0,1.6,1.3,2.9,2.9,2.9,1.6,0,3-1.3,3.1-2.9,0-1.7-1.3-3-2.9-3Z"/>
          <path class="cls-1" d="M66.3,323.9c0-3,2.3-5.4,5.3-5.4,2.8,0,5.2,2.5,5.2,5.3,0,2.9-2.4,5.2-5.3,5.2-3,0-5.2-2.2-5.2-5.2ZM74.4,323.8c0-1.5-1.3-2.9-2.9-2.9-1.7,0-3,1.3-3,3,0,1.6,1.3,2.9,2.9,3,1.6,0,3-1.3,3.1-3Z"/>
        </g>
        <g>
          <path class="cls-1" d="M72.3,234.8c.8,2.4.7,2.7-1.8,3.5-14.4,5-28.8,10-43.2,15-2.4.8-2.5.8-3.4-1.6-.4-1-.7-2.1-1.1-3.1-.6-1.7-.6-1.8-2.4-1.1-3.9,1.4-3.7,1.7-5.1-2.4-4.5-12.8-9.1-25.6-13.7-38.5-.8-2.1-.7-2.3,1.4-3.1q3.6-1.3,2.4-4.8c-.3-.9-.7-1.9-1-2.8-.6-1.7-.5-2,1.2-2.6,5.1-1.8,34.5-12.1,44.1-15.5,2-.7,2.3-.6,3,1.5,3.2,9.3,16.2,46.3,19.4,55.5ZM51.2,181.5c-.4-1.2-.8-1.5-2.1-1.1-13.5,4.8-27,9.5-40.5,14.2-1.8.6-1.8.6-1.2,2.4,6.1,17.5,12.1,34.9,18.2,52.4.6,1.8.6,1.8,2.4,1.2,13.5-4.7,26.9-9.4,40.4-14.1,1.8-.6,1.8-.6,1.2-2.5-3-8.7-15.3-43.7-18.4-52.5ZM8.1,205.9c-.4-1.3-1-1.5-2.1-1-.9.4-2.2.3-1.5,2.1,4.4,12.4,8.8,24.9,13.1,37.3.6,1.6,1.4,1,2.4.7,1.1-.3,1.6-.7,1.1-2-2.3-6.2-10.9-31-13-37.2Z"/>
          <path class="cls-1" d="M39.2,233.3c-.4.2-.9.3-1.3.4-.5,0-.9-.1-1.1-.6-.2-.5,0-1,.5-1.4.3-.2.7-.3,1.1-.5,6.8-2.4,13.7-4.8,20.5-7.2.3-.1.7-.2,1-.3.5,0,1.1,0,1.3.6.3.6-.1,1.1-.6,1.5-.4.2-.9.4-1.3.5-3.3,1.2-16.7,5.8-20.1,6.9Z"/>
          <path class="cls-1" d="M41.8,239.9c-.4.2-.9.3-1.3.4-.6.1-1.2,0-1.4-.7-.2-.7,0-1.1.7-1.4.4-.2.8-.3,1.1-.4,6.7-2.4,13.5-4.7,20.2-7.1.4-.1.8-.3,1.2-.3.6,0,1.1.2,1.2.7.2.6,0,1-.5,1.4-.3.2-.7.3-1.1.5-3.4,1.2-16.8,5.8-20.1,7Z"/>
          <path class="cls-1" d="M37,226.8c-.4.2-.9.3-1.3.4-.6,0-1-.2-1.2-.8-.2-.5,0-.9.5-1.2.4-.2.8-.4,1.3-.5,6.7-2.4,13.5-4.7,20.2-7.1.2,0,.3-.1.5-.2.8-.3,1.6-.4,1.9.5.3.9-.3,1.4-1.1,1.6-1.3.4-18.8,6.6-20.7,7.2Z"/>
          <path class="cls-1" d="M54.2,211.2c.4-.2.9-.3,1.3-.4.6,0,1,.2,1.2.8.2.5,0,.9-.5,1.2-.5.2-1,.4-1.5.6-6.7,2.3-20.8,7.2-21.1,7.3-.7.2-1.2,0-1.4-.7-.2-.7,0-1.2.7-1.4,1-.4,17.8-6.2,21.2-7.4Z"/>
          <path class="cls-1" d="M51.8,204.7c.4-.1.8-.3,1.2-.4.6-.1,1.2.1,1.4.8.2.6,0,1-.7,1.3-.3.1-.6.3-1,.4-6.7,2.3-20.6,7.2-20.9,7.2-.7.2-1.6.5-1.9-.5-.3-1,.4-1.3,1.2-1.6,3.6-1.2,17.4-6,20.7-7.2Z"/>
          <path class="cls-1" d="M28.8,227.3c.6-.2,1.2,0,1.4.6.2.7,0,1.3-.8,1.5-1.3.5-2.6.9-3.9,1.4-.7.2-1.2,0-1.4-.6-.3-.6,0-1.2.6-1.4.7-.3,3.5-1.3,4.1-1.5Z"/>
          <path class="cls-1" d="M31,233.8c.7-.2,1.3,0,1.6.7.2.6,0,1.2-.7,1.4-1.3.5-2.7,1-4.1,1.5-.6.2-1.2,0-1.4-.6-.3-.7,0-1.3.7-1.5.6-.3,3.3-1.2,3.9-1.4Z"/>
          <path class="cls-1" d="M33.4,240.4c.6-.2,1.2.1,1.4.7.2.5,0,1.1-.5,1.3-1.4.6-2.8,1.1-4.2,1.5-.6.2-1.2-.1-1.4-.8-.2-.6,0-1.2.7-1.4.6-.3,3.4-1.2,4.1-1.4Z"/>
          <path class="cls-1" d="M23.3,224.3c-.7.2-1.3,0-1.5-.7-.2-.6.1-1.1.7-1.4,1.4-.5,2.7-1,4.1-1.4.6-.2,1.1,0,1.3.6.3.6,0,1.2-.5,1.5-.7.3-3.5,1.3-4.1,1.5Z"/>
          <path class="cls-1" d="M24.4,214.2c.6-.2,1.1,0,1.3.6.3.6,0,1.2-.6,1.4-1.4.5-2.7,1-4.1,1.4-.6.2-1.2,0-1.4-.6-.2-.6,0-1.1.7-1.4.7-.3,3.4-1.2,4.1-1.4Z"/>
        </g>
        <g>
          <path class="cls-1" d="M20.8,654.5c3.5-8.5,6.9-17,10.4-25.5,2.2-5.4,6-6.9,11.4-4.7,12.2,5,24.5,10,36.7,15,4.6,1.9,6.4,5.9,4.5,10.5-7.1,17.5-14.3,35-21.5,52.4-1.7,4.2-5.9,5.9-10.1,4.2-12.7-5.2-25.4-10.4-38.1-15.6-4.2-1.7-5.9-5.8-4.2-10.1,3.6-8.8,7.2-17.5,10.8-26.3,0,0,0,0,0,0ZM23,655.1s0,0,0,0c-3.5,8.6-7,17.1-10.5,25.7-1.7,4.1-.7,6.6,3.4,8.2,12.2,5,24.3,10,36.5,14.9,4.1,1.7,6.7.6,8.4-3.5,6.9-16.8,13.7-33.5,20.6-50.3,2-5,1.1-7.3-3.8-9.3-11.9-4.9-23.8-9.8-35.7-14.6-4.1-1.7-6.7-.6-8.4,3.5-3.5,8.4-6.9,16.9-10.4,25.3Z"/>
          <path class="cls-1" d="M74.5,644.4c2.9,1.2,3.5,2.7,2.3,5.6-.8,1.9-1.5,3.9-2.4,5.8-1.2,2.5-3.2,3.4-5.8,2.3-10.4-4.3-20.9-8.5-31.3-12.9-3.3-1.4-4-3.2-2.7-6.5.6-1.5,1.2-2.9,1.8-4.4,1.4-3.5,3.2-4.2,6.6-2.9,5.3,2.2,26.3,10.8,31.5,12.9ZM69.1,655.6c2.1.9,2.7.6,3.6-1.5.6-1.4,1.2-2.8,1.7-4.2,1-2.6.9-2.8-1.6-3.8-9.2-3.8-18.5-7.5-27.7-11.3-1.2-.5-2.4-1-3.6-1.5-1.3-.5-2.2-.2-2.8,1.2-.6,1.5-1.3,3-1.9,4.6-1,2.6-.8,3.1,1.7,4.1,5,2.1,25.4,10.4,30.5,12.5Z"/>
          <path class="cls-1" d="M57.5,696.3c-1.3,3-3.3,3.9-6.4,2.8-.9-.3-1.7-.7-2.6-1.1-2.1-1.2-3-3.4-2.1-5.7,2-5.2,4.1-10.4,6.4-15.5,1.2-2.8,4.6-3.7,7.8-2.3,3,1.3,4.2,4.1,3,7.1-.5,1.3-5,12.4-6,14.7ZM61.3,681c.8-2.1.2-3.7-1.8-4.6-2-.9-4.1-.2-4.9,1.7-2,4.8-4,9.5-5.8,14.3-.8,2,0,3.3,2.4,4.3,2.2.9,3.5.5,4.4-1.6,1-2.3,4.8-11.7,5.8-14.1Z"/>
          <path class="cls-1" d="M49.1,676.1c-1.3,3.2-4.9,4.7-8.2,3.3-3-1.3-4.5-4.7-3.2-7.7,1.3-3.2,4.9-4.7,8-3.4,3.1,1.3,4.7,4.8,3.4,7.8ZM41.9,677.3c1.9.8,4.1,0,5-2.1.8-1.8-.2-4-2-4.8-1.9-.8-4,.1-4.8,2-.8,1.9,0,4.1,1.9,4.8Z"/>
          <path class="cls-1" d="M36.9,648.8c3.1,1.3,4.7,4.8,3.5,7.8-1.3,3.3-4.8,4.8-8.1,3.4-3.3-1.4-4.6-4.5-3.3-7.8,1.3-3.3,4.7-4.8,7.9-3.5ZM31.2,653.2c-.8,2,0,3.9,2.1,4.7,2,.8,4.1,0,4.8-1.9.8-2-.1-4.3-2-5-2-.8-4,.2-4.9,2.3Z"/>
          <path class="cls-1" d="M29.3,683.9c-1.2,3.1-4.8,4.5-7.9,3.2-3.2-1.3-4.7-4.8-3.4-8,1.3-3.1,4.6-4.6,7.8-3.4,3.2,1.2,4.8,4.9,3.5,8.2ZM27.1,683c.8-2,0-4.1-2.1-5-1.9-.8-4,0-4.8,2-.9,2,0,4,1.9,4.8,2.1.9,4.2.1,5-1.9Z"/>
          <path class="cls-1" d="M51.1,654.6c3.3,1.3,4.8,4.7,3.5,7.9-1.2,3.2-4.7,4.6-8,3.3-3.3-1.3-4.7-4.6-3.3-8,1.2-3.1,4.6-4.6,7.8-3.3ZM50.5,656.8c-2-.9-4.1,0-5,2-.8,1.8,0,4,1.8,4.9,1.9.9,4.2,0,5.1-1.8.9-1.9,0-4.2-1.9-5Z"/>
          <path class="cls-1" d="M34.7,670.3c-1.3,3.2-4.9,4.6-8,3.3-3.1-1.3-4.5-4.8-3.2-7.9,1.2-3.1,4.7-4.6,7.8-3.3,3.3,1.3,4.7,4.7,3.4,7.9ZM32.6,669.4c.8-1.9,0-4-2-4.8-1.9-.8-4.1,0-4.9,2.1-.8,2,0,3.8,2.1,4.7,1.9.8,4,0,4.8-2Z"/>
          <path class="cls-1" d="M65.5,660.6c3.1,1.2,4.6,4.6,3.4,7.8-1.2,3.2-4.7,4.8-7.9,3.5-3.1-1.2-4.6-4.8-3.3-8,1.3-3.1,4.7-4.5,7.8-3.3ZM66.7,667.7c.8-1.9,0-4.1-1.8-4.9-1.9-.9-4.1,0-5,2-.8,1.9,0,4,1.9,4.8,1.8.8,4.1,0,4.8-1.9Z"/>
          <path class="cls-1" d="M40.1,681.7c3.2,1.3,4.8,5,3.6,8-1.3,3-4.8,4.5-7.9,3.3-3.1-1.2-4.7-4.7-3.6-7.8,1.2-3.2,4.8-4.8,7.9-3.5ZM41.4,688.8c.8-1.9,0-4-1.9-4.8-2-.9-4.2,0-5,1.9-.8,1.9,0,4,1.9,4.8,2,.9,4.2,0,5-1.9Z"/>
        </g>
        <g>
          <path class="cls-1" d="M57.1,441c-.5,1.9-.6,2-2.6,1.5-10.1-2.6-20.2-5.3-30.3-8-4.7-1.2-6.5-4.3-5.5-9,.2-1,0-1.3-1-1.5-.5,0-1-.3-1.5-.4-.5-.2-.8-.5-.7-1,.1-.6.5-.9,1.1-.8.2,0,.4.1.6.1.7,0,1.5.8,2,.2.6-.6.6-1.7.8-2.6.1-.6-.3-.7-.7-.8-.6-.2-1.2-.3-1.8-.5-.6-.2-.8-.7-.6-1.2.1-.5.5-.7,1.1-.7.4,0,.8.1,1.2.3,1.3.5,1.8.1,2.1-1.2.4-2,.6-1.7-1.3-2.2-.4-.1-.8-.2-1.2-.4-.4-.2-.5-.6-.4-1.1.1-.4.4-.7.9-.7.4,0,.8,0,1.2.2,1.3.5,1.9.3,2.1-1.2.3-1.9.6-1.7-1.3-2.2-.2,0-.5-.1-.7-.2-.6-.2-1-.5-.8-1.2.2-.7.7-.8,1.3-.7.2,0,.3,0,.5,0,2,.4,2.8-.3,2.8-2.3,0-.6-.3-.7-.7-.8-.6-.2-1.2-.3-1.8-.5-.6-.2-.8-.7-.6-1.2.2-.5.6-.7,1.1-.6.3,0,.5.1.8.1.6,0,1.4.7,1.9.2.6-.7.6-1.7.8-2.6.1-.5-.2-.6-.6-.7-.5-.1-1-.3-1.5-.4-.7-.2-1.2-.5-1-1.3.2-.8.8-.9,1.6-.7,0,0,0,0,.1,0,2.1.5,2.6,0,2.8-2.2,0-.6-.2-.7-.6-.9-.6-.2-1.2-.3-1.8-.5-.5-.2-.9-.5-.8-1.1.2-.7.7-.9,1.3-.7.5.1,1,.2,1.5.4.8.3,1.2,0,1.3-.8,0-.3.1-.5.2-.7.5-1.2.3-1.9-1.2-2.1-.4,0-.7-.2-1-.3-.6-.2-.8-.6-.7-1.2.1-.6.6-1,1.1-.8,2,1,2.9,0,3.9-1.7,1.1-1.9,3.2-2.5,5.4-2.2.6,0,1.2.2,1.8.4,10.4,2.7,20.8,5.5,31.2,8.2,1.8.5,1.9.6,1.4,2.5-2.2,8.3-11,41.5-13.1,49.7ZM67.8,392.8c.7-2.6.8-2.1-1.5-2.7-9.4-2.5-18.9-5-28.4-7.5-.6-.2-1.2-.3-1.8-.4-1.7-.3-3.4.5-4.1,1.8-.4.9-.5,1.5.7,1.7.8.1,2.2.2,1.9,1.5-.3,1.5-1.6.6-2.4.5-.5,0-1.1-.5-1.3.2-.3.8-.8,1.8-.6,2.7.1.7,1.1.5,1.7.7.3.1.7.2,1,.4.3.2.4.6.3,1-.1.4-.4.6-.8.6-.4,0-.7,0-1.1,0-1.9-.3-1.8-.3-2.4,1.5-.3,1-.3,1.6.9,1.8.8.1,2,.3,1.8,1.4-.3,1.3-1.5.8-2.3.5-1-.3-1.5-.1-1.7,1,0,.4-.2.7-.3,1-.3.7-.2,1.2.7,1.3.4,0,.7.2,1,.3.7.2,1.5.4,1.2,1.4-.3.9-1.1.8-1.8.6-.4-.1-.8-.2-1.2-.3-.2,0-.6-.1-.7.2-.3.9-.9,1.8-.7,2.8.1.7,1.1.6,1.7.8.7.2,1.5.4,1.2,1.4-.3.9-1,.7-1.7.5-2-.4-2-.4-2.6,1.6-.3,1.1,0,1.4,1,1.6.8.2,2.2.2,1.8,1.5-.4,1.3-1.5.6-2.3.4-1-.3-1.5-.1-1.6.9,0,.4-.2.7-.3,1-.4.9,0,1.3.9,1.5.8.3,2.3.2,1.9,1.6-.4,1.3-1.6.5-2.4.3-.9-.3-1.4,0-1.5.9,0,.4-.2.7-.3,1-.4.9-.2,1.4.9,1.6.8.2,2.2.3,1.8,1.6-.3,1.2-1.5.5-2.2.3-.9-.3-1.3,0-1.5.9-.8,3.1.4,5.5,3.6,6.3,9.8,2.6,19.7,5.2,29.5,7.8,1,.3,1.3,0,1.6-.9.3-1,0-1.4-1-1.7-9.7-2.5-19.3-5-29-7.6-.6-.2-1.2-.3-1.7-.6-.5-.2-.6-.7-.5-1.2.1-.5.6-.7,1.1-.6.4,0,.8.2,1.2.3,9.8,2.6,19.6,5.1,29.4,7.8,1.1.3,1.5.1,1.8-1,1.8-7.1,9.2-35,11-41.9Z"/>
          <path class="cls-1" d="M36.2,402.8c-1.7-.4-1.8-.7-1.3-2.4.9-3.5,1.8-7,2.8-10.5.4-1.6.7-1.7,2.3-1.3,7.2,1.9,14.4,3.8,21.7,5.7,1.1.3,1.4.8,1.1,1.9-1,3.8-2,7.5-2.9,11.3-.3,1.2-1,1.4-2.1,1.1-3.6-1-17.9-4.7-21.5-5.7ZM56.7,406.1c1,.3,1.3,0,1.6-.9.6-2.6,1.3-5.2,2-7.7.2-.9.2-1.3-.9-1.6-6.3-1.6-12.6-3.3-18.8-5-.9-.2-1.2,0-1.4.8-.7,2.6-1.3,5.3-2.1,7.9-.3,1.1,0,1.4,1,1.7,3.1.8,15.4,4,18.5,4.9Z"/>
        </g>
      </g>
    </g>
  </g>
</svg>