<?xml version="1.0" encoding="utf-8"?>
<!-- Generator: Adobe Illustrator 26.5.3, SVG Export Plug-In . SVG Version: 6.00 Build 0)  -->
<svg version="1.1" id="圖層_1" xmlns="http://www.w3.org/2000/svg" xmlns:xlink="http://www.w3.org/1999/xlink" x="0px" y="0px"
	 viewBox="0 0 30 30" style="enable-background:new 0 0 30 30;" xml:space="preserve">
<style type="text/css">
	.st0{fill:#36A36E;}
</style>
<path class="st0" d="M0.2,2.2C0.1,2,0,1.7,0,1.4C0,0.6,0.6,0,1.4,0h6.4c0.7,0,1.3,0.3,1.6,0.9l4,6.7C10.6,8,8.1,9.3,6.2,11.2
	L0.2,2.2z M29.8,2.2l-6,9c-1.9-2-4.4-3.3-7.2-3.6l4-6.7C20.9,0.3,21.5,0,22.2,0h6.4C29.4,0,30,0.6,30,1.4C30,1.7,29.9,2,29.8,2.2
	L29.8,2.2z M4.7,19.7C4.7,14,9.3,9.4,15,9.4S25.3,14,25.3,19.7S20.7,30,15,30S4.7,25.4,4.7,19.7z M15.5,14.1c-0.2-0.4-0.8-0.4-1,0
	l-1.3,2.7c-0.1,0.2-0.2,0.3-0.4,0.3l-2.9,0.4c-0.5,0.1-0.6,0.6-0.3,0.9l2.1,2.1c0.1,0.1,0.2,0.3,0.2,0.5l-0.5,2.9
	c-0.1,0.4,0.4,0.8,0.8,0.6l2.6-1.4c0.2-0.1,0.4-0.1,0.5,0l2.6,1.4c0.4,0.2,0.9-0.1,0.8-0.6L18.2,21c0-0.2,0-0.4,0.2-0.5l2.1-2.1
	c0.3-0.3,0.1-0.9-0.3-0.9l-2.9-0.4c-0.2,0-0.3-0.1-0.4-0.3L15.5,14.1z"/>
</svg>
