<?xml version="1.0" encoding="utf-8"?>
<!-- Generator: Adobe Illustrator 26.5.3, SVG Export Plug-In . SVG Version: 6.00 Build 0)  -->
<svg version="1.1" id="圖層_1" xmlns="http://www.w3.org/2000/svg" xmlns:xlink="http://www.w3.org/1999/xlink" x="0px" y="0px"
	 viewBox="0 0 300 300" style="enable-background:new 0 0 300 300;" xml:space="preserve">
<style type="text/css">
	.st0{fill:#E0941D;}
	.st1{fill:url(#SVGID_1_);}
	.st2{clip-path:url(#SVGID_00000034769522994389829510000014740426362915298709_);}
	.st3{filter:url(#Adobe_OpacityMaskFilter);}
	.st4{clip-path:url(#SVGID_00000057845707098142116920000009856101167239100860_);}
	.st5{clip-path:url(#SVGID_00000066473954886830679460000012972551186307286693_);}
	.st6{clip-path:url(#SVGID_00000045609288044921418200000016097012997369918377_);}
	.st7{clip-path:url(#SVGID_00000050646266046839064430000015805294083012909473_);}
	.st8{clip-path:url(#SVGID_00000070119360403375258660000005113628435294675365_);}
	.st9{clip-path:url(#SVGID_00000064330854381755719460000015967252048634858929_);}
	.st10{clip-path:url(#SVGID_00000035505576568577762020000015214523225689597116_);}
	
		.st11{clip-path:url(#SVGID_00000013177959441926325440000017332903436155479211_);fill:url(#SVGID_00000158732796109982971070000000020042737268050599_);}
	
		.st12{clip-path:url(#SVGID_00000057845707098142116920000009856101167239100860_);mask:url(#SVGID_00000100348666545428139270000005694370957492065967_);fill:url(#SVGID_00000070109504872224783770000007741233322422878093_);}
	.st13{fill:url(#SVGID_00000036225463151978766970000016426039167511833738_);}
	.st14{fill:#FFE000;}
	.st15{fill:#A44023;}
</style>
<g>
	<g>
		<path class="st0" d="M300,150c0,82.8-67.2,150-150,150S0,232.8,0,150S67.2,0,150,0S300,67.2,300,150z"/>
		
			<linearGradient id="SVGID_1_" gradientUnits="userSpaceOnUse" x1="29.3992" y1="-16335.9492" x2="249.506" y2="-16146.2012" gradientTransform="matrix(1 0 0 -1 0 -16082)">
			<stop  offset="0.3392" style="stop-color:#FCD94A"/>
			<stop  offset="0.7171" style="stop-color:#F8C726"/>
			<stop  offset="0.9946" style="stop-color:#F5BE07"/>
		</linearGradient>
		<path class="st1" d="M291.7,150c0,78.3-63.5,141.7-141.7,141.7C71.7,291.7,8.3,228.3,8.3,150S71.7,8.3,150,8.3
			S291.7,71.7,291.7,150z"/>
		<g>
			<g>
				<g>
					<defs>
						<polygon id="SVGID_00000007408245656676081720000004951115673020758701_" points="3,3 4,3 3,4 						"/>
					</defs>
					<clipPath id="SVGID_00000127045401425328474380000007307372034850785700_">
						<use xlink:href="#SVGID_00000007408245656676081720000004951115673020758701_"  style="overflow:visible;"/>
					</clipPath>
				</g>
				<g>
					<defs>
						<polygon id="SVGID_00000008869303430993816710000001129593603315912610_" points="3,3 4,3 3,4 						"/>
					</defs>
					<defs>
						<polygon id="SVGID_00000036245765915533800230000005244612804623352462_" points="1,1 0,1 1,0 						"/>
					</defs>
					<clipPath id="SVGID_00000080189985330839784260000010040463757836392588_">
						<use xlink:href="#SVGID_00000008869303430993816710000001129593603315912610_"  style="overflow:visible;"/>
					</clipPath>
					
						<clipPath id="SVGID_00000073714141325385529620000002575368842243682481_" style="clip-path:url(#SVGID_00000080189985330839784260000010040463757836392588_);">
						<use xlink:href="#SVGID_00000036245765915533800230000005244612804623352462_"  style="overflow:visible;"/>
					</clipPath>
					<defs>
						<filter id="Adobe_OpacityMaskFilter" filterUnits="userSpaceOnUse" x="31.7" y="31.7" width="238.6" height="238.6">
							<feColorMatrix  type="matrix" values="1 0 0 0 0  0 1 0 0 0  0 0 1 0 0  0 0 0 1 0"/>
						</filter>
					</defs>
					
						<mask maskUnits="userSpaceOnUse" x="31.7" y="31.7" width="238.6" height="238.6" id="SVGID_00000100348666545428139270000005694370957492065967_">
						<g class="st3">
							<g>
								<g>
									<defs>
										<polygon id="SVGID_00000128452297105203660380000001978822014449306250_" points="3,3 4,3 3,4 										"/>
									</defs>
									<defs>
										<polygon id="SVGID_00000157283780757014391560000007878222240104007321_" points="1,1 0,1 1,0 										"/>
									</defs>
									
										<clipPath id="SVGID_00000004529010342644985480000000686785867278907294_" style="clip-path:url(#SVGID_00000073714141325385529620000002575368842243682481_);">
										<use xlink:href="#SVGID_00000128452297105203660380000001978822014449306250_"  style="overflow:visible;"/>
									</clipPath>
									
										<clipPath id="SVGID_00000023982688259702553710000011643174932575037598_" style="clip-path:url(#SVGID_00000004529010342644985480000000686785867278907294_);">
										<use xlink:href="#SVGID_00000157283780757014391560000007878222240104007321_"  style="overflow:visible;"/>
									</clipPath>
								</g>
								<g>
									<defs>
										<polygon id="SVGID_00000001664533392952453620000006597539053241400460_" points="3,3 4,3 3,4 										"/>
									</defs>
									<defs>
										<polygon id="SVGID_00000039093273791640918960000006070400390387399554_" points="1,1 0,1 1,0 										"/>
									</defs>
									<defs>
										<polygon id="SVGID_00000147196104099779076970000007910511177057844925_" points="3,3 4,3 3,4 										"/>
									</defs>
									
										<clipPath id="SVGID_00000143593784506452713960000011283407608602901170_" style="clip-path:url(#SVGID_00000073714141325385529620000002575368842243682481_);">
										<use xlink:href="#SVGID_00000001664533392952453620000006597539053241400460_"  style="overflow:visible;"/>
									</clipPath>
									
										<clipPath id="SVGID_00000075128883629205991020000007101097284108355204_" style="clip-path:url(#SVGID_00000143593784506452713960000011283407608602901170_);">
										<use xlink:href="#SVGID_00000039093273791640918960000006070400390387399554_"  style="overflow:visible;"/>
									</clipPath>
									
										<clipPath id="SVGID_00000173876986925699651720000009411679770376009366_" style="clip-path:url(#SVGID_00000075128883629205991020000007101097284108355204_);">
										<use xlink:href="#SVGID_00000147196104099779076970000007910511177057844925_"  style="overflow:visible;"/>
									</clipPath>
								</g>
								<g>
									<defs>
										<polygon id="SVGID_00000109722573119292695980000015390762227986972094_" points="3,3 4,3 3,4 										"/>
									</defs>
									<defs>
										<polygon id="SVGID_00000170245176267284395250000006434426049078567866_" points="1,1 0,1 1,0 										"/>
									</defs>
									<defs>
										<polygon id="SVGID_00000080189967761069043520000007618838080984690561_" points="3,3 4,3 3,4 										"/>
									</defs>
									<defs>
										<polygon id="SVGID_00000029766854840477389290000006022300392789869449_" points="1,1 0,1 1,0 										"/>
									</defs>
									
										<clipPath id="SVGID_00000134944533325770022040000005967229782547978919_" style="clip-path:url(#SVGID_00000073714141325385529620000002575368842243682481_);">
										<use xlink:href="#SVGID_00000109722573119292695980000015390762227986972094_"  style="overflow:visible;"/>
									</clipPath>
									
										<clipPath id="SVGID_00000062897875107274314150000004307609177425138342_" style="clip-path:url(#SVGID_00000134944533325770022040000005967229782547978919_);">
										<use xlink:href="#SVGID_00000170245176267284395250000006434426049078567866_"  style="overflow:visible;"/>
									</clipPath>
									
										<clipPath id="SVGID_00000154383935982607290740000009016691661492128181_" style="clip-path:url(#SVGID_00000062897875107274314150000004307609177425138342_);">
										<use xlink:href="#SVGID_00000080189967761069043520000007618838080984690561_"  style="overflow:visible;"/>
									</clipPath>
									
										<clipPath id="SVGID_00000059270530291111852400000003613601374256601509_" style="clip-path:url(#SVGID_00000154383935982607290740000009016691661492128181_);">
										<use xlink:href="#SVGID_00000029766854840477389290000006022300392789869449_"  style="overflow:visible;"/>
									</clipPath>
									
										<radialGradient id="SVGID_00000174580945508030335190000005036737066645954948_" cx="151" cy="21" r="120.8039" gradientTransform="matrix(1 0 0 1 0 130)" gradientUnits="userSpaceOnUse">
										<stop  offset="0.8468" style="stop-color:#FFFFFF"/>
										<stop  offset="0.9202" style="stop-color:#7E7E7E"/>
										<stop  offset="0.9753" style="stop-color:#242424"/>
										<stop  offset="1" style="stop-color:#000000"/>
									</radialGradient>
									
										<circle style="clip-path:url(#SVGID_00000059270530291111852400000003613601374256601509_);fill:url(#SVGID_00000174580945508030335190000005036737066645954948_);" cx="151" cy="151" r="119.3"/>
								</g>
							</g>
						</g>
					</mask>
					
						<radialGradient id="SVGID_00000133499742140167905010000013307362246929792646_" cx="151" cy="21" r="120.8039" gradientTransform="matrix(1 0 0 1 0 130)" gradientUnits="userSpaceOnUse">
						<stop  offset="0.8468" style="stop-color:#FFFFFF"/>
						<stop  offset="0.9202" style="stop-color:#7E7E7E"/>
						<stop  offset="0.9753" style="stop-color:#242424"/>
						<stop  offset="1" style="stop-color:#000000"/>
					</radialGradient>
					
						<path style="clip-path:url(#SVGID_00000073714141325385529620000002575368842243682481_);mask:url(#SVGID_00000100348666545428139270000005694370957492065967_);fill:url(#SVGID_00000133499742140167905010000013307362246929792646_);" d="
						M270.3,151c0,65.9-53.4,119.3-119.3,119.3S31.7,216.9,31.7,151S85.1,31.7,151,31.7S270.3,85.1,270.3,151z"/>
				</g>
			</g>
		</g>
		
			<linearGradient id="SVGID_00000122682967186802975770000011426795632229549456_" gradientUnits="userSpaceOnUse" x1="56.9293" y1="-16312.2334" x2="242.2365" y2="-16152.4863" gradientTransform="matrix(1 0 0 -1 0 -16082)">
			<stop  offset="0" style="stop-color:#FFFFFF"/>
			<stop  offset="0.7198" style="stop-color:#E7E9EC"/>
			<stop  offset="1" style="stop-color:#DDDFE4"/>
		</linearGradient>
		<path style="fill:url(#SVGID_00000122682967186802975770000011426795632229549456_);" d="M269.3,150
			c0,65.9-53.4,119.3-119.3,119.3S30.7,215.9,30.7,150S84.1,30.7,150,30.7S269.3,84.1,269.3,150z"/>
	</g>
	<g>
		<path class="st14" d="M156.1,127.6c0,6.1-4.9,10.9-10.9,10.9c-6.1,0-10.9-4.9-10.9-10.9c0-6.1,4.9-10.9,10.9-10.9
			C151.2,116.7,156.1,121.7,156.1,127.6z"/>
		<path class="st15" d="M145.1,140.1c-6.8,0-12.4-5.6-12.4-12.4s5.6-12.4,12.4-12.4c6.8,0,12.4,5.6,12.4,12.4
			C157.5,134.5,152,140.1,145.1,140.1z M145.1,118.2c-5.2,0-9.4,4.2-9.4,9.4s4.2,9.4,9.4,9.4s9.4-4.2,9.4-9.4
			S150.3,118.2,145.1,118.2z"/>
	</g>
	<path class="st15" d="M159.9,192.1c-0.2,0-0.4,0-0.5,0c-0.8,0-1.5-0.7-1.4-1.6c0-0.8,0.7-1.5,1.6-1.4c5.4,0.2,7.4-3.9,7.8-4.8
		v-31.9c0-4.7-8-7.7-11.1-8.4c-0.8-0.2-1.3-1-1.1-1.8s1-1.3,1.8-1.1c0.5,0.1,13.4,3.2,13.4,11.3v32.2c0,0.2,0,0.3-0.1,0.5
		C169.4,187.5,166.2,192.1,159.9,192.1z M168.8,184.6L168.8,184.6L168.8,184.6z"/>
	<path class="st15" d="M130.5,192.1c-6.3,0-9.5-4.6-10.3-7.1c0-0.2-0.1-0.3-0.1-0.5v-32.2c0-8,12.8-11.2,13.4-11.3
		c0.8-0.2,1.6,0.3,1.8,1.1s-0.3,1.6-1.1,1.8c-3.1,0.7-11.1,3.7-11.1,8.4v31.9c0.4,1,2.4,5.1,7.8,4.8c0.8,0,1.5,0.6,1.5,1.4
		c0,0.8-0.6,1.5-1.4,1.6C130.8,192.1,130.6,192.1,130.5,192.1z"/>
	<path class="st15" d="M141.3,239.4H124c-0.6,0-1.1-0.4-1.4-0.9c-0.2-0.6-0.1-1.2,0.3-1.6l7.5-7.5v-65.8c0-0.8,0.7-1.5,1.5-1.5
		s1.5,0.7,1.5,1.5V230c0,0.4-0.2,0.8-0.4,1.1l-5.4,5.4h12.3l3.1-42.7c0.1-0.8,0.7-1.4,1.5-1.4h0.5c0.8,0,1.4,0.6,1.5,1.4l3.1,42.2
		h12.1l-4.3-5c-0.2-0.3-0.4-0.6-0.4-1v-66.2c0-0.8,0.7-1.5,1.5-1.5s1.5,0.7,1.5,1.5v65.6l6.1,7c0.4,0.4,0.5,1.1,0.2,1.6
		c-0.2,0.5-0.8,0.9-1.4,0.9h-16.8c-0.8,0-1.4-0.6-1.5-1.4l-1.9-26.5l-1.9,27C142.7,238.8,142,239.4,141.3,239.4z"/>
	<g>
		<g>
			<path class="st14" d="M192.6,121.7c0,5.4-4.3,9.6-9.6,9.6c-5.4,0-9.6-4.3-9.6-9.6c0-5.4,4.3-9.6,9.6-9.6
				C188.2,112,192.6,116.3,192.6,121.7z"/>
			<path class="st15" d="M183,132.8c-6.2,0-11.1-4.9-11.1-11.1s4.9-11.1,11.1-11.1c2.9-0.1,5.7,1.1,7.8,3.1c2.2,2.1,3.4,5,3.4,8
				C194.1,127.8,189.1,132.8,183,132.8z M183.2,113.5h-0.1c-4.6,0-8.2,3.6-8.2,8.1c0,4.6,3.6,8.1,8.1,8.1s8.1-3.6,8.1-8.1
				c0-2.2-0.9-4.3-2.5-5.9C187.2,114.3,185.2,113.5,183.2,113.5z"/>
		</g>
		<path class="st15" d="M196.1,178.9c-0.2,0-0.4,0-0.5,0c-0.8,0-1.5-0.7-1.4-1.6c0-0.8,0.7-1.5,1.6-1.4c4.5,0.2,6.3-3.3,6.7-4.2
			v-28.2c0-4.1-7-6.6-9.7-7.3c-0.8-0.2-1.3-1-1.1-1.8s1-1.3,1.8-1.1c0.5,0.1,12,2.9,12,10.2V172c0,0.2,0,0.3-0.1,0.5
			C204.5,174.8,201.6,178.9,196.1,178.9z M203.8,172.1L203.8,172.1L203.8,172.1z"/>
		<path class="st15" d="M162,144.6h-0.1c-0.8-0.1-1.4-0.8-1.4-1.6c0.6-6.9,11.5-9.6,12-9.7c0.8-0.2,1.6,0.3,1.8,1.1
			s-0.3,1.6-1.1,1.8c-2.6,0.6-9.4,3.1-9.7,7C163.4,144,162.8,144.6,162,144.6z"/>
		<path class="st15" d="M194.7,183.3c-0.8,0-1.5-0.7-1.5-1.5v-28.1c0-0.8,0.7-1.5,1.5-1.5s1.5,0.7,1.5,1.5v28.1
			C196.2,182.6,195.5,183.3,194.7,183.3z"/>
	</g>
	<g>
		<g>
			<path class="st14" d="M225.1,118.3c0,4.5-3.7,8.1-8.1,8.1c-4.5,0-8.1-3.7-8.1-8.1s3.7-8.1,8.1-8.1
				C221.4,110.2,225.1,113.8,225.1,118.3z"/>
			<path class="st15" d="M217,127.9c-5.3,0-9.6-4.3-9.6-9.6s4.3-9.6,9.6-9.6s9.6,4.3,9.6,9.6S222.3,127.9,217,127.9z M217,111.7
				c-3.7,0-6.7,3-6.7,6.7s3,6.7,6.7,6.7s6.7-3,6.7-6.7S220.6,111.7,217,111.7z"/>
		</g>
		<path class="st15" d="M227.9,166.9c-0.1,0-0.2,0-0.4,0c-0.8,0-1.5-0.7-1.4-1.5c0-0.8,0.7-1.5,1.5-1.4c3.7,0.1,5.1-2.6,5.4-3.4
			v-23.8c0-3.2-5.9-5.4-8-5.9c-0.8-0.2-1.3-1-1.1-1.8s1-1.3,1.8-1.1c0.4,0.1,10.3,2.5,10.3,8.8v24c0,0.2,0,0.3-0.1,0.5
			C235.3,163.3,232.8,166.9,227.9,166.9z M234.5,160.8L234.5,160.8L234.5,160.8z"/>
		<path class="st15" d="M199.3,137.9h-0.1c-0.8-0.1-1.4-0.8-1.4-1.6c0.5-5.8,9.3-8,10.3-8.3c0.8-0.2,1.6,0.3,1.8,1.1
			s-0.3,1.6-1.1,1.8c-2,0.5-7.8,2.5-8,5.6C200.7,137.3,200,137.9,199.3,137.9z"/>
		<path class="st15" d="M226.9,170.6c-0.8,0-1.5-0.7-1.5-1.5v-23.7c0-0.8,0.7-1.5,1.5-1.5s1.5,0.7,1.5,1.5v23.7
			C228.4,169.9,227.7,170.6,226.9,170.6z"/>
	</g>
	<g>
		<g>
			<path class="st14" d="M98.2,121.7c0,5.4,4.3,9.6,9.6,9.6c5.4,0,9.6-4.3,9.6-9.6c0-5.4-4.3-9.6-9.6-9.6
				C102.6,112,98.2,116.3,98.2,121.7z"/>
			<path class="st15" d="M107.9,132.8c-6.2,0-11.1-4.9-11.1-11.1c0-3,1.2-5.9,3.4-8c2.1-2.1,4.9-3.2,7.8-3.1
				c6.2,0,11.1,4.9,11.1,11.1C119,127.9,114.1,132.8,107.9,132.8z M107.7,113.5c-2.1,0-4,0.8-5.5,2.3c-1.6,1.6-2.5,3.6-2.5,5.9
				c0,4.6,3.6,8.1,8.1,8.1c4.6,0,8.1-3.6,8.1-8.1c0-4.6-3.6-8.1-8.1-8.1C107.8,113.5,107.8,113.5,107.7,113.5z"/>
		</g>
		<path class="st15" d="M94.8,178.9c-5.6,0-8.4-4.1-9.2-6.4c-0.1-0.2-0.1-0.3-0.1-0.5v-28.5c0-7.3,11.5-10.1,12-10.2
			c0.8-0.2,1.6,0.3,1.8,1.1c0.2,0.8-0.3,1.6-1.1,1.8c-2.7,0.6-9.7,3.2-9.7,7.3v28.2c0.4,0.9,2.1,4.3,6.7,4.2c0.8,0,1.5,0.6,1.6,1.4
			c0,0.8-0.6,1.5-1.4,1.6C95.2,178.9,95,178.9,94.8,178.9z"/>
		<path class="st15" d="M128.7,144.6c-0.8,0-1.4-0.6-1.5-1.4c-0.3-3.9-7.1-6.4-9.7-7c-0.8-0.2-1.3-1-1.1-1.8c0.2-0.8,1-1.3,1.8-1.1
			c0.5,0.1,11.4,2.8,12,9.7c0.1,0.8-0.5,1.5-1.4,1.6C128.8,144.6,128.8,144.6,128.7,144.6z"/>
		<path class="st15" d="M96.2,183.3c-0.8,0-1.5-0.7-1.5-1.5v-28.1c0-0.8,0.7-1.5,1.5-1.5s1.5,0.7,1.5,1.5v28.1
			C97.6,182.6,97,183.3,96.2,183.3z"/>
	</g>
	<g>
		<g>
			<path class="st14" d="M65.8,118.3c0,4.5,3.7,8.1,8.1,8.1s8.1-3.7,8.1-8.1s-3.7-8.1-8.1-8.1C69.4,110.2,65.8,113.8,65.8,118.3z"/>
			<path class="st15" d="M73.9,127.9c-5.3,0-9.6-4.3-9.6-9.6s4.3-9.6,9.6-9.6s9.6,4.3,9.6,9.6S79.2,127.9,73.9,127.9z M73.9,111.7
				c-3.7,0-6.7,3-6.7,6.7s3,6.7,6.7,6.7s6.7-3,6.7-6.7S77.6,111.7,73.9,111.7z"/>
		</g>
		<path class="st15" d="M63,166.9c-4.9,0-7.4-3.6-8.1-5.6c-0.1-0.2-0.1-0.3-0.1-0.5v-24c0-6.3,9.9-8.7,10.3-8.8
			c0.8-0.2,1.6,0.3,1.8,1.1c0.2,0.8-0.3,1.6-1.1,1.8c-2.1,0.5-8,2.7-8,5.9v23.8c0.3,0.8,1.8,3.5,5.4,3.4c0.8,0,1.5,0.6,1.5,1.4
			c0,0.8-0.6,1.5-1.4,1.5C63.2,166.9,63.1,166.9,63,166.9z"/>
		<path class="st15" d="M91.5,137.9c-0.8,0-1.4-0.6-1.5-1.4c-0.3-3.1-6-5.1-8-5.6c-0.8-0.2-1.3-1-1.1-1.8c0.2-0.8,1-1.3,1.8-1.1
			c1,0.2,9.8,2.5,10.3,8.3c0.1,0.8-0.5,1.5-1.4,1.6C91.6,137.9,91.5,137.9,91.5,137.9z"/>
		<path class="st15" d="M64,170.6c-0.8,0-1.5-0.7-1.5-1.5v-23.7c0-0.8,0.7-1.5,1.5-1.5c0.8,0,1.5,0.7,1.5,1.5v23.7
			C65.5,169.9,64.8,170.6,64,170.6z"/>
	</g>
</g>
</svg>
