<?xml version="1.0" encoding="utf-8"?>
<!-- Generator: Adobe Illustrator 26.5.3, SVG Export Plug-In . SVG Version: 6.00 Build 0)  -->
<svg version="1.1" id="圖層_1" xmlns="http://www.w3.org/2000/svg" xmlns:xlink="http://www.w3.org/1999/xlink" x="0px" y="0px"
	 viewBox="0 0 300 300" style="enable-background:new 0 0 300 300;" xml:space="preserve">
<style type="text/css">
	.st0{fill:#A3C313;}
	.st1{opacity:0.9;}
	.st2{fill:url(#SVGID_1_);}
	.st3{filter:url(#Adobe_OpacityMaskFilter);}
	.st4{filter:url(#Adobe_OpacityMaskFilter_00000027602388282140341560000006614428321534918823_);}
	
		.st5{mask:url(#SVGID_00000053525660597861183550000004709653699518947248_);fill:url(#SVGID_00000146488112748444591530000009506136751184713354_);}
	.st6{fill:url(#SVGID_00000166676939957318740750000013230018555826868357_);}
	.st7{fill:url(#SVGID_00000016041989090685998210000007022459988919318705_);}
	.st8{fill:none;stroke:#009944;stroke-width:3;}
	.st9{fill:#FFFFFF;stroke:#009944;stroke-width:3;}
	.st10{fill:#009944;}
	.st11{fill:#FFF100;stroke:#009944;stroke-width:3;}
</style>
<g>
	<g>
		<path class="st0" d="M272.9,236c-47.5,67.9-141,84.3-208.9,36.8C-3.9,225.3-20.4,131.8,27.1,64C74.6-3.9,168.2-20.4,236,27.1
			C303.9,74.6,320.4,168.2,272.9,236z"/>
		<g class="st1">
			
				<linearGradient id="SVGID_1_" gradientUnits="userSpaceOnUse" x1="-718.95" y1="-14980.1553" x2="-1100.0664" y2="-14970.1855" gradientTransform="matrix(0.8192 0.5736 0.5736 -0.8192 9471.4219 -11605.8838)">
				<stop  offset="5.618000e-03" style="stop-color:#2CAC38"/>
				<stop  offset="0.389" style="stop-color:#6CB92D"/>
				<stop  offset="0.7748" style="stop-color:#8FC31F"/>
				<stop  offset="1" style="stop-color:#9AC717"/>
			</linearGradient>
			<path class="st2" d="M266.8,231.8c-45.2,64.5-134.1,80.2-198.7,35C3.7,221.7-12,132.7,33.2,68.2C78.3,3.7,167.3-12,231.8,33.2
				C296.3,78.3,312,167.3,266.8,231.8z"/>
		</g>
		<defs>
			<filter id="Adobe_OpacityMaskFilter" filterUnits="userSpaceOnUse" x="29.9" y="29.9" width="240.2" height="240.2">
				<feFlood  style="flood-color:white;flood-opacity:1" result="back"/>
				<feBlend  in="SourceGraphic" in2="back" mode="normal"/>
			</filter>
		</defs>
		
			<mask maskUnits="userSpaceOnUse" x="29.9" y="29.9" width="240.2" height="240.2" id="SVGID_00000015348652037667874030000003034761116515755905_">
			<g class="st3">
				<defs>
					
						<filter id="Adobe_OpacityMaskFilter_00000066483476373658806960000007898149509225260945_" filterUnits="userSpaceOnUse" x="29.9" y="29.9" width="240.2" height="240.2">
						<feFlood  style="flood-color:white;flood-opacity:1" result="back"/>
						<feBlend  in="SourceGraphic" in2="back" mode="normal"/>
					</filter>
				</defs>
				
					<mask maskUnits="userSpaceOnUse" x="29.9" y="29.9" width="240.2" height="240.2" id="SVGID_00000015348652037667874030000003034761116515755905_">
					<g style="filter:url(#Adobe_OpacityMaskFilter_00000066483476373658806960000007898149509225260945_);">
					</g>
				</mask>
				
					<radialGradient id="SVGID_00000040575441474697839670000013783617198419744155_" cx="-893.0188" cy="-1106.4838" r="75.7865" gradientTransform="matrix(1.3144 0.9203 -0.9203 1.3144 305.4428 2426.2141)" gradientUnits="userSpaceOnUse">
					<stop  offset="0.8468" style="stop-color:#FFFFFF"/>
					<stop  offset="0.9202" style="stop-color:#7E7E7E"/>
					<stop  offset="0.9753" style="stop-color:#242424"/>
					<stop  offset="1" style="stop-color:#000000"/>
				</radialGradient>
				
					<path style="mask:url(#SVGID_00000015348652037667874030000003034761116515755905_);fill:url(#SVGID_00000040575441474697839670000013783617198419744155_);" d="
					M248.4,218.9c-38,54.3-112.9,67.5-167.3,29.5c-54.3-38-67.5-112.9-29.5-167.3c38-54.3,112.9-67.5,167.3-29.5
					C273.2,89.7,286.4,164.6,248.4,218.9z"/>
			</g>
		</mask>
		
			<radialGradient id="SVGID_00000065037218725132127420000000645794244519441285_" cx="-893.0188" cy="-1106.4838" r="75.7865" gradientTransform="matrix(1.3144 0.9203 -0.9203 1.3144 305.4428 2426.2141)" gradientUnits="userSpaceOnUse">
			<stop  offset="0.8468" style="stop-color:#16646A"/>
			<stop  offset="0.8942" style="stop-color:#68898E"/>
			<stop  offset="0.967" style="stop-color:#C7CFD2"/>
			<stop  offset="1" style="stop-color:#EDEEF1"/>
		</radialGradient>
		<path style="fill:url(#SVGID_00000065037218725132127420000000645794244519441285_);" d="M248.4,218.9
			c-38,54.3-112.9,67.5-167.3,29.5c-54.3-38-67.5-112.9-29.5-167.3c38-54.3,112.9-67.5,167.3-29.5
			C273.2,89.7,286.4,164.6,248.4,218.9z"/>
		
			<linearGradient id="SVGID_00000018197424909480475530000017365215163048255137_" gradientUnits="userSpaceOnUse" x1="-977.7234" y1="-15048.7832" x2="-808.7154" y2="-14903.0859" gradientTransform="matrix(0.8192 0.5736 0.5736 -0.8192 9471.4219 -11605.8838)">
			<stop  offset="0" style="stop-color:#FFFFFF"/>
			<stop  offset="0.7198" style="stop-color:#E7E9EC"/>
			<stop  offset="1" style="stop-color:#DDDFE4"/>
		</linearGradient>
		<path style="fill:url(#SVGID_00000018197424909480475530000017365215163048255137_);" d="M239.1,212.4
			c-34.5,49.2-102.3,61.2-151.5,26.7C38.4,204.7,26.4,136.8,60.9,87.6c34.5-49.2,102.3-61.2,151.5-26.7
			C261.6,95.3,273.6,163.2,239.1,212.4z"/>
	</g>
	<g>
		<g>
			<g>
				<path class="st8" d="M208.8,210.9c0-31.8-26-57.6-58.2-57.6c-32.1,0-58.2,25.8-58.2,57.6c0,5.6,0.8,11.1,2.4,16.2h111.6
					C208,222,208.8,216.5,208.8,210.9z"/>
			</g>
			<line class="st8" x1="112.6" y1="226.7" x2="112.6" y2="197.4"/>
			<line class="st8" x1="186" y1="226.7" x2="186" y2="197.4"/>
		</g>
		<polyline class="st8" points="147.4,167.4 139.8,199.8 150.7,210.7 161.5,198.6 154.3,168.6 		"/>
		
			<ellipse transform="matrix(0.5686 -0.8226 0.8226 0.5686 -49.4346 183.9394)" class="st9" cx="150.7" cy="139.1" rx="24" ry="24"/>
	</g>
	<path class="st10" d="M221.8,119.7c-0.8,3.6-4.4,5.9-8,5.1c-3.6-0.8-5.9-4.4-5.1-8c0.8-3.6,4.4-5.9,8-5.1
		C220.3,112.4,222.6,116,221.8,119.7z"/>
	<path class="st10" d="M210.8,136.8c-0.6,2.6-3.1,4.3-5.8,3.7c-2.6-0.6-4.3-3.1-3.7-5.8c0.6-2.6,3.1-4.3,5.8-3.7
		C209.7,131.6,211.4,134.2,210.8,136.8z"/>
	<path class="st10" d="M194.7,145.2c-0.4,1.7-2.1,2.8-3.8,2.4c-1.7-0.4-2.8-2.1-2.4-3.8c0.4-1.7,2.1-2.8,3.8-2.4
		C194,141.8,195.1,143.5,194.7,145.2z"/>
	<path class="st11" d="M216.5,85.5c0,13.5-17.9,24.5-40.1,24.5c-22.1,0-40.1-11-40.1-24.5c0-13.5,17.9-24.5,40.1-24.5
		C198.6,61,216.5,72,216.5,85.5z"/>
	<path class="st10" d="M83.8,139.5c1.5,2.5,4.8,3.2,7.3,1.7c2.5-1.5,3.2-4.8,1.7-7.3c-1.5-2.5-4.8-3.2-7.3-1.7
		C83,133.7,82.3,137,83.8,139.5z"/>
	<path class="st10" d="M96.4,149.3c1.1,1.8,3.4,2.3,5.2,1.2c1.8-1.1,2.3-3.4,1.2-5.2c-1.1-1.8-3.4-2.3-5.2-1.2
		C95.8,145.2,95.3,147.5,96.4,149.3z"/>
	<path class="st10" d="M110.4,151.2c0.7,1.2,2.3,1.5,3.4,0.8c1.2-0.7,1.5-2.3,0.8-3.4c-0.7-1.2-2.3-1.5-3.4-0.8
		C110.1,148.5,109.7,150.1,110.4,151.2z"/>
	<ellipse class="st10" cx="84.2" cy="108.1" rx="27.9" ry="17"/>
</g>
</svg>
