<?xml version="1.0" encoding="utf-8"?>
<!-- Generator: Adobe Illustrator 26.5.3, SVG Export Plug-In . SVG Version: 6.00 Build 0)  -->
<svg version="1.1" id="圖層_1" xmlns="http://www.w3.org/2000/svg" xmlns:xlink="http://www.w3.org/1999/xlink" x="0px" y="0px"
	 viewBox="0 0 300 300" style="enable-background:new 0 0 300 300;" xml:space="preserve">
<style type="text/css">
	.st0{fill:#FBDE83;}
	.st1{fill:url(#SVGID_1_);}
	.st2{filter:url(#Adobe_OpacityMaskFilter);}
	.st3{filter:url(#Adobe_OpacityMaskFilter_00000145059535626093612560000004200474104079574928_);}
	
		.st4{mask:url(#SVGID_00000008828106349770416940000013255652215651754400_);fill:url(#SVGID_00000062874043732818806810000013951103586622523779_);}
	.st5{fill:url(#SVGID_00000054232345343916578400000000761732377716730799_);}
	.st6{fill:url(#SVGID_00000026865530949165032970000001664874605399314063_);}
	.st7{fill:#FFE000;stroke:#A44023;stroke-width:3;stroke-linecap:round;stroke-linejoin:round;}
	.st8{fill:none;stroke:#A44023;stroke-width:3;stroke-linecap:round;stroke-linejoin:round;}
</style>
<g>
	<g>
		<path class="st0" d="M300,150c0,82.8-67.2,150-150,150C67.2,300,0,232.8,0,150C0,67.2,67.2,0,150,0C232.8,0,300,67.2,300,150z"/>
		
			<linearGradient id="SVGID_1_" gradientUnits="userSpaceOnUse" x1="28.6051" y1="-16336.6533" x2="250.1793" y2="-16145.6406" gradientTransform="matrix(1 0 0 -1 0 -16082)">
			<stop  offset="0.3392" style="stop-color:#FCD94A"/>
			<stop  offset="0.7171" style="stop-color:#F8C726"/>
			<stop  offset="0.9946" style="stop-color:#F5BE07"/>
		</linearGradient>
		<path class="st1" d="M292.6,150c0,78.8-63.9,142.6-142.6,142.6C71.2,292.6,7.4,228.8,7.4,150C7.4,71.2,71.2,7.4,150,7.4
			C228.8,7.4,292.6,71.2,292.6,150z"/>
		<defs>
			<filter id="Adobe_OpacityMaskFilter" filterUnits="userSpaceOnUse" x="29.9" y="29.9" width="240.2" height="240.2">
				<feFlood  style="flood-color:white;flood-opacity:1" result="back"/>
				<feBlend  in="SourceGraphic" in2="back" mode="normal"/>
			</filter>
		</defs>
		
			<mask maskUnits="userSpaceOnUse" x="29.9" y="29.9" width="240.2" height="240.2" id="SVGID_00000137827100359264988960000011844704447819259057_">
			<g class="st2">
				<defs>
					
						<filter id="Adobe_OpacityMaskFilter_00000147178717685581004490000006821369277297374131_" filterUnits="userSpaceOnUse" x="29.9" y="29.9" width="240.2" height="240.2">
						<feFlood  style="flood-color:white;flood-opacity:1" result="back"/>
						<feBlend  in="SourceGraphic" in2="back" mode="normal"/>
					</filter>
				</defs>
				
					<mask maskUnits="userSpaceOnUse" x="29.9" y="29.9" width="240.2" height="240.2" id="SVGID_00000137827100359264988960000011844704447819259057_">
					<g style="filter:url(#Adobe_OpacityMaskFilter_00000147178717685581004490000006821369277297374131_);">
					</g>
				</mask>
				
					<radialGradient id="SVGID_00000183241924193250884100000014737819719340231587_" cx="150.0004" cy="150.0012" r="121.6164" gradientUnits="userSpaceOnUse">
					<stop  offset="0.8468" style="stop-color:#FFFFFF"/>
					<stop  offset="0.9202" style="stop-color:#7E7E7E"/>
					<stop  offset="0.9753" style="stop-color:#242424"/>
					<stop  offset="1" style="stop-color:#000000"/>
				</radialGradient>
				
					<path style="mask:url(#SVGID_00000137827100359264988960000011844704447819259057_);fill:url(#SVGID_00000183241924193250884100000014737819719340231587_);" d="
					M270.1,150c0,66.3-53.8,120.1-120.1,120.1c-66.3,0-120.1-53.8-120.1-120.1C29.9,83.7,83.7,29.9,150,29.9
					C216.3,29.9,270.1,83.7,270.1,150z"/>
			</g>
		</mask>
		
			<radialGradient id="SVGID_00000169535661747744925920000008809612540684257665_" cx="150.0004" cy="150.0012" r="121.6164" gradientUnits="userSpaceOnUse">
			<stop  offset="0.8468" style="stop-color:#16646A"/>
			<stop  offset="0.8942" style="stop-color:#68898E"/>
			<stop  offset="0.967" style="stop-color:#C7CFD2"/>
			<stop  offset="1" style="stop-color:#EDEEF1"/>
		</radialGradient>
		<path style="fill:url(#SVGID_00000169535661747744925920000008809612540684257665_);" d="M270.1,150
			c0,66.3-53.8,120.1-120.1,120.1c-66.3,0-120.1-53.8-120.1-120.1C29.9,83.7,83.7,29.9,150,29.9C216.3,29.9,270.1,83.7,270.1,150z"
			/>
		
			<linearGradient id="SVGID_00000155851921718038951960000013855611597915368839_" gradientUnits="userSpaceOnUse" x1="65.106" y1="-16305.1865" x2="234.1358" y2="-16159.4717" gradientTransform="matrix(1 0 0 -1 0 -16082)">
			<stop  offset="0" style="stop-color:#FFFFFF"/>
			<stop  offset="0.7198" style="stop-color:#E7E9EC"/>
			<stop  offset="1" style="stop-color:#DDDFE4"/>
		</linearGradient>
		<path style="fill:url(#SVGID_00000155851921718038951960000013855611597915368839_);" d="M258.8,150
			c0,60.1-48.7,108.8-108.8,108.8c-60.1,0-108.8-48.7-108.8-108.8C41.2,89.9,89.9,41.2,150,41.2C210.1,41.2,258.8,89.9,258.8,150z"
			/>
	</g>
	<path class="st7" d="M155.1,126.5c0,6.1-4.9,11-11,11s-11-4.9-11-11c0-6.1,4.9-11,11-11S155.1,120.5,155.1,126.5z"/>
	<path class="st8" d="M155.6,141.5c0,0,12.3,2.9,12.3,9.9v32.4c0,0-2.1,6.4-9.4,6.1"/>
	<path class="st8" d="M132.7,141.5c0,0-12.3,2.9-12.3,9.9v32.4c0,0,2.1,6.4,9.4,6.1"/>
	<polyline class="st8" points="157.5,162.9 157.5,229.5 164,237 147.1,237 143.9,193.1 143.4,193.1 140.2,237.5 122.8,237.5 
		130.8,229.5 130.8,162.6 	"/>
	<g>
		<path class="st7" d="M191.9,120.5c0,5.4-4.3,9.7-9.7,9.7c-5.4,0-9.7-4.3-9.7-9.7c0-5.4,4.3-9.7,9.7-9.7
			C187.5,110.7,191.9,115.1,191.9,120.5z"/>
		<path class="st8" d="M192.3,133.7c0,0,10.9,2.6,10.9,8.8v28.7c0,0-1.9,5.7-8.3,5.4"/>
		<path class="st8" d="M172,133.7c0,0-10.4,2.5-10.9,8.4"/>
		<line class="st8" x1="194" y1="152.7" x2="194" y2="181"/>
	</g>
	<g>
		<path class="st7" d="M224.6,117.1c0,4.5-3.7,8.2-8.2,8.2c-4.5,0-8.2-3.7-8.2-8.2c0-4.5,3.7-8.2,8.2-8.2
			C220.9,108.9,224.6,112.6,224.6,117.1z"/>
		<path class="st8" d="M224.9,128.3c0,0,9.2,2.2,9.2,7.4v24.2c0,0-1.6,4.8-7,4.6"/>
		<path class="st8" d="M207.8,128.3c0,0-8.8,2.1-9.2,7"/>
		<line class="st8" x1="226.4" y1="144.3" x2="226.4" y2="168.2"/>
	</g>
	<g>
		<path class="st7" d="M96.9,120.5c0,5.4,4.3,9.7,9.7,9.7c5.4,0,9.7-4.3,9.7-9.7c0-5.4-4.3-9.7-9.7-9.7
			C101.3,110.7,96.9,115.1,96.9,120.5z"/>
		<path class="st8" d="M96.5,133.7c0,0-10.9,2.6-10.9,8.8v28.7c0,0,1.9,5.7,8.3,5.4"/>
		<path class="st8" d="M116.7,133.7c0,0,10.4,2.5,10.9,8.4"/>
		<line class="st8" x1="94.8" y1="152.7" x2="94.8" y2="181"/>
	</g>
	<g>
		<path class="st7" d="M64.2,117.1c0,4.5,3.7,8.2,8.2,8.2c4.5,0,8.2-3.7,8.2-8.2c0-4.5-3.7-8.2-8.2-8.2
			C67.9,108.9,64.2,112.6,64.2,117.1z"/>
		<path class="st8" d="M63.9,128.3c0,0-9.2,2.2-9.2,7.4v24.2c0,0,1.6,4.8,7,4.6"/>
		<path class="st8" d="M80.9,128.3c0,0,8.8,2.1,9.2,7"/>
		<line class="st8" x1="62.4" y1="144.3" x2="62.4" y2="168.2"/>
	</g>
</g>
</svg>
