<?xml version="1.0" encoding="utf-8"?>
<!-- Generator: Adobe Illustrator 26.5.3, SVG Export Plug-In . SVG Version: 6.00 Build 0)  -->
<svg version="1.1" xmlns="http://www.w3.org/2000/svg" xmlns:xlink="http://www.w3.org/1999/xlink" x="0px" y="0px"
	 viewBox="0 0 372 372" style="enable-background:new 0 0 372 372;" xml:space="preserve">
<style type="text/css">
	.st0{fill:#20221F;}
	.st1{display:none;}
	.st2{display:inline;}
	.st3{fill:none;stroke:#20221F;stroke-miterlimit:10;}
	.st4{display:inline;fill:none;stroke:#20221F;stroke-miterlimit:10;}
</style>
<g id="圖層_1">
	<g>
		<g>
			<g>
				<path class="st0" d="M186,371.5C83.7,371.5,0.5,288.3,0.5,186S83.7,0.5,186,0.5S371.5,83.7,371.5,186S288.3,371.5,186,371.5z
					 M186,1.5C84.3,1.5,1.5,84.3,1.5,186c0,101.7,82.8,184.5,184.5,184.5c101.7,0,184.5-82.8,184.5-184.5
					C370.5,84.3,287.7,1.5,186,1.5z"/>
			</g>
		</g>
	</g>
</g>
<g id="圖層_2" class="st1">
	
		<image style="display:inline;overflow:visible;" width="300" height="300" xlink:href="caption_1.png"  transform="matrix(0.5 0 0 0.5 111 -46.1089)">
	</image>
	
		<image style="display:inline;overflow:visible;" width="300" height="300" xlink:href="caption_2.png"  transform="matrix(0.5 0 0 0.5 0 222.0001)">
	</image>
	<g class="st2">
		<image style="overflow:visible;" width="300" height="300" xlink:href="caption_3.png"  transform="matrix(0.5 0 0 0.5 222 222)">
		</image>
		<rect x="222" y="222" class="st3" width="150" height="150"/>
	</g>
	<rect y="221" class="st4" width="150" height="150"/>
	<rect x="335.4" y="250" class="st4" width="86.5" height="43.3"/>
	
		<image style="display:inline;overflow:visible;" width="300" height="300" xlink:href="caption_2.png"  transform="matrix(1 0 0 1 415.3139 -156.5189)">
	</image>
</g>
</svg>
