<?xml version="1.0" encoding="utf-8"?>
<!-- Generator: Adobe Illustrator 26.5.3, SVG Export Plug-In . SVG Version: 6.00 Build 0)  -->
<svg version="1.1" id="圖層_2" xmlns="http://www.w3.org/2000/svg" xmlns:xlink="http://www.w3.org/1999/xlink" x="0px" y="0px"
	 viewBox="0 0 1738.4 300" style="enable-background:new 0 0 1738.4 300;" xml:space="preserve">
<style type="text/css">
	.st0{fill-rule:evenodd;clip-rule:evenodd;}
	.st1{fill:#91252A;}
	.st2{fill:#FFFFFF;}
	.st3{fill:none;}
</style>
<g>
	<g id="XMLID_6_">
		<g id="XMLID_4_">
			<g id="XMLID_5_">
				<path id="XMLID_3886_" class="st0" d="M497.1,226.7c-0.4-6.6-1.1-13.2-2.5-19.6c-1.3-5.8-1.5-11.9-1.4-17.9
					c0-1.5,0.4-4.3-0.9-5.4c-0.7-0.6-1.1-0.2-1.4-1.2c-4.1-12.2,2.7-21.8,3.5-33.8c0.5-6.8-1.5-13.4-1.9-20.2
					c-0.4-6,1.6-11.8,1.7-17.8c0.1-5-2.5-9.6-2.2-14.5c0-0.9,0.2-1.9,0-2.8c-0.8-4.2-10.9-6.9-14.3-8c-0.6-0.2-1.3-0.4-1.9-0.6
					c-0.8-0.3-1.6-0.5-2.4-0.6c-0.6-0.1-1.2-0.1-1.8-0.2c-1.5-0.2-2.9-0.9-4.3-1.3c-3.4-0.8-6.8,0.1-10.2,0.4
					c-3.7,0.3-4.9-0.3-7.7-2.3c-2.3-1.7-6.2-0.7-8.8-0.8c-1.6-0.1-3.2-0.4-4.8-0.1c-1.3,0.3-2.4,1.2-3.7,1.6
					c-1.4,0.4-2.3-0.5-3.7-0.4c-3.6,0.2-7.1-1.6-11-1.7c-7.4-0.1-14.7-0.3-22.1-0.4c-1.6,0-3.7,0.2-4.2,1.7
					c-0.5,1.4,0.6,2.7,1.7,3.7c5.4,4.9,11.9,8.4,19,10.2c4.2,1.1,8.7,1.5,13,0.6c4.5-1,9-3.6,13.5-2.8c1.7,0.3,3.4,1.1,5,0.5
					c0.9-0.3,1.7-1.1,2.5-1.7c6.3-4.4,18.8,0.8,21.9,7.2c0.6,1.3,1,2.8,1.5,4.2c0.8,2.7,1.8,5.4,2.8,8c0.2,0.5,0.4,1.1,0.6,1.6
					c0.2,0.6,0.4,1.2,0.8,1.7c0.4,0.7,1.1,1.2,1.5,1.9c1,1.5,1.1,3.4,1.1,5.3c0,12.4-0.9,24.6-0.7,36.9c0.1,4.8,0.1,9.6,0.2,14.5
					c0.1,9.7,0,19.3-0.5,29c-0.2,4.3-0.6,8.6-0.9,13c-0.2,2.5-1,5.6-4.3,4.5c-1.6-0.5-2.8-1.8-4.1-2.9c-0.7-0.6-1.5-1.1-2-1.8
					c-0.7-1.1-0.6-2.4-0.5-3.7c0.2-1.2,0.5-2.5,0.3-3.7c-0.2-1.2-1.1-2.5-2.3-2.6c0.4-4.1-4.7-7.4-6.2-10.8
					c-1.1-2.5-0.9-5.6-0.7-8.3c0.1-2-0.5-6.6,1.3-7.9c0.6-0.5,1.5-0.3,2.1-0.9c0.6-0.6,0.7-1.6,0.8-2.4c0.1-0.9,0-1.9,0.3-2.8
					c0.3-1.1,1.1-1.7,1.9-2.5c1.9-2.2,1.3-5.4,1-8.1c-0.5-5.9-0.7-11.6,0-17.5c0.3-2.5,0-4.2-2.4-5.3c-2.6-1.2-4.4-2.9-6-5.2
					c-1.4-2.1-2.5-4.4-3.7-6.6c-0.9-1.7-2.3-4.5-0.7-6.2c0.8-0.9,1.8-1.1,2.1-2.5c0.3-1.3,0-2.8-0.2-4.1c-0.2-2.7-0.6-5.4-1.3-8.1
					c-0.5-2.1-1.1-4.7-3.4-5.3c-3-0.8-8.3-0.4-11.1,0.9c-1.2,0.5-2.1,1.6-2.3,2.9c-0.1,1.4,0.9,3.1,0,4.2c-0.4,0.5-1,0.7-1.6,0.9
					c-4,1.4-7,2-11.3,1.9c-2.6-0.1-5.3,0-7.7,1.3c-2.4,1.3-4,3.5-6.1,5.2c-2.1,1.6-4.6,2.6-7.1,3.3c-1.3,0.4-2.8,1-3.9,0
					c-0.5-0.5-0.9-1-1.6-1.2c-0.5-0.2-1.1,0-1.7-0.2c-0.8-0.2-1.2-1-1.6-1.7c-3.3-5.1-13.9-6.4-15.1,1.4c-0.2,1,0.4,2.1,0,3
					c-1,2.1-1.9,1.9-1.4,4.5c0.4,1.8,1.6,3.6,2.9,4.9c1.9,1.9,4.2,3.5,6.3,5.3c2.1,1.7,4.5,3.1,4.6,6.1c0,3.3-2,6-3.3,8.8
					c-0.9,2-1,5.2-2.9,6.5c-0.5,0.3-1,0.5-1.4,1c-0.4,0.5-0.4,1.2-0.5,1.8c-0.1,1.9,0.2,4.2-0.2,6c-0.3,1.3-1.3,2.5-1.8,3.8
					c-0.8,2-0.6,5.8,0.9,7.6c1.2,1.5,3.6,0.4,5.1-0.1c4-1.6,8.1-6.5,12.7-6c0.7,3-0.6,6.5-2.5,8.8c-2,2.3-3.9,4.2-5.2,7
					c-0.7,1.4-1.5,2.8-2,4.3c-0.5,1.6-0.3,3.2-0.5,4.9c-0.2,1.5-1,2.4-1.6,3.7c-0.7,1.5-0.5,3,0.2,4.5c1.1,2.3,2.9,4,3.2,6.6
					c4.4,0.8,11.1-7,14.4-9.7c5-4.1,10.1-8.3,16.2-10.7c1.1-0.4,12.9-4.5,13.1-3.7c0.8,4.9-2.9,10.8-5.3,14.9
					c-2.6,4.5-5.8,8.5-9.6,12.1c-2,1.8-4,3.8-6.3,5.2c-1.2,0.7-2,0.9-3.4,0.9c-1.1,0-1.7,0-2.3,0.9c-1.2,1.5-1.2,3.2-3.1,4.1
					c-4.3,1.9-9.2,0.6-13.3,3.4c-1.3-1.5-3.6-1.6-5.6-1.7c-3.6-0.1-7.3-2.4-8.7-5.9c-0.9-2.4-0.4-5.4-0.4-7.9c0-6.5,0-13,0.2-19.5
					c0.1-4.5,0.3-9,0.4-13.5c0-2.5,1-8.9-1.3-10.7c-0.3-0.2-0.7-0.4-0.9-0.7c-0.3-0.4-0.3-0.8-0.3-1.3c-0.5-11.2,2.5-23.6-3-34
					c-1.1-2-2.6-4.6-4.8-5.6c-1.4-0.7-4.1-1.2-4.5,0.8c-0.9,4.6-0.3,9.6,0.8,14.1c0.6,2.2,2.8,5.6,2.5,7.8c-0.1,0.7-0.5,1.3-0.9,2
					c-1.8,3.3-0.4,7.3-0.2,11c0.1,2.5-0.3,5.1-0.7,7.6c-1.4,7.9-2.7,15.9-5.5,23.4c-2.7,7.3-3.3,12.8-2.1,20.5
					c1,5.9,1.7,12,4.1,17.6c1.8,4.3,4.9,7.2,9.6,7.6c6.3,0.6,12.5-1.5,18.7-2.1c6.3-0.6,12.1-1.2,18-3.7c2.9-1.2,5.8-2.2,9-2.2
					c5.1-0.1,8.8-1.1,13.8-2.5c3.2-1,6.5-1.2,9.8-0.6c2,0.3,4.1,0.9,5.9,0.1c0.6-0.2,1.1-0.6,1.6-0.9c1.8-0.8,3.9-0.4,5.8,0.1
					c4.1,1,8.3,1.2,11.4,4.2c2.8,2.7,3.9,6.9,5.9,10.1c0.4,0.7,0.8,1.3,1.3,2c1.7,2.7,3.4,5.4,5,8.2c0.9,1.6,1.7,3.3,3,4.5
					c1.3,1.3,3.2,2.1,4.9,1.7c1.5-0.4,2.6-1.6,3.9-2.2c0.9-0.4,2-0.6,2.9-1.2c0.7-0.5,1.2-1.2,1.7-1.9c0.8-1.2,1.5-2.2,2.2-3.2
					c1.1-1.7,1.9-3.4,2.2-5.8c0.4-3.1,1.7-5.7,2.6-8.7C497.3,233.1,497.3,229.9,497.1,226.7z M426,170.6c-1.1,1.5-0.5,1.6-2.1,2.6
					c-2,1.3-3.2,1.9-4.9,3.5c-0.4,0.4-0.1,0.8-0.6,1.2c-0.5,0.3-1.4-0.1-1.8,0.1c-0.6,0.4-0.9,0.8-1.3,1.1c-1.9,1.3-4.5,0.8-6.7,0.6
					c0.4-2.4,2.8-5.3,4.7-7c1.9-1.9,5.1-2.5,6.8-4.7c1.1-1.5,0.6-3.1,0.6-4.7c0.1-2.9,0.7-4.5-2.6-5.1c-1-0.2-1.9-0.4-2.9-0.7
					c-1.9-0.4-3.7-0.8-5.6-1.2c-4.5-0.8-9-1.1-13.5-1.1c-0.3,0,2.9-8.2,3.3-8.9c1.7-2.9,4.1-5.3,6.7-7.3c1.7-1.4,4.5-4.5,6.9-4.1
					c0.5,0.1,1,0.3,1.5,0.6c5.6,3.3,7.5,10.9,10.1,16.6C427.1,157.7,430.1,164.9,426,170.6z M446.6,205.6c-0.1,2.4-0.1,4.9-1.6,6.9
					c-1,1.3-2.3,1-3.8,1.1c-1.5,0.1-5.2,0.6-6.2-0.7c-0.1-0.1-0.2-0.3-0.2-0.4c-0.5-1.9,1.6-5.2,2.7-6.5c0.5-0.6,3.9-5.1,4.2-5.1
					c1.2,0,2.3,0,3.5,0C447,200.8,446.6,204.6,446.6,205.6z M448.7,151c-0.2,1.2-1.6,1.8-2.4,2.8c-2.5,3-6.4,1.5-8.4-1
					c-2-2.4-3.1-5.5-4.4-8.3c-1.5-3-3.2-5.9-4.4-9.1c-0.5-1.2-0.9-2.4-1.1-3.7c-0.3-1.7,3.7-3.9,5.1-4.5c1.1-0.4,2.2-0.3,3.6-0.3
					c2.1,0,4.3,0,6.4,0c1.4,0,2.2,0,3,1.2c0.3,0.5,0.6,0.9,1,1.2c0.7,0.6,1.4,0.7,1.7,1.7c0.5,1.9,0,4.3,0,6.3
					c0,1.9-0.1,6.8,0.3,7.1C449.3,144.6,449,149.5,448.7,151z"/>
				<g id="XMLID_3811_">
					<path id="XMLID_3885_" class="st0" d="M579.5,105.3c1.5,1.8,3,3.5,4.1,5.5c1.9,3.5,0.7,6.8,5.1,7.9c1.6,0.4,2.5,1.1,3.9,1.8
						c4.8,2.2,11.6,0.7,16.6-0.2c0.3-0.1,0.6-0.1,0.9-0.3c0,0,0.1-0.1,0.1-0.1c2.9-2.7-2.8-11.6-4.9-13.1c-2-1.4-4.2-2.3-6-3.9
						c-2.2-2-3.3-4.3-6.5-4.8c-6-1-11.4-4.4-17.3-5.9c-0.5,1-1.6,2.2-1.8,3.3c-0.2,1.1,0.7,2.5,1.2,3.5
						C576.1,101.2,577.8,103.3,579.5,105.3z"/>
					<path id="XMLID_3858_" class="st0" d="M663,225.1c-1.4-1.7-3.3-2.8-5.2-3.7c-10.7-5.2-22.9-7.4-34.8-6.2
						c-2.7,0.3-6.3,0-6.7-2.6c-0.2-1.7,1.2-3.1,2.5-4.3c8.9-8.2,15.1-19.3,17.3-31.2c0.8-4.3,1-9.1-1.6-12.7
						c-2.1-2.9-5.8-4.3-9.4-4.5c-3.6-0.2-7.1,0.8-10.5,1.9c-1.8,0.6-3.5,1.2-5,2.4c-2,1.5-3.2,3.8-4.6,5.8
						c-4.6,6.7-11.4,11.6-18.1,16.3c-2.1,1.5-4.3,3-6.8,3.4c-2.5,0.4-5.5-0.9-6.1-3.4c-0.6-2.1,0.6-4.1,1.7-6
						c2.2-3.6,4.3-7.2,6.5-10.8c4-6.7,8.2-13.5,14.6-17.9c4.9-3.3,10.8-4.9,16.3-7.1c4.7-1.9,9.2-4.2,13.4-7
						c1.2-0.8,2.5-1.8,2.9-3.2c0.3-1.1-0.1-2.1-0.7-3c-0.7-1-1.9-1.8-3.1-2.3c-7-2.9-14.8,0.8-21.8,3.8
						c-12.2,5.2-25.2,8.4-38.3,10.2c-3.1,0.4-20.8,2.2-16.9,8.5c0.7,1,1.8,1.7,2.9,2.2c5.8,2.9,12.5,4.1,19,3.4
						c2.7-0.3,6.2-0.5,7.2,2.1c0.7,1.7-0.4,3.5-1.4,5c-3.1,4.6-6.4,9-10,13.2c-1.8,2.1-3.7,4.2-5.7,6.3c-1.4,1.4-2.8,2.8-4.3,4.1
						c-0.1,0.1-0.2,0.2-0.3,0.4c-0.1,0.3,0.1,0.5,0.3,0.7c3.2,3.5,4.6,7.7,6.4,12c1.5,3.8,3.6,7.5,7.8,8.7c2.9,0.9,6-0.1,8.8-1.2
						c6.2-2.5,12.1-6,17.2-10.3c2.7-2.3,5.4-4.9,6.2-8.4c0.6-2.7,0.1-5.6,0.6-8.3c0.8-3.9,3.9-7.2,7.8-8.2c0.7-0.2,1.6-0.2,2.1,0.2
						c0.7,0.6,0.7,1.6,0.6,2.5c-1.4,12.6-10.6,22.7-19.5,31.7c-9.2,9.3-19.4,18.7-32.2,21.2c-2.2,0.4-4.6,0.7-6.6,1.8
						c-2,1.2-3.4,3.6-2.6,5.7c0.5,1.3,1.7,2.1,2.8,2.9c4.1,2.7,8.7,5.2,13.6,4.6c2.2-0.3,4.2-1.2,6.3-1.9c4.7-1.5,9.8-1.9,14.7-2.7
						c13-2.2,25.6-7.9,38.8-7.1c10,0.6,20,5,29.7,2.6c2.2-0.6,4.5-1.6,5.4-3.7C665,229.1,664.4,226.7,663,225.1z"/>
				</g>
				<path id="XMLID_3808_" class="st0" d="M852.8,185c-0.3,0.1-0.6,2.4-3.5,1.8c-5.5-1.3-10.6-5.1-15.7-7.4c-2.6-1.2-5.9-3-8.9-3.2
					c-2.4-0.1-4.6,1.6-5.4,1.7c-1,0.1-7.6,4.3-8.7,7.1c-1.2,3.1,0,9.3-0.2,12.7c-0.3,7.5-0.7,15.4-3.2,22.5
					c-1.4,3.9-4.3,7.3-5.3,12.3c-9.4,3-18.8,5.9-28.1,8.8c-0.6,0-1.1,0-1.8,0c0-1.7,0-3.5,0-5.2c1.8-0.6,3.5-1.2,5.3-1.8
					c0-0.6,2.3-1.8,3.5-1.8c0-0.6,3.5-1.7,5.3-1.7c6.8-2.8,12.3-7.7,14-15.8c3-3.1,2.7-7,2.5-11c-0.1-1.1-2.3-7.3-2.3-6.8
					c0.9-6.2-8.3-8.3-10.7-12.1c0,0-1.7-1.8-1.7-1.8c2.4-2.7,12-8.1,8.8-15.8c0,0-3-2.5-3.5-3.5c5.3-4.7,10.6-9.4,15.8-14
					c3.3-4.6,4-9.2,8.8-12.3c0-1.8,0-3.5,0-5.3c-4.1-1.2-8.4-2.9-12.2-4c-3.1-0.9-6.6-0.6-9.7-1.4c-4-1-7.6-3.8-11.8-4.2
					c-1.3-0.1-11.7,0.5-12,0.9c4.1-7.2,13.9-15.3,21.1-19.3c-0.2-7.7-2.1-9.6-7-12.3c0-4.7,0-9.4,0-14.1c4.7-2.3,9.4-4.7,14-7
					c0-1.2,0-2.3,0-3.5c1.9-2,0.8,0,1.8-3.5c-4.1-2.2-8.3-4.3-14.1-5.3c-0.1-0.2-1.5-3.4-3.3-6.1c-2.9-4.4-5.3-3.7-9.3-1.1
					c-1.3,0.8-7.3,3.8-3.1,5.2c4.1,1.4,0.8,12-1.4,14.6c-1.3,1.6-14.6,7.1-14.6,5c0,1.7,0,3.5,0,5.3c5.3,0.6,10.6,1.2,15.8,1.7
					c0,4.7,0,9.4,0,14.1c-7.9,0-9.6,1.2-14.1,3.5c-0.5,0.3-0.2,6.7,0.4,7.4c1.4,1.5,4.5,1.4,6.4,1.1c0.1,0.4,0.6,3.8,0.3,3.9
					c-5.3,1.2-6.7,3.2-10.6,5.3c-0.4,16.3,5.3,16.5,17.6,15.8c3-0.2-5.9,6.2-5.1,5.5c-1.9,1.4-22,14.1-25.1,16.1
					c-1.5,0.9-4.5,2.2-5.9,3c-1.5,0.8-4.9,2.1-6.5,3.1c-4.3,3-9.6,5.7-13.3,8.6c-1.7,1.3-2.7,3.2-4.3,4.4c-3.2,2.4-7.7,4.4-11.6,4.7
					c0.6-4.4-3-5.2-0.6-10.8c1.7-4,5.4-8,9.2-10.1c0-0.6,0-1.2,0-1.8c-6,1.5-19.8,8-22.9,12.3c-2,2.9,0,4-3.5,7
					c0,11.7,2.1,15.7,5.3,22.8c1.3,0.4,10.1,3.8,10.3,3.3c1.1-1.9,5-2.5,7.3-4.1c6.5-4.9,11.7-11.6,18-16.8c2-1.7,3.9-1.2,5.7-2.8
					c3.5-3,5.4-6.4,9-8.4c3.3-1.8,6.6-3.9,9.4-6.4c2.3-2,7.5-4.1,9-6.9c2-3.9,18.8-10.9,21.6-12.4c4.4-2.4,9.8-4.8,14.8-4.9
					c0.4,4.5-4.7,6.7-6.4,10.5c-4.4,9.9-18.5,12.9-23.2,13.7c-0.4,0.2-6.4,4.3-3.5,15.8c3.5-0.6,7-1.2,10.6-1.8
					c0.6-1.2,1.2-2.3,1.7-3.5c1.8,0,5.3-1.2,5.3-1.8c0.6,0,1.2,0,1.8,0c-1.7,6.6-6.7,8.3-12.3,10.5c0,2.9,0,5.8,0,8.8
					c0.6,0,1.8,1.2,1.8,1.8c2.9-0.6,5.9-1.2,8.8-1.8c8-1.6,13.4,12.4,13.9,12.5c0.2,3.4-2.4,10.1-5.1,12.1c-2,1.5-0.3-0.3-1.8,1.7
					c-0.6,0-1.2,0-1.8,0c0-1.7,0-3.5,0-5.3c0.6,0,4.1-8.2-3.5-14.1c-0.5,0-7.7,0.3-7.8-0.3c0-0.5-5.5,0.3-8.1,0.3
					c-4.1,3.5-8.2,7-12.3,10.6c-2,2.9,0,4-3.5,7c-0.2,10.6,2.3,14,8.8,17.6c-2.5,8.9-4.2,3.5-10.6,7c-0.5,0.3-1.5,2.6-3.5,3.5
					c0.5,7.3,2.3,8.2,3.5,14c7.9,0,15.6-0.7,23.1-3.1c2.2-0.7,18.5-4.6,18.9-5.8c2.5-6.9,37.7-3.5,37.1-8.7
					c-1.8-16.4-3.5-32.8-5.3-49.2c11.5,0.8,14.4,6.3,22.8,8.8c4.1-0.6,8.2-1.2,12.3-1.8c1.8-4.1,3.5-8.2,5.3-12.3
					C857.5,186,856.9,184.3,852.8,185z M768.1,220.2c-1.4,2.4-3.2,6.4-6.5,5.1c-3.6-1.5-1.4-8.8-0.1-11.5c0.9-1.9,2.3-3.6,3.5-5.3
					c0.4-0.6,1.1-2.1,1.9-2.3c1.4-0.3,3.6,1.7,5.2,1.7C770.3,211.9,770.3,216.5,768.1,220.2z"/>
				<g id="XMLID_3801_">
					<path id="XMLID_3807_" class="st0" d="M947.7,151.6c0.6,1.8,1.2,3.5,1.8,5.2c0.2,0.7,6.3-0.9,7.1-1.3c2.4-1.2,2.8-3.1,2.9-5.5
						c0-1.3,0-2.6,0.1-3.8c0.2-1.9,1.4-3.2,2.1-4.9c0.2-0.6-0.2-1.6,0.4-2.1c0.5-0.4,1.9,0.1,2.4,0.2c1.7,0.5,3.2,1.6,4.8,2.4
						c0.9,0.5,4.7,4.3,5.3,4.3c2.2,0.1,4.4,0.3,6.6,0.2c1.3-4.8,2.2-7.5,0.9-12.7c-0.4-1.7-2.7-9.8-4.3-10.3
						c-3.5-1.2-7-2.4-10.5-3.5c0,0-3.3,0.3-5.3-1.7c4-1.7,6.8-3.1,12.3-3.5c0.3-1.5,0-15.8,0-15.8c0,0,2.9-1.9,1.8-5.3
						c-1.2-0.6-2.3-1.2-3.5-1.8c0-1.2,0-2.3,0-3.5c1.7,0,3.5,0,5.2,0c0-1.8,0-3.5,0-5.3c-5.5-2.1-11-2.4-14-7
						c-11.6-0.4-12.6,0.8-14.1,10.5c-13.6,2.5-15.3,3.3-28.1,3.5c-1,2.8-3.1,8.9-1.8,14.1c0.6,0,1.2,0,1.8,0
						c2.8,10.4-6,22.7-10.5,26.4c0,4.9-0.8,11.7,1.8,14.1c2.2,2,2.1-1.3,5.3,3.5c13-0.7,11.8-12,11.7-21.8c0-3.3,1.7-28.7-2.9-29.1
						c5.9,0.6,11.7,1.2,17.6,1.8c0.6,3,3.7,7.9,1.7,12.3c-1.7,1.2-3.5,2.3-5.3,3.5c-1.6,1.8-1.5,3.7-3.5,5.3c0,0.6,0,1.2,0,1.8
						c2.4,0,4.7,0,7.1,0C943.7,133,940,145,947.7,151.6z"/>
					<path id="XMLID_3806_" class="st0" d="M1007.3,107.3c-1.9-3.4-3.6-7-3.7-10.9c0-2.7,0.3-5.3,0.3-7.9c0,0-2.9-2.2-3.5-3.5
						c-2.3,0-4.7,0-7,0c-1.3,12.6-5.3,23.1-5.3,36.9c6.3,0,11-0.4,14.1-3.5c4.3-1.1,3.8-1.8,7-3.5
						C1011.6,113.5,1008.1,108.6,1007.3,107.3z"/>
					<path id="XMLID_3805_" class="st0" d="M884.6,127.4c1.4,2.5,0.5,6.5,0.3,9.2c-0.1,1.5-0.3,3.1,0,4.6c0.2,1,1.4,2.7,1.4,3.5
						c0,1.1,0,2.1,0.2,3.1c3.4-1.4,7.9-4,10.1-7c1.2-1.6,2.2-3.6,2.9-5.5c0.9-2.8,0.2-2.5-0.5-4.8c-0.7-2.5-0.2-3.1-1.9-5.2
						c-1.1-1.3-2.6-2.6-3.7-4c-0.8-0.9-4.3-6.4-5.3-6.4c-1.8,0-3.5,0-5.3,0c-2,2,0,0.7-3.5,1.8c0.8,2.5,1.4,5.5,2.6,7.8
						C882.5,125.7,883.9,126.2,884.6,127.4z"/>
					<path id="XMLID_3804_" class="st0" d="M920.4,157.8c-0.7,0.6-1.3,1.6-1.8,3c-1.3,4.1-3.5,8-6.4,11.2c-1.8,2-3.8,3.6-5.9,5.1
						c-0.4,0.3-4.8,4.3-4.4,4.3c-5-0.3-9.9-10.1-12.1-14c-1.3-2.3-1.5-7.5-3.5-8.8c-1.2,0-2.3,0-3.5,0c0.9,5.3,0.6,10.7,1.7,16
						c0.8,4.3-0.8,7-0.6,11.1c0.2,4.2,1.1,7.5-0.8,11.4c-1.6,3.3-4.3,6.1-4.6,10c-0.2,2.7,0.1,5.4,0.5,8c0.6,4.3,2.3,17,9,15
						c5.7-1.7,3.4-6.1,4.5-10.5c0.5-1.9,2-3.1,2.5-4.9c0.6-2.2,0.7-3.9,1.9-5.8c2.4-3.7,4.1-7.7,6.4-11.4c1.1-1.8,1.1-3.6,1.9-5.5
						c0.9-2.1,1.8-2.8,3.7-4.2c2.8-2.1,5.6-6.4,7.5-9.4c1-1.5,1.6-3.2,2.8-4.5c1.1-1.2,2.8-1.7,3.9-2.9c0.9-1,1.1-2.7,1.5-4
						c0.9-3.3,2-6.7,2.1-10.1C923.8,156.7,921.8,156.6,920.4,157.8z"/>
					<path id="XMLID_3803_" class="st0" d="M949.7,179.7c5.3,0.2,7.8,6.8,13.6,5.2c2.6-0.7,5.2-2.1,7.5-3.6
						c4.4-2.8,8.7-7.1,13.8-8.6c1-3.5-0.3-1.5,1.8-3.5c-0.1-5-0.6-7.5-1.8-10.6c-17.4,0.6-28.2,9.5-40.4,15.8
						C944.2,174.5,949.7,179.1,949.7,179.7z"/>
					<path id="XMLID_3802_" class="st0" d="M995.2,192c-10.2-0.1-23.2,0.4-28.1,5.3c-6.5-0.7-8.1-2.6-10.5-7
						c-2.9,0.6-5.9,1.2-8.8,1.7c0.6,4.7,1.2,9.4,1.8,14.1c2,1.5,0.3-0.2,1.7,1.8c1.2,1.6,10.4-4,11.5-4.9c3.2-2.5,5.3-2.2,9.3-2.3
						c0.2-3.5,12.6-1,12.6,0.1c-0.3,4.4-0.7,8.8-1,13.2c-0.2,2.2,0.3,4.6-0.2,6.7c-0.6,2.7-5.1,11.2-8.1,12.1
						c-5.2,1.6-11.7,1.4-17.1,1.4c1,8.6,4.5,12.5,5.3,21.1c1.1,0,3.5,1.2,3.5,1.8c1.4,0,11.3-4.3,12.3-5.3c2.4-0.6,4.3-1.5,6-3.3
						c2.5-2.6,3.1-3.9,4.5-7.1c2-4.5,4.8-8.4,6.2-13.3c1.1-3.8,1.6-7.6,2.7-11.4c0.4-6.6,3.3-14,0-17.6
						C997.6,194.8,996.8,195.2,995.2,192z"/>
				</g>
				<path id="XMLID_3796_" class="st0" d="M1186.7,146.4c-0.2-0.4-4.1-3.3-5.3-5.3c0-0.1-13.9-1.6-14.8-1.5c-5.1,0.5-14,4.5-17.9-1
					c-1.7-2.4-0.5-5.8-2.4-8.4c-1.6-2.2-4.9-2.5-6.3-4.9c-0.5-0.9-1.3-6.9-0.7-7c9.3-1.7,25.5-5.7,29.9-12.3c0.6,0,1.8-1.2,1.8-1.8
					c-3.1-1.8-5.3-3.8-7-7c-20.5,0.6-30.4,10.6-50.9,10.6c0,1.7,0,3.5,0,5.3c2.9,0.6,5.8,1.2,8.8,1.8c5.3,8.8,10.5,17.6,15.8,26.4
					c-1.1,4.1-1.2,5.8-5.1,7.4c-0.5,0.2-8.2,2.5-7.9,2.9c-1.2-1.7-0.8-3.4-1.1-5.5c-0.4-3.1-0.8-3.8-1.9-6.4c-0.3-0.3-0.6-0.4-1-0.2
					c-0.9,2.5-3.2,3.8-4.1,6.5c-1.2,3.4-1.8,5.9-3.3,8.5c-0.3,0.5-2.1,6.3-1.9,6.1c-4.1,3.5-8.2,7-12.3,10.5
					c-1.5,1.3-6.8,0.3-7.2-1.6c-5,0.4,2.9-9.3,3.8-10.5c3.3-4.6,4.9-7.9,3.5-13.4c-0.5-2.2-2.4-9.6-5.4-9.6c-1.7,0-3.5,0-5.2,0
					c-2.5-7.6,2.4-6.9,5.2-13c0.5-1,1-13.3,1.6-13.3c3.5,0.4,3.3-8.3,3.7-10.7c-3.4-0.3-17.5-1.9-19.3-3.5
					c-7.6,0.4-5.9,1.1-10.6,3.5c3,5.1,7.2,6,14.1,7c-0.1,12-3.1,15.3-7,22.8c-1.8,0-3.5,0-5.3,0c-3.5,0-5-9.7-6.6-11.8
					c-0.7-0.9-7.3-7.5-8-7.3c-2.5,0.2-7.9,0.2-9.9,1.6c0.7,5.7,2.4,8.8,5.3,12.3c1.2,0.6,2.3,1.2,3.5,1.8c1.2,0.6,0.9,13.9,1,15.9
					c0.2,3-0.9,11.4,2.4,12.4c3.3,1-0.6,24.3-1.8,24.2c-3.5-0.1-2.4,10.2-3.4,12.5c-1.1,2.7-3.3,4.8-3.9,7.8c-1,5,6,15.7,8.6,19.7
					c1.4,2.2,2.1,6,5.6,5.9c6.8-0.3,9.9-10.7,14.5-13.9c1.9-1.4,4.9-0.7,6.9-2c2.5-1.6,9.4-9.7,9-12c6.5-0.5,3.9-15.1,11.1-10.8
					c1.7,1,6.4,12.4,6.3,12.4c8-0.5,7.5-2.5,12.3-5.3c1.1-0.6-1-19.5-3.3-19.5c0.2-3.8,0.6-8.7,3.1-11.1c2.2-2.1,6.6-1.3,7.4-4.4
					c2.7,0.4,5.6,0.6,7,2.6c2.5,3.5,0.2,7.3,0,9.7c-1,8.9,1.9,16.6,2,25.3c0.1,6.7-0.4,13.4-0.4,20.2c0,8.3-0.2,14.8-2,22.7
					c-1.7,7.2-0.5,16.1,2,23c1.3,3.4,7.8-2,8.6-3.4c1.4-2.5,2.2-6.3,2.5-9.2c0.4-5.2-0.5-10.4-0.9-15.5c-0.4-5-1.1-10.2-0.6-15.2
					c0.4-3.8,2.5-7.6,2.7-11.1c0.3-6.7-1.5-17.2,1.8-21.1c0-0.6,0-1.2,0-1.7c3.4,2.2,8.4,5.2,10.5,8.8c8.1,0,10.8-1.3,15.8-3.5
					C1183.1,180.3,1192.3,156.8,1186.7,146.4z M1069,152c1-2,8.3-6.4,10.2-5.2c0.2,0.1,0.4,0.3,0.6,0.4c0.6,0.4,1.9,4,2.1,4.9
					c1.6,6.4-5.9,14.6-11.2,17C1067.4,166.1,1067.1,155.9,1069,152z M1078.9,194.9c-2.2,1.9-5.4,2.3-10,0.7
					c0.2-9.2,0.6-6.9,3.5-12.3c5,0.1,7.5,0.6,10.5,1.7C1082.4,189.5,1081.2,193,1078.9,194.9z M1163.8,176.2
					c-0.8,1.4-8.3-0.9-9.6-1.8c-4-3-3-7.6-2.5-12c2.3-0.8,2.3-14.6,5.1-14.3c6.2,0.7,15.5,3.6,15.8,11
					C1172.9,165.4,1166.9,171.2,1163.8,176.2z"/>
				<g id="XMLID_3789_">
					<path id="XMLID_3795_" class="st0" d="M1263.6,114.3c0.6,0.1,1.4,0,1.8,0.5c0.1,0.2,2.6,1.6,3.7,1.8c-0.2,1,0.6,1.9,1.5,2.2
						c3.5,1.3,7.6,0.4,11.2,0.2c1-0.1,4.4-1.2,5.3-1.7c1.9-1,4-1.2,6-1.8c1-0.3,1.9-0.7,2.7-1.4c1-0.8,7.2-2.6,8.6-3.5
						c1.1-0.7,2.5-4.5,3.4-4.6c1.3-0.1,15.5-2.2,15.7-1.6c1,4.3,22.4,1.4,26.5-0.2c-0.4-4.2-0.8-4.4-1.8-7c-5.9,0-11.7,0-17.6,0
						c0.3,0,1.5-7.6,1.8-8.8c0,0,0-0.1,0-0.1c0.5-0.5,4.3,0.4,5,0.3c2.3-0.3,2.8-1.6,4.5-2c3.2-0.7,6,2,9.3,1.4
						c0.7-0.1,7.3-3.5,7.3-3.3c-0.1-0.8-0.9-4.7-1.6-5c-4.2-1.6-10.9-1.9-17.5-1.7c-0.3,0-2.8-7.7-3.4-8.7c-0.7-1.1-1.5-2-2.5-2.8
						c-1.1-0.9-3.2-1.4-4.2-2.4c-0.4-0.4-5.1-0.2-5.7-0.2c-7.5,0.4-5.9,1.1-10.5,3.5c-0.7,0.4,0,9.1,0,10.2c0,2.4,1,6.7-0.4,8.8
						c-0.8,1.3-2.4,1.6-3.1,3.2c-1.4,3.3-4,5.7-5.5,8.9c-0.8,1.8-0.8,5.5-3.4,5.8c-11.1,1.2-22.2,2.3-33.4,3.5
						c0.7-5.7,1.6-5.1,3.5-8.8c0.3-0.6,3.1-1.2,3.8-1.4c1.4-0.5,2.9-0.9,4.3-1.3c3.1-0.8,6.2-1.5,9.3-2.2c3.2-0.6,6.3-1.2,9.5-1.7
						c1.6-0.3,2.6,0.1,3-1.5c0.3-1,0.3-2.9-0.3-3.9c-0.7-1.1-2.1-0.9-3.1-1.6c-0.8-0.5-1.1-1.8-1.8-2.3c-1.7-1-4.8-0.2-6.6-0.1
						c-2.3,0.1-4.5,0.2-6.8,0.1c-2.6-0.1-1.8-0.6-3-2.4c-1.5-2.2-4.5-2.8-6.4-4.5c-2.5-2.3-6.4-2-8.6,0.7c-2.1,2.5-0.5,5.5-1,8.4
						c-0.6,3.5-2.8,6.8-4.1,10.1c-0.8,2-1.8,5.3-3.1,7c-1.8,2.5-4.4,3.5-6.1,6.3c-0.5,0.8-3.6,9.5-3.5,9.5c4.2-0.3,7.9-2.4,12-3.4
						C1260,114.4,1261.9,113.9,1263.6,114.3z"/>
					<path id="XMLID_3790_" class="st0" d="M1367.6,197.3c-0.2-5.9,0.1-6.4-3.5-8.8c0-0.6-1.2-1.8-1.7-1.8
						c-4.6,8.5-8.7,14.6-10.5,26.4c-0.1,0.7-12.1,1.9-13.3,2c-5.7,0.3-9.6-2-14.9-3.8c-1.9-0.7-1-10.4-1.3-12.4
						c-0.8-4.8-2.1-9.6,0.5-14.2c0.6-1.1,1.5-2.3,2.7-2.9c4.6-2.4,9.3-5.2,13.5-8.9c1.9-1.6,4.5-4.9,5.8-7c1.7-2.6,2.2-5.4,4-8.1
						c2.3-3.4,5.6-6.1,5.2-10.6c-0.2-2.2-0.9-4.4-1.7-6.4c-0.4-0.9-3.5-6.9-4.2-6.9c-2.7,0.1-5.6-0.1-8.3,0.5
						c-0.8,0.2-2.2,0.2-2.9,0.8c-0.2,0.2-1.7,2.5-1.1,2.4c-3.7,1-6.6,1.2-10,3.1c-1.7,0.9-3.7,1.3-5.3,2.2c-2.6,1.6-1.9,2.2-5.3,1.6
						c-1.4-0.3-5.7-1.5-5.7-3.5c0-0.6,0-1.2,0-1.8c-3.4-2-8.7-1.6-14.1-1.7c1.6-6.4,3.1-3.8,3.5-12.3c-4.7,0.6-9.4,1.2-14.1,1.8
						c0,0.6,0,1.2,0,1.7c-2.4,0.7-5.3,0.5-7.6-0.4c-0.2-0.1-4.4-3-3.2-3.1c-1.4,0.1-13.7,1-13.8,1.7c-1.3,5.6-4.1,10.6-7.4,15.3
						c-1.5,2.2-3.1,4.3-4.7,6.4c-0.7,1-1.7,2-2,3.2c-0.4,1.3,0,2.4-1.1,3.5c-0.8,0.9-1.9,1.3-2.5,2.4c-0.6,1.1-0.3,2.4-1.3,3.2
						c-1,0.8-1.9,0.8-2.6,1.8c-0.4,0.6-0.8,1.4-1.1,2c-0.9,1.8-1.7,3.7-2.4,5.7c-0.8,2.4-1.2,5-1.6,7.4c-0.2,1.3-0.7,2.4,0,3.7
						c0.6,1,1.7,1.5,2.3,2.5c1.1,1.7,0.9,3.8,2,5.4c1,1.5,2.7,2.7,4.4,3.1c1.7,0.5,3.3,1,5,1.4c1.3,0.3,12.9,2.2,12.9,1.4
						c-0.2,3.1-0.9,6.2-2.8,8.7c-4.1,5.5-12.2,7.1-17.8,10.5c-2,1.2-5.7,2.7-5.7,5.3c0,1.1,10.4-0.8,11-1c3.3-1.3,10.4-2.9,13.1,1.5
						c1.8,2.8-0.4,6.3,0.3,9.3c1.1,4.6,5.6,13.1,11.6,10.4c6.2-2.8,4.3-12.6,5.2-17.8c1.2-7.2,2.9-15.9,7.4-21.9
						c3.6-4.8,28-14.5,21.7-23.5c-1.9-2.7-7.1-0.8-9.6-3.3c-3-3-1.6-6.6,0.7-9.6c2.2-2.9,5.6-3.5,8.8-4.7c1.7-0.6,5.7-4.2,7.2-4.3
						c6.7-0.1,13.3,0.2,17.6,1.8c0.2,0.1,0.4,7.5,0.2,8.1c-0.3,0.7-3.5,4.8-4.2,5.5c-2.2,1.8-5.7,0.9-8.2,2.3
						c-0.6,0.3-1.5,2.6-3.5,3.5c-1.6,3.8-3.2,7.7-3.8,11.8c-0.6,3.6,1,7,1,10.5c0,3.7-1.1,7.2,0.5,10.9c2.2,5,3.1,10.5,7.5,14.2
						c4.9,4.1,11.8,6.9,18.1,7.5c6.9,0.6,13.6-2.6,20.3-3.8c5.1-1,8.1-4.6,12.6-7.1C1370.8,213.1,1372.9,202.3,1367.6,197.3z
						 M1251.7,155.1c0.6,0,1.2,0,1.8,0c1.5,0.8-3.4,3.5-3.5,3.5C1250.5,157.5,1251.1,156.3,1251.7,155.1z M1263.6,181.3
						c-0.4,0.7-1.1,1.2-2.3,1.6c-1.6,0.5-5.1,0-6.5-0.9c-2.2-1.4-2.4-3.1-3-5.7c1.2,0.1,1.9-0.6,2.1-1.7c0.9,0.1,10.1,1.2,10.1,1.6
						C1264,178.4,1264.3,180.1,1263.6,181.3z M1274.5,193.8c-1.8,0-3.5,0-5.3,0c1.4-4.8,0.4-4,5.3-5.3
						C1274.5,190.3,1274.5,192,1274.5,193.8z"/>
				</g>
				<path id="XMLID_3788_" class="st0" d="M1518.7,209.9c-0.3-2.4-4.3-13.7-7-14.3c-4.9-1.1-8.4-4-12.3-5.3c-6-2-14.2-1.4-20.5-2
					c-6-0.6-13.2,0-18.1-3.3c3.1-4.3,2.2-10.8,4.6-15.4c1.4-2.7,1.1-1.7,3.9-2.5c1.7-0.4,3.5-1.2,4-3c3,0.5,4.8-2.8,7-4.2
					c3-1.8,6-3.4,9.4-4.3c2.8-0.7,5.3-0.8,7.6-2.7c2.4-2,2.8-2.7,5.9-3.7c1.4-0.5,2.4-1.7,3.3-2.2c3.7-2.3,6-3.8,7.2-8.1
					c0.2-0.7,2.1-8.4,1.5-8.4c-2,0-29.9,0.6-30,0.1c-2.6-0.7-6-0.1-8.6-0.1c0,0,0-1.1-3.5-1.8c-2.8-0.5-1-14.5-1-16.4
					c0.2-4,0.4-8.1,0.2-12.1c-0.1-3.9-1-5.5-2.6-8.7c-0.3-0.6,0-1.7-0.3-2.4c-0.9-1.7-2.5-4.2-3.8-5.7c-0.1-0.1-0.2-0.2-0.3-0.3
					c-1.6-1.4-5.3-1.9-7.3-2.5c-5.7-1.6-12.3-2.6-16.6,2.4c-2.7,3.2-3.7,9.1-2.4,13.1c0.9,2.7,1.5,5.5,2.3,8.1
					c0.9,2.7,2.9,4.6,3.8,7.2c0.7,2,0.8,4.4,1,6.5c0.3,3.4-0.2,9.8,2.3,12.6c0.2,15.9-2.4,8.8-12.3,12.3c-2.7,1-8.6,2-10.8,3.7
					c-1.4,1-1.6,8.6-1.5,8.6c1.2,0,4.7,3.5,5.3,3.5c1.9,2.1,4.7,2.6,6.6,4.5c0,0,3.8,5.6,3.9,4.4c-0.2,3.2-1.3,7.4-2.8,10.2
					c-1.1,2-2.6,2.1-4,3.9c-0.7,0.9,0.1,2.6-0.6,3.6c-0.9,1.3-2.5,1.3-3.4,3c-1.9,3.2-0.8,4.5-3.6,7.2c-2.9,2.7-6.8,4.9-10.1,7.2
					c0,2.9,0,5.8,0,8.8c5.5-0.3,9.2-2.6,14.1-4.5c4.3-1.6,9.2-1.1,12.6-4.6c2.3-2.3,3.4-4,6.6-4.9c0-0.6,6.6-0.2,7.2-0.1
					c3,0.4,3.7,2.3,6.3,3.5c2.7,1.2,5.7,0.6,8.5,1.7c2.6,1.1,4.5,3.3,6.8,4.8c1.4,0.9,2.5,0.6,3.8,2c1.3,1.3,1.6,3.1,3,4.3
					c1.5,1.2,3.5,1.2,5.2,2.2c2.1,1.2,4.8,3.9,5,4.4c1.2,0.4,17.1,2.8,17.2,1.7c0.4-2.8,4.2-2.9,5.7-4.8
					C1519,214.9,1519,212.4,1518.7,209.9z"/>
				<g id="XMLID_3779_">
					<path id="XMLID_3781_" class="st0" d="M1734.9,109.5c-3.5,0-7,0-10.6,0c0,0.6,0,1.2,0,1.8c-4.1,0-8.2,0-12.3,0
						c0-0.6-3.5,0-3.5,0c-2.3-0.6-4.7-1.2-7-1.8c-1-0.2,1.9-6.9,3.4-7.2c0.2-6,1.3-11.9,3-17.7c0.4-1.3,2.7-11.9,4.2-11.9
						c0.6-2.3,2.9-7,3.5-7c2.4-6.4-0.9-9.4,3.5-14.1c-0.4-4.1-0.8-4.3-1.8-7c-5.3-0.9-17-4.2-24.6-1.8c0,0.6,0,1.2,0,1.8
						c-8.2,2.3-16.4,4.7-24.6,7c-0.8-4.3-1.7-6.4-1.7-12.3c-0.6,0-1.8-1.2-1.8-1.8c-6.7,0-13.3,0.2-17.6,1.8c1.2,7,2.3,14,3.5,21.1
						c-0.7,0.1-8.7,1.3-8.7,1.7c0.4-2.6-2.3-1.6-3.6-2.7c-0.6-0.5-1.8-4.3-1.8-4.3c-8.8-0.8-8.5-1.6-17.5,0
						c0.2,5.8,0.4,7.9,3.5,10.6c0.2,5.5,0.9,13-1.8,15.8c-3.4,3.6-3.5-5.8-6.1-7.6c-1.9-1.4-2.1-1.8-3.3-3.8
						c-0.5-0.8-0.4-1.8-1.2-2.5c-0.9-0.8-1.9-0.7-2.8-1.6c-1-1-1.6-2.7-2.4-3.8c-0.6,0-3.5-1.2-3.5-1.8c-6.9,0.2-14.2,1.4-17.5,5.3
						c-0.6,0-2.9,5.3-3.6,5.3c4,4.9,8.6,9.6,10.4,15.8c0.4,1.3,0.5,3.2,1.3,4.3c1,1.4,2.5,1.6,3.3,3.3c0.7,1.7,0.3,4.1,0.3,5.9
						c0,1.9-0.2,3.9,0,5.8c0.2,2.3,2.3,5.2,2.3,7c0.2,9.1,0.6,6.9,3.5,12.3c4.1,0,8.2,0,12.3,0c0-0.6,1.1-1.8,1.7-1.8
						c3.9-6.2-3.9-14.2,3.5-21.1c1.5-2-0.2-0.3,1.7-1.7c3.3,9.1,2,17,8.8,22.8c-0.6,1.8-1.2,3.5-1.8,5.3c-6.7,1.2-15.2,3.5-21.1,5.3
						c-3.5,0-7,0-10.6,0c-1.9,0.3-4.9,3.5-8.8,1.8c-1.2-1.8-2.4-3.5-3.5-5.3c-1.2,0-3.6-1.2-3.6-1.8c-5.8,0.6-11.7,1.2-17.5,1.8
						c0.2,5.5,0.1,8.3,1.7,12.3c0.2,0.6,0.4,1.1,0.5,1.7c0.5,2.8,0.7,5.7,0.9,8.6c0.1,1.6,0.3,3.2,0.3,4.8c0,1.8,0.6,3.1,1.1,4.8
						c0.3,1.2,0.2,2.5,0.6,3.7c0.4,1.1,1.1,2,1.6,3.1c0.7,1.6,1.2,2.1,2.4,3.3c2.3,2.3,5,1.7,8,1.7c0.8,0,1.8,0.2,2.2-0.4
						c0.4-0.6,0.3-1.6,0.4-2.3c0.2-1,0.5-2.1,0.7-3.1c0.6-2.4,1.4-4.8,2-7.2c0.6-2.2,1.3-4.5,1.9-6.7c0.2-0.7,1.4-6.5,1.9-6.6
						c25.8-4.1,51.5-8.2,77.3-12.3c0-0.6,4.7-2.9,7-3.5c0-0.6,10-1.6,14-5.3c2.4,0,7,1.2,7,1.7c0.6,0,1.7,3.5,1.7,5.3
						c9.7-0.1,13.9-0.9,21.1-3.5c0-0.6,7-1.8,10.6-1.8c0-0.6,2.3-1.7,3.5-1.7c0.6-1.2,5.3-4.7,7-5.3c0-2.3,0-4.7,0-7
						C1737.8,114.7,1735.4,111.2,1734.9,109.5z M1648.8,123.5c-2.9,0-5.9,0-8.8,0c-0.5-13.2-1.6-28.7,0-45.7c1.7,0,3.5,0,5.3,0
						c1.5,2-0.2,0.3,1.8,1.7c-0.6,3.5-1.2,7-1.8,10.6c-0.6,0-1.2,0-1.7,0c-3.9,10.9,2.6,22.8,7,26.4
						C1650.1,120.6,1649.8,120.9,1648.8,123.5z M1662.8,95.4c-1.8,0.6-3.5,1.2-5.3,1.8c0.1,0-4.8-6.4-1.8-7.2
						c0.2-0.9,2.8-9.1,3.5-8.6c5.3,3.6,0.7,3.2,3.5,7c0.6,0,1.2,0,1.8,0C1664.1,92.5,1663.8,92.7,1662.8,95.4z M1671.6,118.3
						c0.6-4.7,1.1-9.4,1.7-14c3.5-1.1,1.5,0.2,3.5-1.8c5,0.1,7.5,0.6,10.5,1.8C1687.1,114.7,1681.4,117.7,1671.6,118.3z
						 M1692.7,86.5c-0.5,0.1-1.2,0.3-1.7,0.2c0.5,3-8.9,3.2-8.9,3.4c-0.5-1.6-1.2-3.3-1.5-4.9c1.2-0.4,3.9-5.5,3.3-5.6
						c2.9,0.6,5.8,1.2,8.8,1.8C1692.8,81.4,1692.7,85.9,1692.7,86.5z M1694.4,65.5c-6.5,1-4,1-10.5,0c-0.6-1.8-1.2-3.5-1.8-5.3
						c1.2-0.6,2.3-1.2,3.5-1.8c0.9-0.9,1.5-1.7,2.9-1.6c0.4,0,5.9,4.2,5.9,3.5C1694.4,60.8,1694.5,65.5,1694.4,65.5z"/>
					<path id="XMLID_3780_" class="st0" d="M1703.2,183.3c-0.6-1.2-1.2-2.3-1.7-3.5c-6.3-3.7-15.2,2.7-24.6,0c0-0.6-3.5-1.8-5.3-1.8
						c0-0.6-1.2-1.7-1.8-1.7c1.8-12.5,14.5-9.9,17.6-21.1c2.8-2.8,3.6-10,3.5-15.8c-10,0.6-19.9,1.2-29.9,1.8
						c-0.6,1.1-4.1,3.5-5.3,3.5c0,0.6-2.4,1.7-3.5,1.7c0,0.6-5.9,1.8-8.8,1.8c-0.6,1.2-5.3,3.5-7,3.5c-0.6,1.2-8.8,4.7-12.3,5.2
						c-4.7,2.3-9.4,4.7-14.1,7c1.1,4.3,1.8,3.9,3.5,7c4.7,0,9.4,0,14,0c8.8-5.3,17.6-10.5,26.3-15.8c2.9,0.6,5.9,1.2,8.8,1.8
						c0,1.8,0,3.5,0,5.3c-6.4,3.5-12.9,7-19.3,10.5c0,6.4-0.3,8.1,3.5,10.5c-0.6,1.8-1.3,5.2-3.5,5.6c-1.4,0.3-2.8,0.4-4.2,0.6
						c-1.3,0.2-2.6,0.4-3.9,0.7c-1.5,0.4-2.7,1.3-4.2,1.8c-1.3,0.4-2.2,0.6-3.4,1.1c-1.5,0.7-3.1,0.5-4.5,1.1
						c-1.7,0.8-2.6,1.9-4.6,2.2c-1.4,0.2-2.7,0.2-4.1,0.4c-2.9,0.4-5.7,0.9-8.6,1.3c-5.7,0.9-11.4,1.8-17.1,2.7
						c0.2,4.6,0.7,6,1.7,8.8c13,5.4,49.7,6.2,58-3.5c5,0.1,7.5,0.6,10.6,1.8c-0.4,3.4-1.1,6.7-2.1,10c-0.6,2.1-0.8,4.4-1.1,6.6
						c-0.3,2.8,0.2,6.1-0.6,8.7c-0.5,1.6-2,2.7-2.3,4.3c-0.1,0.7-0.1,3.6-1.1,3.8c-8,1.8-12.7,8.1-21.1,8.8c0-0.6-3.5-1.2-3.5-1.8
						c-2.9-0.6-5.9-1.2-8.8-1.8c1,7.5,4,7.3,7,12.3c4.7,1,9.3,2.2,14.1,2.9c2.7,0.4,5.5,0.6,8.3,0.7c1.4,0,2.8,0.3,4.1-0.3
						c1.1-0.5,1.8-1.5,2.9-2c1-0.4,2-0.3,3-0.7c1.7-0.8,2.7-2.6,4-3.9c1.4-1.4,3.3-2.4,4.3-4.2c1-1.8,1.2-3.9,1.9-5.7
						c0.9-2.1,2.1-4.1,2.8-6.3c0.4-1.2,0.3-2.4,0.4-3.7c0.1-1.1,0.2-1.4,0.5-2.3c0.6-2.1,0.9-4.2,1.1-6.3c0.1-1-0.1-2.2,0.2-3.2
						c0.2-0.6,0.8-1.3,1-2c1.8-5,0.1-10.3,1-15.5c0.7-4.2,1.8-8.5,3.2-12.5c3.5-0.6,7.1-1.2,10.5-1.8c0-0.6,5.8-1.7,8.8-1.7
						c0.6-1.2,1.2-2.3,1.8-3.5c1.2,0,3.5-1.2,3.5-1.8C1703.8,185,1703.8,183.3,1703.2,183.3z"/>
				</g>
			</g>
		</g>
		<g>
			<g id="XMLID_143_">
				<path class="st1" d="M300,149.5c0.3,82.8-66.6,150.2-149.5,150.5C67.7,300.3,0.3,233.4,0,150.5C-0.3,67.7,66.6,0.3,149.5,0
					C232.3-0.3,299.7,66.6,300,149.5z"/>
			</g>
			<g>
				<g id="XMLID_113_">
					<path id="XMLID_134_" class="st2" d="M100.7,40l1.1,0.9c9,7.3,12.1,10.9,16,25.3l7.1,21.7c0.1,0.3,0.2,0.6,0.3,0.9
						c0,0.1,0,0.1,0.1,0.2c1.1,2.7,3.6,4.7,6.7,4.8c0.1,0,0.2,0,0.3,0l17.8,0l17.8,0c0.1,0,0.2,0,0.3,0c3.1-0.1,5.6-2.1,6.7-4.8
						c0-0.1,0-0.1,0.1-0.2c0.1-0.3,0.2-0.6,0.3-0.9l7.1-21.7c4-14.3,7-18,16-25.3l1.1-0.9c2-1.3,3.3-3.6,3.3-6.2
						c0-2.7-1.4-5-3.5-6.3c-0.3-0.2-0.6-0.4-0.9-0.5l0,0c0,0-0.1,0-0.1,0c-0.3-0.1-0.5-0.2-0.8-0.3c-11.9-4.5-23.9-7.2-35.8-8.3
						c-1.8-3.9-6.3-6.6-11.5-6.6c-5.3,0-9.8,2.8-11.5,6.6c-11.9,1-23.9,3.7-35.8,8.3c-0.3,0.1-0.5,0.2-0.8,0.3c0,0-0.1,0-0.1,0l0,0
						c-0.3,0.1-0.6,0.3-0.9,0.5c-2.1,1.3-3.5,3.7-3.5,6.3C97.3,36.4,98.6,38.7,100.7,40z M108.4,33.7c13.1-4.6,26.5-7,40.5-7.2
						l1.1,0l0,0l0,0l0,0l0,0v0l0,0h1.1c14,0.2,27.3,2.6,40.5,7.2c0,0,0.7,0.2,0.7,0.9c0,0.4-0.2,0.7-0.5,0.8l0,0
						C178.3,43.7,174,64,174,64l-6,19.7l0,0.1c-0.4,1.2-1.5,2.1-2.8,2.1l0,0l-15,0l0,0l0,0l-15,0v0c-1.3,0-2.4-0.9-2.8-2.1l0-0.1
						L126,64c0,0-4.3-20.3-17.7-28.7v0c-0.3-0.1-0.5-0.4-0.5-0.8C107.8,33.9,108.4,33.7,108.4,33.7z"/>
					<path id="XMLID_131_" class="st2" d="M19.3,131.3c0.1,2.5,1.4,4.9,3.7,6.2c2.3,1.3,4.9,1.3,7.1,0.2l1.4-0.5
						c10.8-4.1,15.5-5,29.9-1.2l22.3,4.7c0.3,0.1,0.6,0.2,0.9,0.2c0.1,0,0.1,0,0.2,0c2.9,0.4,5.8-0.8,7.5-3.4
						c0.1-0.1,0.1-0.1,0.2-0.2l8.9-15.4l8.9-15.4c0-0.1,0.1-0.2,0.1-0.2c1.4-2.7,1-5.9-0.8-8.2c0-0.1-0.1-0.1-0.1-0.2
						c-0.2-0.2-0.4-0.5-0.6-0.7l-15.2-17C83.1,69.6,81.5,65.2,79.7,53.7l-0.2-1.4c-0.2-2.4-1.5-4.7-3.7-6c-2.3-1.3-5.1-1.3-7.3-0.1
						c-0.3,0.1-0.6,0.3-0.9,0.5v0c0,0-0.1,0.1-0.1,0.1c-0.2,0.2-0.4,0.4-0.7,0.5c-9.8,8-18.2,17.1-25.1,26.9
						c-4.2-0.4-8.9,2.1-11.5,6.7c-2.6,4.6-2.5,9.9,0,13.3c-5.1,10.8-8.7,22.6-10.7,35.1c-0.1,0.3-0.1,0.6-0.1,0.8c0,0,0,0.1,0,0.1h0
						C19.3,130.6,19.3,130.9,19.3,131.3z M28.5,127.8c2.6-13.7,7.2-26.4,14-38.6l0.5-0.9l0,0v0l0,0l0,0h0v0l0.5-0.9
						c7.1-12,15.9-22.4,26.4-31.5c0,0,0.5-0.5,1.1-0.2c0.3,0.2,0.5,0.5,0.4,0.9l0,0c0.6,15.8,16,29.7,16,29.7l14,15.1l0.1,0.1
						c0.8,0.9,1,2.3,0.4,3.5l0,0l-7.5,13v0l0,0l-7.5,13l0,0c-0.7,1.2-2,1.7-3.2,1.4l-0.1,0l-20.1-4.6c0,0-19.7-6.4-33.7,1h0
						c-0.3,0.2-0.7,0.2-1,0.1C28.3,128.5,28.5,127.8,28.5,127.8z"/>
					<path id="XMLID_7_" class="st2" d="M109.4,202.1c0,0,0.1-0.1,0.1-0.2c1.8-2.3,2.2-5.5,0.8-8.2c0-0.1-0.1-0.2-0.1-0.2l-8.9-15.4
						l-8.9-15.4c0-0.1-0.1-0.1-0.2-0.2c-1.6-2.6-4.6-3.8-7.5-3.4c-0.1,0-0.1,0-0.2,0c-0.3,0.1-0.6,0.1-0.9,0.2L61.4,164
						c-14.4,3.7-19.1,2.9-29.9-1.2l-1.4-0.5c-2.2-1.1-4.8-1.1-7.1,0.2c-2.3,1.3-3.6,3.7-3.7,6.2c0,0.3,0,0.7,0,1l0,0
						c0,0,0,0.1,0,0.1c0,0.3,0.1,0.6,0.1,0.8c2,12.5,5.7,24.3,10.7,35.2c-2.5,3.4-2.6,8.7,0,13.3c2.6,4.6,7.3,7.1,11.5,6.7
						c6.9,9.8,15.2,18.9,25.1,26.8c0.2,0.2,0.4,0.4,0.7,0.5c0,0,0.1,0,0.1,0.1v0c0.3,0.2,0.6,0.4,0.9,0.5c2.2,1.2,4.9,1.2,7.3-0.1
						c2.2-1.3,3.6-3.6,3.7-6l0.2-1.4c1.8-11.5,3.4-15.9,13.9-26.5l15.2-17C109,202.5,109.2,202.3,109.4,202.1z M101.6,198.6
						L101.6,198.6l-14.1,15.2c0,0-15.4,13.9-16,29.7v0c0,0.3-0.1,0.7-0.4,0.9c-0.6,0.3-1.1-0.2-1.1-0.2
						c-10.5-9.1-19.3-19.4-26.4-31.5l-0.5-0.9v0l0,0l0,0l0,0v0l0,0l-0.5-0.9c-6.9-12.2-11.4-25-14-38.6c0,0-0.2-0.7,0.4-1
						c0.3-0.2,0.7-0.2,1,0h0c14,7.4,33.7,1,33.7,1l20.1-4.6l0.1,0c1.2-0.3,2.5,0.3,3.2,1.4l0,0l7.5,13h0l0,0l7.5,13l0,0
						C102.7,196.3,102.5,197.7,101.6,198.6z"/>
					<path id="XMLID_125_" class="st2" d="M199.4,260l-1.1-0.9c-9-7.3-12.1-10.9-16-25.3l-7.1-21.7c-0.1-0.3-0.2-0.6-0.3-0.9
						c0-0.1,0-0.1-0.1-0.2c-1.1-2.7-3.6-4.6-6.7-4.8c-0.1,0-0.2,0-0.3,0l-17.8,0l-17.8,0c-0.1,0-0.2,0-0.3,0c-3,0.1-5.6,2.1-6.7,4.8
						c0,0.1,0,0.1-0.1,0.2c-0.1,0.3-0.2,0.6-0.3,0.9l-7.1,21.7c-4,14.3-7,18-16,25.3l-1.1,0.9c-2,1.3-3.3,3.6-3.3,6.2
						c0,2.7,1.4,5,3.5,6.4c0.3,0.2,0.6,0.4,0.9,0.5h0c0,0,0.1,0,0.1,0c0.3,0.1,0.5,0.2,0.8,0.3c11.9,4.5,23.9,7.2,35.8,8.3
						c1.8,3.9,6.3,6.6,11.5,6.6c5.3,0,9.8-2.8,11.5-6.6c11.9-1,23.9-3.7,35.8-8.3c0.3-0.1,0.5-0.2,0.8-0.3c0,0,0.1,0,0.1,0l0,0
						c0.3-0.1,0.6-0.3,0.9-0.5c2.1-1.3,3.5-3.7,3.5-6.4C202.7,263.6,201.4,261.3,199.4,260z M191.6,266.3c-13.1,4.6-26.5,7-40.5,7.2
						l-1.1,0h0l0,0l0,0l0,0v0l0,0h-1.1c-14-0.2-27.3-2.6-40.5-7.1c0,0-0.7-0.2-0.7-0.9c0-0.4,0.2-0.7,0.5-0.8v0
						C121.7,256.3,126,236,126,236l6-19.7l0-0.1c0.4-1.2,1.5-2.1,2.8-2.1v0l15.1,0l0,0l0,0l15,0v0c1.3,0,2.4,0.9,2.8,2.1l0,0.1
						l6,19.7c0,0,4.3,20.3,17.7,28.7l0,0c0.3,0.1,0.5,0.4,0.5,0.8C192.2,266.1,191.6,266.3,191.6,266.3z"/>
					<path id="XMLID_118_" class="st2" d="M280.7,168.7c-0.1-2.5-1.4-4.9-3.7-6.2c-2.2-1.3-4.9-1.3-7.1-0.2l-1.4,0.5
						c-10.8,4.1-15.5,5-29.9,1.2l-22.3-4.7c-0.3-0.1-0.6-0.2-0.9-0.2c-0.1,0-0.1,0-0.2,0c-2.9-0.4-5.8,0.8-7.5,3.4
						c-0.1,0.1-0.1,0.1-0.2,0.2l-8.9,15.4l-8.9,15.4c0,0.1-0.1,0.2-0.1,0.2c-1.4,2.7-1,5.9,0.8,8.2c0,0.1,0.1,0.1,0.1,0.2
						c0.2,0.2,0.4,0.5,0.6,0.7l15.2,17c10.4,10.6,12.1,15.1,13.9,26.5l0.2,1.4c0.2,2.4,1.5,4.7,3.7,6c2.3,1.3,5.1,1.3,7.3,0.1
						c0.3-0.1,0.6-0.3,0.9-0.5v0c0,0,0.1-0.1,0.1-0.1c0.2-0.2,0.4-0.3,0.7-0.5c9.9-8,18.2-17.1,25.1-26.9c4.2,0.4,8.9-2.1,11.5-6.7
						c2.6-4.6,2.5-9.9,0-13.3c5.1-10.8,8.7-22.6,10.7-35.1c0.1-0.3,0.1-0.6,0.1-0.8c0,0,0-0.1,0-0.1h0
						C280.8,169.4,280.8,169.1,280.7,168.7z M271.5,172.2c-2.6,13.7-7.2,26.4-14,38.6l-0.5,0.9h0l0,0l0,0l0,0h0l0,0l-0.5,0.9
						c-7.1,12-15.9,22.4-26.4,31.5c0,0-0.5,0.5-1.1,0.2c-0.3-0.2-0.5-0.5-0.4-0.9h0c-0.6-15.8-15.9-29.7-15.9-29.7l-14-15.1
						l-0.1-0.1c-0.8-0.9-1-2.3-0.4-3.5l0,0l7.5-13v0l0,0l7.5-13l0,0c0.7-1.2,2-1.7,3.2-1.4l0.1,0l20.1,4.6c0,0,19.7,6.4,33.7-1h0
						c0.3-0.2,0.6-0.2,1-0.1C271.7,171.5,271.5,172.2,271.5,172.2z"/>
					<path id="XMLID_115_" class="st2" d="M190.6,97.9c0,0-0.1,0.1-0.1,0.2c-1.8,2.3-2.2,5.5-0.8,8.2c0,0.1,0.1,0.2,0.1,0.2
						l8.9,15.4l8.9,15.4c0,0.1,0.1,0.1,0.2,0.2c1.6,2.6,4.6,3.8,7.5,3.4c0.1,0,0.1,0,0.2,0c0.3-0.1,0.6-0.1,0.9-0.2l22.4-4.7
						c14.4-3.7,19.1-2.9,29.9,1.2l1.4,0.5c2.2,1.1,4.8,1.1,7.1-0.2c2.3-1.3,3.6-3.7,3.7-6.2c0-0.3,0-0.7,0-1v0c0,0,0-0.1,0-0.1
						c0-0.3-0.1-0.6-0.1-0.8c-2-12.5-5.7-24.3-10.7-35.2c2.5-3.4,2.6-8.7,0-13.3c-2.6-4.6-7.3-7.1-11.5-6.7
						c-6.9-9.8-15.2-18.9-25.1-26.9c-0.2-0.2-0.4-0.4-0.7-0.5c0,0-0.1-0.1-0.1-0.1l0,0c-0.3-0.2-0.6-0.4-0.9-0.5
						c-2.2-1.2-4.9-1.2-7.3,0.1c-2.3,1.3-3.6,3.6-3.7,6l-0.2,1.4c-1.8,11.5-3.4,15.9-13.9,26.5l-15.2,17
						C191,97.4,190.8,97.7,190.6,97.9z M198.4,101.4L198.4,101.4l14.1-15.2c0,0,15.4-13.9,16-29.7l0,0c0-0.3,0.1-0.7,0.4-0.9
						c0.6-0.3,1.1,0.2,1.1,0.2c10.5,9.1,19.3,19.4,26.4,31.5l0.5,0.9v0h0v0l0,0l0,0h0l0.5,0.9c6.9,12.2,11.4,25,14,38.6
						c0,0,0.2,0.7-0.4,1c-0.3,0.2-0.7,0.1-1-0.1l0,0c-14-7.4-33.7-1-33.7-1l-20.1,4.6l-0.1,0c-1.2,0.3-2.5-0.3-3.2-1.4l0,0l-7.5-13
						l0,0l0,0l-7.5-13l0,0C197.3,103.7,197.5,102.3,198.4,101.4z"/>
				</g>
				<rect id="XMLID_98_" x="137" y="139.3" class="st3" width="4.6" height="4.8"/>
				<rect id="XMLID_97_" x="137" y="125.6" class="st3" width="4.6" height="3.9"/>
				<path id="XMLID_96_" class="st2" d="M194,154.1h-1.6h-4h-12.8v6.3h11.1h1.2l-0.4,1.2c-5.3,16.4-20.4,27.5-37.6,27.5
					c-17.2,0-32.4-11-37.6-27.5l-0.4-1.2h1.2h11.1v-6.3h-12.8h-3.9H106c-1.2,0-2.2,1-2.2,2.2c0,0,0,0.1,0,0.1
					c1.5,10.4,6.6,20,14.4,27.3c8.7,8.1,20,12.5,31.9,12.5c11.9,0,23.2-4.5,31.9-12.5c7.8-7.3,12.8-16.8,14.4-27.3
					c0-0.1,0-0.1,0-0.2C196.2,155.1,195.3,154.1,194,154.1z"/>
				<path id="XMLID_95_" class="st2" d="M196.2,142.8c0-0.1,0-0.1,0-0.2c-1.6-10.4-6.6-20-14.4-27.3c-7.3-6.8-16.4-11-26.2-12.2v7.3
					c14.8,2.1,27.2,12.5,31.9,27.1l0.4,1.2h-1.2h-11.1v6.3h12.8h4h1.6C195.3,145.1,196.2,144.1,196.2,142.8z"/>
				<path id="XMLID_93_" class="st2" d="M106,145.1h1.7h3.9h12.8v-6.3h-11.1H112l0.4-1.2c4.7-14.6,17.1-24.9,31.8-27.1v-7.3
					c-9.7,1.2-18.8,5.4-26.1,12.2c-7.8,7.3-12.8,16.9-14.4,27.3c0,0.1,0,0.1,0,0.2C103.7,144.1,104.7,145.1,106,145.1z"/>
				<path id="XMLID_92_" class="st2" d="M133.7,175.3v4.4c9.8-2.5,14.5-7.9,16.7-12.5c2.3,4.6,6.9,9.9,16.5,12.4v-4.4
					c-11.2-3.4-13.7-11-14.3-14.4h0.3c1.5,0,13.2,0,13.2,0v-4.3c0,0-12.4,0-13.6,0v-0.2v-5.8h-4.2v1.9v3.9v0.2c-1.1,0-14.3,0-14.3,0
					v4.3c0,0,12.5,0,13.8,0h0.3C147.6,164.3,145,172,133.7,175.3z"/>
				<path id="XMLID_91_" class="st2" d="M155.3,124l-6.3,0c-0.5,0-0.8,0.4-0.8,0.8l0,18.9l3.6,0v-16.9h3.5v20.7h3.9v-20.7l3.7,0
					v16.9h3.5v-18.9c0-0.5-0.4-0.8-0.8-0.8l-6.3,0v-2.9h7.8v-2.9H147v2.9h8.2V124z"/>
				<path class="st2" d="M138.7,122.5c1.7-1.6,2.2-4.3,2.2-4.3h-3.8c0,0-0.3,2.8-1.5,4.4h-1.2c-0.5,0-0.8,0.4-0.8,0.8v22.8
					c0,0.5,0.4,0.8,0.8,0.8h9.8c0.5,0,0.8-0.4,0.8-0.8v-9.4c0-0.5-0.4-0.8-0.8-0.8l-7.1,0v-3l7.1,0c0.5,0,0.8-0.4,0.8-0.8l0-8.7
					c0-0.5-0.4-0.8-0.8-0.8L138.7,122.5z M141.6,139.3v4.8H137v-4.8H141.6z M141.6,129.5H137v-3.9h4.6V129.5z"/>
			</g>
		</g>
	</g>
</g>
</svg>
