<?xml version="1.0" encoding="utf-8"?>
<!-- Generator: Adobe Illustrator 16.0.0, SVG Export Plug-In . SVG Version: 6.00 Build 0)  -->
<!DOCTYPE svg PUBLIC "-//W3C//DTD SVG 1.1//EN" "http://www.w3.org/Graphics/SVG/1.1/DTD/svg11.dtd">
<svg version="1.1" id="圖層_1" xmlns="http://www.w3.org/2000/svg" xmlns:xlink="http://www.w3.org/1999/xlink" x="0px" y="0px"
	 width="300px" height="300px" viewBox="0 0 300 300" enable-background="new 0 0 300 300" xml:space="preserve">
<g>
	<path fill="#FFFFFF" d="M288.853,131.627C284.941,58.307,224.423,0.001,150.12,0.001c-74.302,0-134.826,58.305-138.731,131.626
		h-0.171c0,0-0.74,7.383,0.377,18.949c3.116,38.154,21.553,71.927,49.229,95.129c0.1,0.1,0.185,0.178,0.277,0.256
		c0.49,0.413,1.017,0.812,1.508,1.224c39.029,33.068,107.229,58.611,226.413,51.669L288.853,131.627z"/>
	<path fill="#675F91" d="M274.186,133.58c-3.5-65.582-57.63-117.738-124.079-117.738c-66.45,0-120.58,52.156-124.072,117.738h-0.149
		c0,0-0.668,6.597,0.327,16.925c2.789,34.128,19.276,64.345,44.029,85.093c0.093,0.078,0.164,0.149,0.257,0.234
		c0.44,0.37,0.896,0.719,1.351,1.082c34.896,29.575,95.884,52.423,202.479,46.22L274.186,133.58z"/>
	<g>
		<g>
			<path fill="#FFFFFF" d="M142.033,109.591h50.296v18.906H157.29l-4.381,19.49c1.216-0.342,2.411-0.594,3.577-0.769
				c1.167-0.167,2.283-0.252,3.357-0.252c9.73,0,17.818,3.326,24.27,9.961c6.452,6.644,9.674,15.144,9.674,25.515
				c0,10.463-3.563,19.283-10.698,26.46c-7.127,7.178-15.798,10.77-26.02,10.77c-9.154,0-17.007-2.604-23.579-7.811
				c-6.572-5.206-10.876-12.334-12.917-21.396h21.46c1.65,3.364,3.834,5.903,6.529,7.632c2.703,1.729,5.684,2.597,8.941,2.597
				c4.53,0,8.372-1.636,11.537-4.894s4.744-7.447,4.744-12.562c0-4.958-1.472-9.034-4.417-12.221
				c-2.944-3.187-6.508-4.779-10.69-4.779c-2.241,0-4.446,0.555-6.608,1.679c-2.17,1.116-4.296,2.795-6.388,5.035l-16.644-3.727
				L142.033,109.591z"/>
		</g>
	</g>
</g>
</svg>
