<?xml version="1.0" encoding="utf-8"?>
<!-- Generator: Adobe Illustrator 16.0.0, SVG Export Plug-In . SVG Version: 6.00 Build 0)  -->
<!DOCTYPE svg PUBLIC "-//W3C//DTD SVG 1.1//EN" "http://www.w3.org/Graphics/SVG/1.1/DTD/svg11.dtd">
<svg version="1.1" id="圖層_1" xmlns="http://www.w3.org/2000/svg" xmlns:xlink="http://www.w3.org/1999/xlink" x="0px" y="0px"
	 width="300px" height="300px" viewBox="0 0 300 300" enable-background="new 0 0 300 300" xml:space="preserve">
<g>
	<path fill="#FFFFFF" d="M288.852,131.627C284.94,58.307,224.422,0.001,150.12,0.001c-74.302,0-134.826,58.305-138.731,131.626
		h-0.171c0,0-0.74,7.383,0.377,18.949c3.116,38.154,21.553,71.927,49.229,95.129c0.1,0.1,0.185,0.178,0.277,0.256
		c0.49,0.413,1.017,0.812,1.508,1.224c39.029,33.068,107.228,58.611,226.414,51.669L288.852,131.627z"/>
	<path fill="#E1B539" d="M274.185,133.58c-3.5-65.582-57.63-117.738-124.079-117.738c-66.45,0-120.58,52.156-124.072,117.738h-0.149
		c0,0-0.668,6.597,0.327,16.925C29,184.633,45.488,214.85,70.241,235.598c0.093,0.078,0.164,0.149,0.257,0.234
		c0.44,0.37,0.896,0.719,1.351,1.082c34.896,29.575,95.883,52.423,202.478,46.22L274.185,133.58z"/>
	<g>
		<g>
			<path fill="#FFFFFF" d="M145.462,136.087h-19.636c1.021-7.931,3.869-14.304,8.539-19.123
				c6.522-6.715,14.717-10.076,24.603-10.076c8.807,0,16.189,2.799,22.15,8.397c5.961,5.594,8.948,12.238,8.948,19.927
				c0,4.769-1.31,9.126-3.912,13.066c-2.604,3.94-6.388,7.134-11.353,9.567c6.529,1.941,11.622,5.335,15.293,10.179
				c3.677,4.844,5.52,10.549,5.52,17.121c0,9.631-3.557,17.797-10.662,24.482c-7.106,6.701-16.154,10.044-27.15,10.044
				c-10.417,0-18.91-3.151-25.478-9.46c-6.573-6.296-10.172-14.874-10.805-25.729h20.219c0.878,5.549,2.813,9.674,5.804,12.37
				c2.991,2.703,6.775,4.054,11.355,4.054c4.767,0,8.721-1.536,11.857-4.595c3.138-3.072,4.709-6.814,4.709-11.238
				c0-4.865-2.112-8.983-6.352-12.341c-4.232-3.357-10.343-5.086-18.323-5.186v-17.512c4.915-0.398,8.578-1.159,10.989-2.305
				c2.412-1.142,4.275-2.71,5.619-4.708c1.338-1.995,2.006-4.111,2.006-6.349c0-2.92-1.017-5.342-3.065-7.266
				c-2.041-1.921-4.723-2.881-8.023-2.881c-2.923,0-5.576,0.886-7.966,2.664C147.969,130.966,146.336,133.267,145.462,136.087z"/>
		</g>
	</g>
</g>
</svg>
