<?xml version="1.0" encoding="utf-8"?>
<!-- Generator: Adobe Illustrator 16.0.0, SVG Export Plug-In . SVG Version: 6.00 Build 0)  -->
<!DOCTYPE svg PUBLIC "-//W3C//DTD SVG 1.1//EN" "http://www.w3.org/Graphics/SVG/1.1/DTD/svg11.dtd">
<svg version="1.1" id="圖層_1" xmlns="http://www.w3.org/2000/svg" xmlns:xlink="http://www.w3.org/1999/xlink" x="0px" y="0px"
	 width="300px" height="300px" viewBox="0 0 300 300" enable-background="new 0 0 300 300" xml:space="preserve">
<g>
	<path fill="#FFFFFF" d="M288.852,131.629C284.94,58.305,224.423,0,150.12,0C75.818,0,15.293,58.305,11.388,131.629h-0.17
		c0,0-0.74,7.384,0.377,18.949c3.115,38.154,21.552,71.927,49.229,95.129c0.1,0.1,0.185,0.171,0.278,0.257
		c0.491,0.412,1.017,0.811,1.508,1.223c39.029,33.062,107.229,58.611,226.414,51.669L288.852,131.629z"/>
	<path fill="#D4655C" d="M274.185,133.578C270.686,67.996,216.556,15.84,150.106,15.84S29.527,67.996,26.034,133.578h-0.149
		c0,0-0.669,6.601,0.327,16.929c2.788,34.128,19.276,64.345,44.029,85.086c0.092,0.085,0.164,0.156,0.256,0.242
		c0.441,0.369,0.896,0.711,1.352,1.081c34.896,29.575,95.884,52.423,202.479,46.22L274.185,133.578z"/>
	<g>
		<g>
			<path fill="#FFFFFF" d="M143.125,144.19h-19.927c0.537-11.58,4.172-20.698,10.915-27.339c6.739-6.644,15.389-9.965,25.952-9.965
				c6.516,0,12.276,1.376,17.256,4.125c4.993,2.75,8.983,6.715,11.979,11.896c2.987,5.186,4.488,10.456,4.488,15.806
				c0,6.373-1.814,13.244-5.441,20.585c-3.628,7.354-10.257,16.032-19.902,26.062l-12.05,12.704h38.269v18.906h-74.385v-9.787
				l33.215-33.872c8.03-8.123,13.372-14.653,16.018-19.59c2.661-4.943,3.983-9.41,3.983-13.4c0-4.14-1.38-7.554-4.125-10.257
				c-2.746-2.703-6.288-4.055-10.62-4.055c-4.382,0-8.03,1.636-10.95,4.894S143.32,138.593,143.125,144.19z"/>
		</g>
	</g>
</g>
</svg>
