<?xml version="1.0" encoding="utf-8"?>
<!-- Generator: Adobe Illustrator 16.0.0, SVG Export Plug-In . SVG Version: 6.00 Build 0)  -->
<!DOCTYPE svg PUBLIC "-//W3C//DTD SVG 1.1//EN" "http://www.w3.org/Graphics/SVG/1.1/DTD/svg11.dtd">
<svg version="1.1" id="圖層_1" xmlns="http://www.w3.org/2000/svg" xmlns:xlink="http://www.w3.org/1999/xlink" x="0px" y="0px"
	 width="300px" height="300px" viewBox="0 0 300 300" enable-background="new 0 0 300 300" xml:space="preserve">
<g>
	<path fill="#FFFFFF" d="M288.853,131.627C284.941,58.307,224.423,0.001,150.121,0.001c-74.303,0-134.834,58.305-138.732,131.626
		h-0.17c0,0-0.74,7.383,0.37,18.949c3.116,38.154,21.553,71.927,49.236,95.129c0.1,0.1,0.185,0.178,0.271,0.256
		c0.498,0.413,1.024,0.812,1.508,1.224c39.036,33.068,107.235,58.611,226.421,51.669L288.853,131.627z"/>
	<path fill="#3F9979" d="M274.186,133.58c-3.5-65.582-57.63-117.738-124.079-117.738S29.527,67.998,26.028,133.58h-0.142
		c0,0-0.668,6.597,0.327,16.925c2.788,34.128,19.276,64.345,44.03,85.093c0.085,0.078,0.156,0.149,0.256,0.234
		c0.44,0.37,0.896,0.719,1.352,1.082c34.896,29.575,95.883,52.423,202.479,46.22L274.186,133.58z"/>
	<g>
		<g>
			<path fill="#FFFFFF" d="M166.616,106.888h20.371v69.131h9.567v18.906h-9.567v22.043h-19.994v-22.043h-46.868V176.02
				L166.616,106.888z M166.993,176.02v-35.988l-24.529,35.988H166.993z"/>
		</g>
	</g>
</g>
</svg>
