<?xml version="1.0" encoding="utf-8"?>
<!-- Generator: Adobe Illustrator 16.0.0, SVG Export Plug-In . SVG Version: 6.00 Build 0)  -->
<!DOCTYPE svg PUBLIC "-//W3C//DTD SVG 1.1//EN" "http://www.w3.org/Graphics/SVG/1.1/DTD/svg11.dtd">
<svg version="1.1" id="圖層_1" xmlns="http://www.w3.org/2000/svg" xmlns:xlink="http://www.w3.org/1999/xlink" x="0px" y="0px"
	 width="300px" height="300px" viewBox="0 0 300 300" enable-background="new 0 0 300 300" xml:space="preserve">
<g>
	<path fill="#FFFFFF" d="M288.852,131.624C284.939,58.306,224.421,0,150.122,0C75.819,0,15.294,58.306,11.39,131.624h-0.171
		c0,0-0.739,7.387,0.377,18.945c3.115,38.148,21.553,71.935,49.229,95.138c0.1,0.084,0.185,0.17,0.277,0.256
		c0.491,0.412,1.017,0.811,1.508,1.223c39.029,33.063,107.229,58.611,226.413,51.67L288.852,131.624z"/>
	<path fill="#2883BE" d="M274.188,133.576C270.689,67.993,216.559,15.84,150.112,15.84c-66.45,0-120.581,52.153-124.073,117.736
		h-0.15c0,0-0.668,6.604,0.328,16.939c2.789,34.122,19.276,64.336,44.03,85.086c0.092,0.078,0.164,0.15,0.256,0.234
		c0.441,0.355,0.896,0.711,1.352,1.082c34.896,29.576,95.884,52.422,202.478,46.221L274.188,133.576z"/>
	<g>
		<g>
			<path fill="#FFFFFF" d="M141.666,100.637h30.585v107.379h-20.293v-88.181H129.84L141.666,100.637z"/>
		</g>
	</g>
</g>
</svg>
