<?xml version="1.0" encoding="utf-8"?>
<!-- Generator: Adobe Illustrator 26.5.3, SVG Export Plug-In . SVG Version: 6.00 Build 0)  -->
<svg version="1.1" id="圖層_1" xmlns="http://www.w3.org/2000/svg" xmlns:xlink="http://www.w3.org/1999/xlink" x="0px" y="0px"
	 viewBox="0 0 30 30" style="enable-background:new 0 0 30 30;" xml:space="preserve">
<style type="text/css">
	.st0{fill:#37A9FF;}
</style>
<path class="st0" d="M15,30c8.3,0,15-6.7,15-15S23.3,0,15,0S0,6.7,0,15S6.7,30,15,30z M9.6,19.1c1,1.2,2.8,2.5,5.4,2.5
	s4.3-1.3,5.4-2.5c0.3-0.4,0.9-0.4,1.3-0.1c0.4,0.3,0.4,0.9,0.1,1.3c-1.3,1.5-3.6,3.1-6.8,3.1s-5.5-1.6-6.8-3.1
	c-0.3-0.4-0.3-1,0.1-1.3C8.7,18.6,9.3,18.7,9.6,19.1z M8.5,12.2c0-1,0.8-1.9,1.9-1.9s1.9,0.8,1.9,1.9s-0.8,1.9-1.9,1.9
	S8.5,13.2,8.5,12.2z M19.7,10.3c1,0,1.9,0.8,1.9,1.9s-0.8,1.9-1.9,1.9c-1,0-1.9-0.8-1.9-1.9S18.7,10.3,19.7,10.3z"/>
</svg>
