<?xml version="1.0" encoding="utf-8"?>
<!-- Generator: Adobe Illustrator 26.5.3, SVG Export Plug-In . SVG Version: 6.00 Build 0)  -->
<svg version="1.1" id="圖層_1" xmlns="http://www.w3.org/2000/svg" xmlns:xlink="http://www.w3.org/1999/xlink" x="0px" y="0px"
	 viewBox="0 0 30 30" style="enable-background:new 0 0 30 30;" xml:space="preserve">
<style type="text/css">
	.st0{fill:#EDB300;}
</style>
<path class="st0" d="M16.6,1.5c-0.3-0.6-0.9-1-1.6-1s-1.3,0.4-1.6,1L9.7,9l-8.2,1.2c-0.7,0.1-1.2,0.6-1.5,1.2
	c-0.2,0.7,0,1.4,0.4,1.9l5.9,5.9l-1.4,8.3c-0.1,0.7,0.2,1.4,0.7,1.8c0.6,0.4,1.3,0.5,1.9,0.1l7.3-3.9l7.3,3.9
	c0.6,0.3,1.4,0.3,1.9-0.1c0.6-0.4,0.8-1.1,0.7-1.8l-1.4-8.3l5.9-5.9c0.5-0.5,0.7-1.2,0.4-1.9c-0.2-0.7-0.8-1.1-1.5-1.2L20.3,9
	L16.6,1.5z"/>
</svg>
