<?xml version="1.0" encoding="utf-8"?>
<!-- Generator: Adobe Illustrator 16.0.0, SVG Export Plug-In . SVG Version: 6.00 Build 0)  -->
<!DOCTYPE svg PUBLIC "-//W3C//DTD SVG 1.1//EN" "http://www.w3.org/Graphics/SVG/1.1/DTD/svg11.dtd">
<svg version="1.1" id="圖層_1" xmlns="http://www.w3.org/2000/svg" xmlns:xlink="http://www.w3.org/1999/xlink" x="0px" y="0px"
	 width="300px" height="300px" viewBox="0 0 300 300" enable-background="new 0 0 300 300" xml:space="preserve">
<g>
	<g>
		
			<image overflow="visible" opacity="0.75" width="1307" height="793" xlink:href="62C9D54B.png"  transform="matrix(0.24 0 0 0.24 -6.958 55.543)">
		</image>
		<g>
			<g>
				<g>
					<g>
						<path fill="#FFFFFF" d="M227.949,135.95l-13.784,31.759c0,0,18.539-13.699,35.984,3.987l10.483-35.068
							C243.833,120.832,227.949,135.95,227.949,135.95z"/>
						<path fill="#FFFFFF" d="M251.143,175.68l-2.484-2.513c-5.511-5.593-11.688-8.424-18.36-8.424
							c-8.44,0-14.83,4.604-14.896,4.648l-6.227,4.56l17.331-39.517c0.307-0.29,7.574-7.099,17.76-7.099
							c6.328,0,12.317,2.613,17.801,7.769l0.939,0.885L251.143,175.68z M230.298,160.56c6.807,0,13.123,2.455,18.814,7.313
							l9.139-30.578c-4.408-3.834-9.106-5.775-13.984-5.775c-7.439,0-13.237,4.541-14.581,5.689l-11.202,25.806
							C221.519,161.744,225.608,160.56,230.298,160.56z"/>
					</g>
					
						<image overflow="visible" width="194" height="177" xlink:href="62C9D549.png"  transform="matrix(0.24 0 0 0.24 214.1563 129.4287)">
					</image>
					<g>
						<path fill="#FFFFFF" d="M260.633,136.628l-10.483,35.068c0,0,21.465-17.188,32.929,0.997l14.308-33.095
							C276.729,117.147,260.633,136.628,260.633,136.628z"/>
						<path fill="#FFFFFF" d="M246.235,177.493l12.784-42.197c0.29-0.351,7.23-8.602,18.103-8.602
							c7.456,0,14.789,3.865,21.804,11.489l0.92,0.999l-16.42,37.98l-2.116-3.354c-3.13-4.96-7.19-7.375-12.42-7.375
							c-8.689,0-17.347,6.827-17.433,6.896L246.235,177.493z M268.89,162.251c5.482,0,10.083,2.111,13.711,6.279l12.317-28.497
							c-5.887-6.075-11.868-9.156-17.796-9.156c-7.819,0-13.376,5.46-14.618,6.796l-8.706,29.124
							C257.589,164.657,263.129,162.251,268.89,162.251z"/>
					</g>
					
						<image overflow="visible" width="197" height="183" xlink:href="62C9D54F.png"  transform="matrix(0.24 0 0 0.24 250.1484 128.7852)">
					</image>
				</g>
				<g>
					<g>
						<path fill="#FFFFFF" d="M225.44,140.24l-13.801,31.75c0,0,18.54-13.694,35.993,3.991l10.483-35.071
							C241.325,125.12,225.44,140.24,225.44,140.24z"/>
						<path fill="#FFFFFF" d="M248.626,179.965l-2.48-2.512c-5.52-5.594-11.7-8.429-18.372-8.429
							c-8.502,0-14.826,4.601-14.892,4.649l-6.268,4.629l17.384-39.579c0.307-0.29,7.579-7.103,17.764-7.103
							c6.324,0,12.31,2.613,17.788,7.765l0.94,0.884L248.626,179.965z M227.773,164.841c6.807,0,13.127,2.459,18.817,7.317
							l9.144-30.582c-4.404-3.831-9.099-5.771-13.973-5.771c-7.443,0-13.241,4.545-14.589,5.693l-11.211,25.797
							C218.993,166.025,223.083,164.841,227.773,164.841z"/>
					</g>
					
						<image overflow="visible" width="194" height="177" xlink:href="62C9D548.png"  transform="matrix(0.24 0 0 0.24 211.6406 133.7104)">
					</image>
					<g>
						<path fill="#FFFFFF" d="M258.116,140.91l-10.483,35.071c0,0,21.474-17.195,32.921,0.997l14.324-33.096
							C274.213,121.428,258.116,140.91,258.116,140.91z"/>
						<path fill="#FFFFFF" d="M243.711,181.804l12.792-42.226c0.29-0.352,7.23-8.6,18.106-8.6c7.456,0,14.794,3.865,21.809,11.489
							l0.919,0.999l-16.44,37.987l-2.111-3.358c-3.126-4.964-7.183-7.374-12.408-7.374c-8.723,0-17.351,6.827-17.437,6.896
							L243.711,181.804z M266.377,166.536c5.482,0,10.075,2.108,13.699,6.279l12.334-28.5c-5.892-6.075-11.877-9.154-17.801-9.154
							c-7.824,0-13.38,5.458-14.622,6.794l-8.706,29.127C255.072,168.938,260.612,166.536,266.377,166.536z"/>
					</g>
					
						<image overflow="visible" width="197" height="183" xlink:href="62C9D546.png"  transform="matrix(0.24 0 0 0.24 247.6406 133.0688)">
					</image>
				</g>
				<g>
					<g>
						<path fill="#FFFFFF" d="M36.92,222.091c0,0,5.237-45.599,23.23-63.583c0,0,16.179-16.862,42.865-1.438
							c0,0,17.707,14.074,27.185,64.947L36.92,222.091z"/>
						<path fill="#FFFFFF" d="M34.575,224.183l0.268-2.329c0.217-1.892,5.53-46.533,23.829-64.824
							c0.307-0.318,8.367-8.553,22.499-8.553c7.405,0,15.106,2.282,22.891,6.784c1.003,0.768,18.683,15.32,28.196,66.372
							l0.459,2.477L34.575,224.183z M81.17,152.662c-12.279,0-19.445,7.227-19.515,7.301
							c-15.004,14.993-20.989,50.586-22.345,60.036l88.361-0.073c-9.325-47.527-25.79-61.082-25.958-61.218
							C94.828,154.754,87.829,152.662,81.17,152.662z"/>
					</g>
					<g>
						<g>
							<path fill="#FFFFFF" d="M50.688,140.167c0,0-0.866,8.937,9.993,16.36c10.843,7.424,34.057,12.384,54.042-8.173l6.888-42.133
								c0,0-15.843-0.613-20.035-20.419c0,0-20.942,23.228-53.643,19.277L50.688,140.167z"/>
							<path fill="#FFFFFF" d="M82.583,165.062c0,0,0,0-0.002,0c-8.351-0.004-16.765-2.484-23.081-6.811
								c-11.746-8.026-10.935-17.872-10.894-18.287l-2.958-37.27l2.537,0.307c2.4,0.29,4.827,0.437,7.211,0.437
								c0.002,0,0.004,0,0.006,0c27.066-0.002,44.45-18.849,44.622-19.041l2.75-3.036l0.85,4.006
								c3.783,17.88,17.496,18.734,18.078,18.763l2.343,0.11l-7.362,45.1l-0.459,0.472
								C103.971,162.414,91.169,165.062,82.583,165.062z M50.216,107.411l2.558,32.592c-0.026,0.666-0.515,8.232,9.088,14.796
								c2.668,1.83,10.028,6.075,20.719,6.079h0.002c7.672,0,19.091-2.361,30.184-13.517l6.44-39.4
								c-4.537-0.976-14.495-4.633-18.74-18.139c-6.073,5.531-22.129,17.798-45.065,17.8
								C53.648,107.617,51.95,107.552,50.216,107.411z"/>
						</g>
						
							<image overflow="visible" width="307" height="322" xlink:href="62C9D547.png"  transform="matrix(0.24 0 0 0.24 47.9414 85.8008)">
						</image>
					</g>
					<g>
						<g>
							<path fill="#FFFFFF" d="M98.169,84.81c0,0,31-1.567,25.51,40.424c0,0-28.974-9.294-27.838-31.276
								C95.841,93.958,94.876,94.67,98.169,84.81z"/>
							<path fill="#FFFFFF" d="M125.428,127.992l-2.388-0.766c-1.232-0.394-29.871-9.85-29.315-32.635
								c-0.345-0.913-0.098-2.78,2.461-10.442l0.449-1.351l1.959-0.088c2.063,0,12.73,0.434,20.228,8.974
								c6.557,7.47,8.89,18.85,6.931,33.822L125.428,127.992z M98.006,92.581l-0.075,1.485
								c-0.856,16.538,17.302,25.53,23.976,28.265c1.219-12.412-0.873-21.784-6.229-27.887c-5.458-6.218-12.953-7.328-16.005-7.513
								C98.696,89.927,98.231,91.631,98.006,92.581z"/>
						</g>
						
							<image overflow="visible" width="120" height="169" xlink:href="62C9D557.png"  transform="matrix(0.24 0 0 0.24 95.71 84.7974)">
						</image>
					</g>
					<g>
						<g>
							<path fill="#FFFFFF" d="M102.794,85.229c0,0-25.371-20.292-48.601,0.411c-18.949,16.901-12.542,35.092-12.542,35.092
								S106.259,115.621,102.794,85.229z"/>
							<path fill="#FFFFFF" d="M40.213,122.944l-0.535-1.518c-0.28-0.796-6.645-19.716,13.123-37.347
								c7.327-6.531,15.606-9.84,24.607-9.84c14.824,0,26.216,8.974,26.694,9.356l0.674,0.539l0.096,0.858
								c0.685,5.993-0.999,11.494-5,16.35c-14.71,17.854-56.292,21.336-58.055,21.475L40.213,122.944z M77.407,78.422
								c-7.944,0-15.286,2.954-21.823,8.778c-14.683,13.098-13.355,26.721-12.373,31.278c7.987-0.856,41.449-5.25,53.434-19.798
								c3.095-3.759,4.459-7.799,4.151-12.328C98.225,84.522,88.787,78.422,77.407,78.422z"/>
						</g>
						
							<image overflow="visible" width="260" height="186" xlink:href="62C9D559.png"  transform="matrix(0.24 0 0 0.24 40.6104 76.3232)">
						</image>
					</g>
				</g>
				<g>
					<path fill="#FFFFFF" d="M234.886,222.091c0,0-5.245-45.599-23.238-63.583c0,0-16.17-16.862-42.864-1.438
						c0,0-17.707,14.074-27.177,64.947L234.886,222.091z"/>
					<path fill="#FFFFFF" d="M237.231,224.183l-98.142-0.073l0.459-2.477c9.505-51.052,27.183-65.604,27.93-66.201
						c8.045-4.673,15.75-6.955,23.152-6.955c14.132,0,22.188,8.234,22.527,8.586c18.267,18.258,23.586,62.899,23.807,64.787
						L237.231,224.183z M144.135,219.926l88.361,0.073c-1.356-9.45-7.346-45.038-22.327-60.012
						c-0.098-0.099-7.26-7.325-19.537-7.325c-6.659,0-13.657,2.092-20.803,6.218l0,0C169.87,158.88,153.391,172.742,144.135,219.926
						z"/>
				</g>
				<g>
					<g>
						<path fill="#FFFFFF" d="M221.118,140.167c0,0,0.857,8.937-9.993,16.36c-10.843,7.424-34.057,12.384-54.051-8.173l-6.88-42.133
							c0,0,15.835-0.613,20.027-20.419c0,0,20.942,23.228,53.651,19.277L221.118,140.167z"/>
						<path fill="#FFFFFF" d="M189.223,165.062c-8.584,0-21.392-2.647-33.648-15.249l-0.457-0.472l-7.368-45.118l2.363-0.092
							c0.574-0.028,14.278-0.882,18.062-18.763l0.851-4.006l2.749,3.036c0.172,0.192,17.556,19.041,44.63,19.041
							c2.386,0,4.816-0.147,7.219-0.437l2.533-0.307l-2.953,37.636c0.036,0.051,0.841,9.895-10.896,17.925
							C205.989,162.577,197.573,165.062,189.223,165.062z M159.031,147.361c11.096,11.156,22.519,13.517,30.191,13.517
							c10.691,0,18.054-4.249,20.722-6.075c9.597-6.567,9.114-14.136,9.09-14.455l2.558-32.937c-1.732,0.141-3.473,0.21-5.188,0.21
							c-22.944,0-39-12.269-45.071-17.798c-4.244,13.502-14.201,17.161-18.733,18.137L159.031,147.361z"/>
					</g>
					
						<image overflow="visible" width="307" height="322" xlink:href="62C9D55B.png"  transform="matrix(0.24 0 0 0.24 150.2031 85.8008)">
					</image>
				</g>
				<g>
					<g>
						<path fill="#FFFFFF" d="M191.417,84.81c0,0-31.009-1.567-25.519,40.424c0,0,28.975-9.294,27.847-31.276
							C193.745,93.958,194.701,94.67,191.417,84.81z"/>
						<path fill="#FFFFFF" d="M164.15,127.992l-0.327-2.486c-1.957-14.969,0.376-26.348,6.933-33.82
							c7.501-8.542,18.173-8.976,20.235-8.976l1.953,0.088l0.458,1.351c2.545,7.648,2.799,9.525,2.459,10.438
							c0.552,22.787-28.092,32.245-29.325,32.639L164.15,127.992z M189.917,86.945c-3.366,0.219-10.667,1.41-16.015,7.501
							c-5.356,6.102-7.448,15.474-6.23,27.881c6.676-2.746,24.831-11.758,23.985-28.263l-0.077-1.461
							C191.359,91.66,190.894,89.954,189.917,86.945z"/>
					</g>
					
						<image overflow="visible" width="120" height="169" xlink:href="472BD3E8.png"  transform="matrix(0.24 0 0 0.24 165.2578 84.7974)">
					</image>
				</g>
				<g>
					<g>
						<path fill="#FFFFFF" d="M169.004,85.229c0,0,25.362-20.292,48.608,0.411c18.957,16.901,12.551,35.092,12.551,35.092
							S165.547,115.621,169.004,85.229z"/>
						<path fill="#FFFFFF" d="M231.602,122.944L230,122.817c-1.765-0.139-43.355-3.622-58.071-21.475
							c-4-4.856-5.687-10.357-5.005-16.35l0.099-0.858l0.674-0.539c0.478-0.382,11.868-9.356,26.694-9.356
							c9.001,0,17.282,3.31,24.615,9.838c19.773,17.633,13.413,36.553,13.131,37.35L231.602,122.944z M171.001,86.353
							c-0.306,4.529,1.059,8.569,4.155,12.328c11.999,14.559,45.459,18.944,53.446,19.798c0.98-4.555,2.309-18.178-12.383-31.278
							c-6.541-5.824-13.887-8.778-21.829-8.778C183.009,78.422,173.575,84.522,171.001,86.353z"/>
					</g>
					
						<image overflow="visible" width="260" height="186" xlink:href="472BD3EF.png"  transform="matrix(0.24 0 0 0.24 168.8701 76.3232)">
					</image>
				</g>
				<g>
					<g>
						<path fill="#FFFFFF" d="M80.708,236.921c0,0,6.194-53.961,27.487-75.242c0,0,19.145-19.945,50.733-1.7
							c0,0,20.959,16.653,32.161,76.856L80.708,236.921z"/>
						<path fill="#FFFFFF" d="M78.363,239.013l0.268-2.329c0.255-2.234,6.525-54.938,28.086-76.484
							c0.364-0.38,9.795-10.003,26.355-10.003c8.694,0,17.745,2.683,26.903,7.973c1.136,0.87,21.955,18.005,33.17,78.282
							l0.462,2.476L78.363,239.013z M133.072,154.382c-14.798,0-23.283,8.657-23.367,8.747c-18.088,18.078-25.132,61.192-26.61,71.7
							l105.47-0.086c-11.034-56.751-30.734-72.967-30.938-73.126C149.369,156.874,141.022,154.382,133.072,154.382z"/>
					</g>
					<g>
						<g>
							<path fill="#FFFFFF" d="M96.993,139.987c0,0-1.013,10.563,11.824,19.351c12.845,8.779,40.307,14.646,63.971-9.673
								l8.146-49.857c0,0-18.753-0.723-23.704-24.162c0,0-24.791,27.481-63.489,22.809L96.993,139.987z"/>
							<path fill="#FFFFFF" d="M134.741,169.049h-0.002c-9.803-0.004-19.682-2.913-27.103-7.983
								c-13.699-9.38-12.771-20.797-12.725-21.279l-3.454-43.713l2.535,0.305c2.855,0.345,5.744,0.521,8.582,0.521
								c32.292-0.002,52.899-22.427,53.103-22.654l2.75-3.05l0.85,4.018c4.534,21.469,21.044,22.472,21.747,22.505l2.345,0.108
								l-8.624,52.825l-0.458,0.472C159.872,165.936,144.826,169.049,134.741,169.049z M96.022,100.794l3.056,39.029
								c-0.033,0.733-0.638,9.877,10.918,17.79c3.19,2.178,11.987,7.248,24.742,7.252c9.174,0,22.837-2.827,36.091-16.193
								l7.697-47.104c-5.152-1.025-17.449-5.197-22.426-21.857c-6.773,6.284-25.916,21.369-53.528,21.371
								C100.406,101.083,98.212,100.987,96.022,100.794z"/>
						</g>
						
							<image overflow="visible" width="364" height="381" xlink:href="472BD3E9.png"  transform="matrix(0.24 0 0 0.24 93.7422 75.6484)">
						</image>
					</g>
					<g>
						<g>
							<path fill="#FFFFFF" d="M153.185,74.468c0,0,36.696-1.853,30.191,47.837c0,0-34.285-10.984-32.953-37.006
								C150.423,85.298,149.287,86.142,153.185,74.468z"/>
							<path fill="#FFFFFF" d="M185.125,125.063l-2.386-0.766c-1.45-0.464-35.164-11.581-34.435-38.346
								c-0.372-0.968-0.129-3.083,2.896-12.145l0.449-1.35l2.037-0.088c2.414,0,14.892,0.505,23.654,10.492
								c7.686,8.755,10.414,22.117,8.11,39.717L185.125,125.063z M152.603,83.619l-0.09,1.786
								c-1.034,20.19,21.557,30.982,29.099,34.009c1.561-15.047-0.928-26.408-7.411-33.795c-6.736-7.675-16.056-8.872-19.508-9.041
								C153.46,80.339,152.878,82.449,152.603,83.619z"/>
						</g>
						
							<image overflow="visible" width="142" height="200" xlink:href="472BD3EB.png"  transform="matrix(0.24 0 0 0.24 150.2705 74.4565)">
						</image>
					</g>
					<g>
						<g>
							<path fill="#FFFFFF" d="M158.676,74.968c0,0-30.037-24.015-57.532,0.488c-22.429,19.99-14.847,41.527-14.847,41.527
								S162.761,110.935,158.676,74.968z"/>
							<path fill="#FFFFFF" d="M84.859,119.196l-0.535-1.518c-0.329-0.934-7.781-23.097,15.429-43.782
								c8.598-7.665,18.312-11.55,28.87-11.55c17.415,0,30.796,10.541,31.36,10.988l0.675,0.54l0.098,0.858
								c0.793,6.986-1.173,13.398-5.842,19.061c-17.313,21.006-66.371,25.111-68.451,25.277L84.859,119.196z M128.623,66.53
								c-9.5,0-18.278,3.53-26.088,10.487c-17.904,15.958-15.872,32.6-14.691,37.717c8.837-0.925,49.388-6.063,63.846-23.606
								c3.771-4.576,5.409-9.505,4.992-15.039C153.824,74.037,142.428,66.53,128.623,66.53z"/>
						</g>
						
							<image overflow="visible" width="308" height="219" xlink:href="472BD3F6.png"  transform="matrix(0.24 0 0 0.24 85.0679 64.4331)">
						</image>
					</g>
				</g>
				<g>
					<path fill="#FFFFFF" d="M2.038,83.049L31.78,184.427l-5.818,2.189C25.962,186.616-1.271,82.708,2.038,83.049z"/>
					<path fill="#FFFFFF" d="M24.526,189.391l-0.588-2.243C-2.67,85.615-0.554,82.87,0.245,81.838l0.627-0.815l1.15-0.065
						l1.397,0.143l0.627,1.36l30.288,103.24L24.526,189.391z M14.411,132.649c4.218,17.181,9.009,35.962,12.988,51.193l1.829-0.69
						L14.411,132.649z"/>
				</g>
				<g>
					<path fill="#FFFFFF" d="M27.319,168.175l16.113,37.782c0,0,17.772-12.783,12.224-21.669
						C50.1,175.401,28.994,155.959,27.319,168.175z"/>
					<path fill="#FFFFFF" d="M42.533,209.181l-17.365-40.716l0.08-0.576c0.707-5.168,4.304-5.724,5.818-5.724
						c8.228,0,22.35,14.593,26.364,21.016c6.512,10.426-11.985,23.904-12.775,24.476L42.533,209.181z M29.484,167.921l14.81,34.727
						c5.048-4.146,12.788-12.125,9.587-17.253c-4.374-6.994-17.298-19.046-22.815-19.046
						C30.534,166.349,29.828,166.349,29.484,167.921z"/>
				</g>
				<g>
					<path fill="#FFFFFF" d="M17.318,160.392c0,0-2.778,6.672,10.001,7.783c12.788,1.106,11.676-7.783,2.223-11.66
						C20.104,152.621,15.104,149.287,17.318,160.392z"/>
					<path fill="#FFFFFF" d="M29.402,170.36H29.4c-0.703,0-1.458-0.033-2.261-0.103c-5.746-0.498-9.521-2.178-11.223-4.984
						c-1.224-2.018-1.003-3.975-0.75-4.992c-0.774-4.143-0.568-6.573,0.668-8.081c0.548-0.668,1.573-1.465,3.344-1.465
						c2.13,0,4.741,1.115,8.353,2.662l2.809,1.185c5.715,2.345,9.182,6.668,8.424,10.512
						C38.452,166.675,36.916,170.36,29.402,170.36z M19.179,154.917c-0.162,0.017-0.642,0.891,0.19,5.066l0.125,0.625l-0.245,0.588
						c0.002,0-0.345,0.98,0.276,1.961c0.566,0.883,2.351,2.443,7.977,2.934c0.674,0.058,1.309,0.086,1.899,0.086h0.002
						c2.968,0,5.031-0.743,5.258-1.892c0.249-1.274-1.455-4.008-5.914-5.834l-2.86-1.209
						C23.092,156.049,20.453,154.917,19.179,154.917z"/>
				</g>
				<g>
					<g>
						<path fill="#FFFFFF" d="M245.549,168.175l-16.112,37.782c0,0-17.78-12.783-12.225-21.669
							C222.761,175.401,243.874,155.959,245.549,168.175z"/>
						<path fill="#FFFFFF" d="M230.335,209.181l-2.12-1.524c-0.789-0.567-19.296-14.05-12.775-24.476
							c4.008-6.419,18.123-21.016,26.363-21.016c1.512,0,5.111,0.556,5.818,5.724l0.077,0.576L230.335,209.181z M241.803,166.349
							c-5.527,0-18.45,12.052-22.817,19.046c-3.179,5.083,4.674,13.176,9.593,17.245l14.806-34.719
							C243.041,166.349,242.334,166.349,241.803,166.349z"/>
					</g>
					<g>
						<path fill="#FFFFFF" d="M255.542,160.392c0,0,2.778,6.672-9.993,7.783c-12.787,1.106-11.668-7.783-2.222-11.66
							C252.765,152.621,257.765,149.287,255.542,160.392z"/>
						<path fill="#FFFFFF" d="M243.466,170.36c-7.509,0-9.045-3.681-9.36-5.267c-0.756-3.844,2.709-8.167,8.429-10.516l2.803-1.185
							c3.611-1.543,6.222-2.658,8.351-2.658c1.773,0,2.795,0.797,3.342,1.465c1.238,1.508,1.442,3.938,0.666,8.081
							c0.254,1.018,0.474,2.975-0.752,4.997c-1.699,2.807-5.475,4.481-11.214,4.979C244.924,170.327,244.173,170.36,243.466,170.36z
							 M253.79,154.844c-1.373,0.073-4.013,1.205-6.807,2.398l-2.86,1.205c-4.457,1.83-6.165,4.567-5.911,5.838
							c0.27,1.377,3.08,2.153,7.157,1.806c5.618-0.49,7.403-2.047,7.967-2.934c0.621-0.977,0.274-1.961,0.258-2.002l-0.2-0.551
							l0.098-0.621C254.325,155.808,253.847,154.93,253.79,154.844z"/>
					</g>
				</g>
				<g>
					<g>
						<path fill="#FFFFFF" d="M149.646,125.15c0,0,2.1-8.345,6.308-4.104c4.209,4.241,2.247,15.874-2.238,14.94
							C149.254,135.074,148.666,130.696,149.646,125.15z"/>
						<path fill="#FFFFFF" d="M154.221,138.132c-0.309,0-0.621-0.033-0.932-0.096c-5.15-1.054-7.07-5.514-5.702-13.25
							c0.321-1.297,1.971-7.033,6.069-7.033c1.313,0,2.584,0.611,3.781,1.82c3.416,3.44,3.616,10.161,1.843,14.416
							C158.186,136.622,156.339,138.132,154.221,138.132z M153.652,121.937c-0.484,0.133-1.506,1.881-1.978,3.728
							c-1.321,7.499,1.328,8.04,2.46,8.273l0.086,0.01c0.178,0,0.704-0.384,1.198-1.569c1.21-2.898,1.055-7.838-0.949-9.86
							C153.928,121.974,153.656,121.937,153.652,121.937z"/>
					</g>
					
						<image overflow="visible" width="38" height="68" xlink:href="472BD3F7.png"  transform="matrix(0.24 0 0 0.24 149.2368 119.8428)">
					</image>
				</g>
				<g>
					<g>
						<path fill="#FFFFFF" d="M110.099,125.15c0,0,2.116-8.341,6.316-4.104c4.208,4.241,2.239,15.874-2.239,14.94
							C109.699,135.074,109.127,130.696,110.099,125.15z"/>
						<path fill="#FFFFFF" d="M114.679,138.132c-0.306,0-0.621-0.033-0.929-0.098c-5.144-1.048-7.068-5.505-5.711-13.245
							c0.325-1.301,1.987-7.035,6.081-7.035c1.313,0,2.584,0.613,3.781,1.82c3.411,3.438,3.609,10.158,1.838,14.414
							C118.642,136.622,116.797,138.132,114.679,138.132z M114.117,121.937c-0.486,0.133-1.514,1.881-1.992,3.732
							c-1.308,7.499,1.338,8.039,2.47,8.269l0.083,0.01c0.178,0,0.705-0.384,1.197-1.569c1.209-2.9,1.058-7.84-0.946-9.86
							C114.391,121.976,114.119,121.937,114.117,121.937z"/>
					</g>
					
						<image overflow="visible" width="38" height="68" xlink:href="472BD3F8.png"  transform="matrix(0.24 0 0 0.24 109.6978 119.8467)">
					</image>
				</g>
				<g>
					<g>
						<path fill="#FFFFFF" d="M119.757,150.693c0,0,2.508,7.382,13.751,7.382c11.251,0,13.932-6.71,13.932-6.71
							S130.331,155.897,119.757,150.693z"/>
						<path fill="#FFFFFF" d="M133.509,160.167c-12.598,0-15.61-8.442-15.733-8.802l-1.622-4.778l4.527,2.229
							c3.083,1.518,7.156,2.288,12.107,2.288c7.364,0,14.052-1.743,14.118-1.761l4.018-1.06l-1.54,3.856
							C149.252,152.47,146.033,160.167,133.509,160.167z M127.36,154.966c1.595,0.604,3.611,1.018,6.148,1.018
							c2.982,0,5.264-0.507,6.995-1.214C136.622,155.265,131.513,155.485,127.36,154.966z"/>
					</g>
					
						<image overflow="visible" width="116" height="31" xlink:href="472BD3FB.png"  transform="matrix(0.24 0 0 0.24 119.7578 150.6875)">
					</image>
					<g>
						<path fill="#FFFFFF" d="M121.187,151.7c0,0,9.241,4.218,24.66,0.314c0,0-0.253,1.452-0.817,1.828
							c-0.563,0.376-14.217,3.897-22.217-0.123C122.813,153.72,121.318,152.642,121.187,151.7z"/>
						<path fill="#FFFFFF" d="M132.68,157.72c-4.357,0-7.991-0.715-10.806-2.133c-0.952-0.653-2.529-1.948-2.758-3.599l-0.525-3.773
							l3.464,1.581c0.033,0.014,4.077,1.783,11.11,1.783c3.9,0,7.994-0.535,12.169-1.593l3.127-0.791l-0.554,3.177
							c-0.153,0.874-0.578,2.451-1.718,3.211C145.265,156.2,138.877,157.72,132.68,157.72z"/>
					</g>
					
						<image overflow="visible" width="103" height="17" xlink:href="472BD3F9.png"  transform="matrix(0.24 0 0 0.24 121.1719 151.6992)">
					</image>
				</g>
				<g>
					<g>
						<path fill="#FFFFFF" d="M127.013,174.278c0.041,0.347,0.155,0.408,0.155,0.408s0.694,2.771,1.52,3.465
							c5.426-5.426,9.544,1.373,9.544,1.373s2.876-1.618,4.379-3.317l-8.882-8.032L127.013,174.278z"/>
						<path fill="#FFFFFF" d="M137.492,182.339l-1.046-1.724c-0.051-0.082-1.609-2.472-3.499-2.472c-0.858,0-1.793,0.498-2.78,1.486
							l-1.356,1.356l-1.469-1.233c-1.07-0.903-1.759-2.9-2.114-4.217c-0.137-0.27-0.243-0.604-0.292-1.013l-0.126-1.07l8.917-8.102
							l11.823,10.691l-1.371,1.549c-1.689,1.908-4.594,3.57-4.921,3.754L137.492,182.339z M132.947,173.96
							c2.6,0,4.569,1.516,5.767,2.79c0.251-0.172,0.513-0.355,0.77-0.552l-5.75-5.2l-4.322,3.93
							c0.002,0.004,0.004,0.013,0.006,0.017C130.557,174.29,131.738,173.96,132.947,173.96z"/>
					</g>
					<g>
						<path fill="#FFFFFF" d="M138.232,181.117c0,0-4.118-6.802-9.544-1.389c0,0-4.755,12.714-4.755,26.404
							c0,0,1.659,11.599,5.18,18.65c0,0,6.725-8.27,10.818-18.753C139.931,206.03,139.703,189.043,138.232,181.117z"/>
						<path fill="#FFFFFF" d="M128.69,228.619l-1.448-2.9c-3.632-7.272-5.311-18.802-5.38-19.292
							c-0.021-14.201,4.667-26.898,4.868-27.43l0.482-0.748c1.798-1.793,3.724-2.704,5.728-2.704c4.241,0,6.804,4.028,7.082,4.49
							l0.268,0.702c1.485,8.008,1.724,24.566,1.734,25.265l0.006,0.408l-0.149,0.381c-4.165,10.667-10.861,18.965-11.145,19.312
							L128.69,228.619z M126.024,206.129c0.018,0,1.203,8.016,3.581,14.475c2.214-3.162,5.714-8.653,8.229-14.953
							c-0.047-2.573-0.35-16.587-1.581-23.72c-0.476-0.646-1.788-2.202-3.313-2.202c-0.76,0-1.583,0.392-2.447,1.172
							c-0.809,2.325-4.467,13.495-4.467,25.232V206.129z"/>
					</g>
				</g>
				<g>
					<path fill="#FFFFFF" d="M131.491,167.619l-10.001,9.449c0,0-11.112-11.95-10.548-15.006
						C111.496,159.007,131.491,167.619,131.491,167.619z"/>
					<path fill="#FFFFFF" d="M121.394,180.039l-1.436-1.545c-5.395-5.805-11.697-13.429-11.074-16.812
						c0.1-0.552,0.651-2.369,3.497-2.369c4.974,0,18.421,5.731,19.937,6.386l2.921,1.258L121.394,180.039z M113.468,163.599
						c1.223,2.239,4.649,6.594,8.132,10.487l6.114-5.776C122.873,166.353,116.64,164.098,113.468,163.599z"/>
				</g>
				<g>
					<path fill="#FFFFFF" d="M135.936,167.619l10.001,9.449c0,0,11.113-11.95,10.557-15.006S135.936,167.619,135.936,167.619z"/>
					<path fill="#FFFFFF" d="M146.033,180.039l-13.846-13.082l2.921-1.258c1.518-0.654,14.969-6.386,19.943-6.386
						c2.848,0,3.399,1.817,3.501,2.373c0.613,3.379-5.688,11.007-11.083,16.808L146.033,180.039z M139.715,168.31l6.112,5.776
						c3.411-3.815,6.768-8.081,8.052-10.43C150.482,164.224,144.429,166.405,139.715,168.31z"/>
				</g>
			</g>
		</g>
	</g>
	<g>
		<g>
			<path fill="#88ABDA" d="M223.21,136.847l-12.951,29.833c0,0,17.412-12.87,33.804,3.733l9.854-32.931
				C238.139,122.64,223.21,136.847,223.21,136.847z"/>
			
				<image overflow="visible" width="182" height="166" xlink:href="472BD3FF.png"  transform="matrix(0.24 0 0 0.24 210.25 130.7148)">
			</image>
			<path fill="#88ABDA" d="M253.916,137.482l-9.854,32.931c0,0,20.174-16.138,30.935,0.948l13.45-31.097
				C269.032,119.175,253.916,137.482,253.916,137.482z"/>
			
				<image overflow="visible" width="185" height="172" xlink:href="472BD413.png"  transform="matrix(0.24 0 0 0.24 244.0703 130.1143)">
			</image>
		</g>
		<g>
			<path fill="#004896" d="M220.849,140.867l-12.959,29.84c0,0,17.42-12.869,33.812,3.738l9.854-32.943
				C235.776,126.672,220.849,140.867,220.849,140.867z"/>
			
				<image overflow="visible" width="182" height="166" xlink:href="472BD41D.png"  transform="matrix(0.24 0 0 0.24 207.8906 134.7407)">
			</image>
			<path fill="#004896" d="M251.555,141.502l-9.854,32.943c0,0,20.174-16.149,30.927,0.936l13.458-31.088
				C266.671,123.206,251.555,141.502,251.555,141.502z"/>
			
				<image overflow="visible" width="185" height="172" xlink:href="472BD41F.png"  transform="matrix(0.24 0 0 0.24 241.707 134.1372)">
			</image>
		</g>
		<g>
			<path fill="#3786C7" d="M43.751,217.764c0,0,4.919-42.836,21.825-59.729c0,0,15.189-15.839,40.266-1.356
				c0,0,16.636,13.221,25.542,61.013L43.751,217.764z"/>
			<g>
				<path fill="#3786C7" d="M56.686,140.81c0,0-0.809,8.387,9.388,15.37c10.181,6.962,31.989,11.627,50.767-7.683l6.471-39.588
					c0,0-14.879-0.57-18.818-19.177c0,0-19.676,21.821-50.39,18.109L56.686,140.81z"/>
				
					<image overflow="visible" width="289" height="303" xlink:href="472BD412.png"  transform="matrix(0.24 0 0 0.24 54.1016 89.7344)">
				</image>
			</g>
			<g>
				<path fill="#3786C7" d="M101.291,88.8c0,0,29.122-1.473,23.966,37.977c0,0-27.218-8.729-26.155-29.389
					C99.101,97.387,98.202,98.067,101.291,88.8z"/>
				
					<image overflow="visible" width="113" height="159" xlink:href="472BD411.png"  transform="matrix(0.24 0 0 0.24 98.98 88.7866)">
				</image>
			</g>
			<g>
				<path fill="#3786C7" d="M105.638,89.188c0,0-23.827-19.063-45.659,0.393c-17.796,15.874-11.783,32.97-11.783,32.97
					S108.89,117.75,105.638,89.188z"/>
				
					<image overflow="visible" width="244" height="174" xlink:href="472BD415.png"  transform="matrix(0.24 0 0 0.24 47.2168 80.8325)">
				</image>
			</g>
		</g>
		<path fill="#004896" d="M229.722,217.764c0,0-4.919-42.836-21.824-59.729c0,0-15.189-15.839-40.267-1.356
			c0,0-16.636,13.221-25.534,61.013L229.722,217.764z"/>
		<g>
			<path fill="#004896" d="M216.796,140.81c0,0,0.809,8.387-9.389,15.37c-10.189,6.962-31.998,11.627-50.774-7.683l-6.472-39.588
				c0,0,14.88-0.57,18.818-19.177c0,0,19.676,21.821,50.398,18.109L216.796,140.81z"/>
			
				<image overflow="visible" width="289" height="303" xlink:href="472BD417.png"  transform="matrix(0.24 0 0 0.24 150.168 89.7344)">
			</image>
		</g>
		<g>
			<path fill="#004896" d="M188.892,88.8c0,0-29.129-1.473-23.974,37.977c0,0,27.218-8.729,26.164-29.389
				C191.082,97.387,191.98,98.067,188.892,88.8z"/>
			
				<image overflow="visible" width="113" height="159" xlink:href="472BD410.png"  transform="matrix(0.24 0 0 0.24 164.3154 88.7866)">
			</image>
		</g>
		<g>
			<path fill="#004896" d="M167.835,89.188c0,0,23.835-19.063,45.668,0.393c17.805,15.874,11.782,32.97,11.782,32.97
				S164.583,117.75,167.835,89.188z"/>
			
				<image overflow="visible" width="245" height="174" xlink:href="472BD42F.png"  transform="matrix(0.24 0 0 0.24 167.708 80.8325)">
			</image>
		</g>
		<g>
			<path fill="#00AFEC" d="M84.892,231.704c0,0,5.818-50.688,25.82-70.695c0,0,17.984-18.736,47.653-1.598
				c0,0,19.691,15.651,30.225,72.203L84.892,231.704z"/>
			<g>
				<path fill="#00AFEC" d="M100.188,140.636c0,0-0.948,9.926,11.104,18.174c12.068,8.253,37.873,13.769,60.098-9.078l7.647-46.842
					c0,0-17.616-0.68-22.266-22.699c0,0-23.279,25.81-59.64,21.426L100.188,140.636z"/>
				
					<image overflow="visible" width="342" height="358" xlink:href="472BD40D.png"  transform="matrix(0.24 0 0 0.24 97.1328 80.1953)">
				</image>
			</g>
			<g>
				<path fill="#00AFEC" d="M152.972,79.074c0,0,34.474-1.734,28.37,44.951c0,0-32.218-10.324-30.96-34.768
					C150.382,89.257,149.312,90.056,152.972,79.074z"/>
				
					<image overflow="visible" width="133" height="188" xlink:href="472BD432.png"  transform="matrix(0.24 0 0 0.24 150.2397 79.0708)">
				</image>
			</g>
			<g>
				<path fill="#00AFEC" d="M158.136,79.548c0,0-28.214-22.556-54.05,0.464c-21.065,18.781-13.948,39.017-13.948,39.017
					S161.969,113.339,158.136,79.548z"/>
				
					<image overflow="visible" width="289" height="206" xlink:href="472BD40C.png"  transform="matrix(0.24 0 0 0.24 88.9873 69.6577)">
				</image>
			</g>
		</g>
		<path fill="#3786C7" d="M10.985,87.147l27.937,95.245l-5.466,2.047C33.456,184.438,7.872,86.822,10.985,87.147z"/>
		<path fill="#3786C7" d="M34.738,167.116l15.132,35.491c0,0,16.702-12.004,11.489-20.354
			C56.13,173.902,36.299,155.632,34.738,167.116z"/>
		<path fill="#3786C7" d="M25.333,159.808c0,0-2.606,6.259,9.405,7.309c12.003,1.042,10.957-7.309,2.083-10.961
			S23.25,149.371,25.333,159.808z"/>
		<g>
			<path fill="#004896" d="M239.739,167.116l-15.132,35.491c0,0-16.702-12.004-11.488-20.354
				C218.34,173.902,238.171,155.632,239.739,167.116z"/>
			<path fill="#004896" d="M249.137,159.808c0,0,2.606,6.259-9.397,7.309c-12.003,1.042-10.957-7.309-2.083-10.961
				C246.521,152.503,251.22,149.371,249.137,159.808z"/>
		</g>
		<g>
			<path fill="#FFFFFF" d="M128.386,172.849c0.033,0.326,0.147,0.392,0.147,0.392s0.654,2.599,1.43,3.244
				c5.09-5.099,8.963,1.299,8.963,1.299s2.696-1.527,4.118-3.129l-8.351-7.538L128.386,172.849z"/>
			<path fill="#FFFFFF" d="M138.926,179.274c0,0-3.873-6.394-8.963-1.303c0,0-4.47,11.941-4.47,24.799c0,0,1.561,10.9,4.87,17.526
				c0,0,6.316-7.771,10.156-17.616C140.52,202.681,140.307,186.715,138.926,179.274z"/>
		</g>
		<path fill="#FFFFFF" d="M132.602,166.598l-9.397,8.873c0,0-10.442-11.219-9.911-14.095
			C113.809,158.5,132.602,166.598,132.602,166.598z"/>
		<path fill="#FFFFFF" d="M136.769,166.598l9.396,8.873c0,0,10.443-11.219,9.919-14.095
			C155.563,158.5,136.769,166.598,136.769,166.598z"/>
	</g>
</g>
</svg>
