<?xml version="1.0" encoding="utf-8"?>
<!-- Generator: Adobe Illustrator 26.5.3, SVG Export Plug-In . SVG Version: 6.00 Build 0)  -->
<svg version="1.1" id="圖層_1" xmlns="http://www.w3.org/2000/svg" xmlns:xlink="http://www.w3.org/1999/xlink" x="0px" y="0px"
	 viewBox="0 0 300 300" style="enable-background:new 0 0 300 300;" xml:space="preserve">
<style type="text/css">
	.st0{fill:#1EBBE9;}
	.st1{fill:url(#SVGID_1_);}
	.st2{clip-path:url(#SVGID_00000091709504372294482220000018337576018759321515_);}
	.st3{filter:url(#Adobe_OpacityMaskFilter);}
	.st4{clip-path:url(#SVGID_00000119102399696239412890000018212487854497554599_);}
	.st5{clip-path:url(#SVGID_00000138571873659383752630000001565859095866968999_);}
	.st6{clip-path:url(#SVGID_00000091006158869856006920000010561247616613086352_);}
	.st7{clip-path:url(#SVGID_00000151539763563401695640000007764584006525724343_);}
	.st8{clip-path:url(#SVGID_00000036929851593283211100000001289382272877722798_);}
	.st9{clip-path:url(#SVGID_00000135665931983682448530000007630471629686719927_);}
	.st10{clip-path:url(#SVGID_00000076601731573003330400000000252160907779564982_);}
	
		.st11{clip-path:url(#SVGID_00000121255665786971111490000011611634833038745487_);fill:url(#SVGID_00000127004451435149489270000005694391018737748122_);}
	
		.st12{clip-path:url(#SVGID_00000119102399696239412890000018212487854497554599_);mask:url(#SVGID_00000004521388826679815800000003821082489869214649_);fill:url(#SVGID_00000166645324435290430880000012031437863007623559_);}
	.st13{fill:url(#SVGID_00000098183615405286401770000010598316712323999877_);}
	.st14{fill:#00AFEC;}
	.st15{fill:#FFFFFF;}
	.st16{fill:#FFF100;}
</style>
<g>
	<g>
		<path class="st0" d="M272.9,64c47.5,67.9,31,161.4-36.8,208.9c-67.9,47.5-161.4,31-208.9-36.8C-20.4,168.2-3.9,74.6,64,27.1
			C131.8-20.4,225.3-3.9,272.9,64z"/>
		
			<linearGradient id="SVGID_1_" gradientUnits="userSpaceOnUse" x1="199.8064" y1="-17973.8887" x2="419.866" y2="-17784.1816" gradientTransform="matrix(0.8192 -0.5736 -0.5736 -0.8192 -10362.6582 -14305.3486)">
			<stop  offset="0.3392" style="stop-color:#00A3E7"/>
			<stop  offset="0.3905" style="stop-color:#00A3E3"/>
			<stop  offset="0.7865" style="stop-color:#00A0CB"/>
			<stop  offset="1" style="stop-color:#009FC2"/>
		</linearGradient>
		<path class="st1" d="M266,68.7c44.9,64.1,29.3,152.5-34.8,197.4S78.8,295.4,34,231.3C-10.9,167.1,4.7,78.7,68.7,33.9
			C132.8-11,221.2,4.6,266,68.7z"/>
		<g>
			<g>
				<g>
					<defs>
						<polygon id="SVGID_00000119119092785398474200000014015478671567200425_" points="3,3 4,3 3,4 						"/>
					</defs>
					<clipPath id="SVGID_00000018934467195441175070000000699490655723655810_">
						<use xlink:href="#SVGID_00000119119092785398474200000014015478671567200425_"  style="overflow:visible;"/>
					</clipPath>
				</g>
				<g>
					<defs>
						<polygon id="SVGID_00000032622243786717321630000008552246881475870911_" points="3,3 4,3 3,4 						"/>
					</defs>
					<defs>
						<polygon id="SVGID_00000158742907600885897740000011263564223608038038_" points="1,1 0,1 1,0 						"/>
					</defs>
					<clipPath id="SVGID_00000036966712772592689150000005817685471876383927_">
						<use xlink:href="#SVGID_00000032622243786717321630000008552246881475870911_"  style="overflow:visible;"/>
					</clipPath>
					
						<clipPath id="SVGID_00000133528134186948342740000014282583820369410696_" style="clip-path:url(#SVGID_00000036966712772592689150000005817685471876383927_);">
						<use xlink:href="#SVGID_00000158742907600885897740000011263564223608038038_"  style="overflow:visible;"/>
					</clipPath>
					<defs>
						<filter id="Adobe_OpacityMaskFilter" filterUnits="userSpaceOnUse" x="31.7" y="31.7" width="238.5" height="238.5">
							<feColorMatrix  type="matrix" values="1 0 0 0 0  0 1 0 0 0  0 0 1 0 0  0 0 0 1 0"/>
						</filter>
					</defs>
					
						<mask maskUnits="userSpaceOnUse" x="31.7" y="31.7" width="238.5" height="238.5" id="SVGID_00000004521388826679815800000003821082489869214649_">
						<g class="st3">
							<g>
								<g>
									<defs>
										<polygon id="SVGID_00000052808080287155411250000014956672892602825861_" points="3,3 4,3 3,4 										"/>
									</defs>
									<defs>
										<polygon id="SVGID_00000140705819684828728110000004360820023373798585_" points="1,1 0,1 1,0 										"/>
									</defs>
									
										<clipPath id="SVGID_00000060742656041725483290000010032527887985502851_" style="clip-path:url(#SVGID_00000133528134186948342740000014282583820369410696_);">
										<use xlink:href="#SVGID_00000052808080287155411250000014956672892602825861_"  style="overflow:visible;"/>
									</clipPath>
									
										<clipPath id="SVGID_00000176757290814201044530000007600860600325361548_" style="clip-path:url(#SVGID_00000060742656041725483290000010032527887985502851_);">
										<use xlink:href="#SVGID_00000140705819684828728110000004360820023373798585_"  style="overflow:visible;"/>
									</clipPath>
								</g>
								<g>
									<defs>
										<polygon id="SVGID_00000085211890243586385550000009273497221851433150_" points="3,3 4,3 3,4 										"/>
									</defs>
									<defs>
										<polygon id="SVGID_00000111166047954259573570000014603244244737179574_" points="1,1 0,1 1,0 										"/>
									</defs>
									<defs>
										<polygon id="SVGID_00000103256300148246976300000001310957338025993405_" points="3,3 4,3 3,4 										"/>
									</defs>
									
										<clipPath id="SVGID_00000109751716470458365300000018001811265869385378_" style="clip-path:url(#SVGID_00000133528134186948342740000014282583820369410696_);">
										<use xlink:href="#SVGID_00000085211890243586385550000009273497221851433150_"  style="overflow:visible;"/>
									</clipPath>
									
										<clipPath id="SVGID_00000113350754167456298520000004620579234811367867_" style="clip-path:url(#SVGID_00000109751716470458365300000018001811265869385378_);">
										<use xlink:href="#SVGID_00000111166047954259573570000014603244244737179574_"  style="overflow:visible;"/>
									</clipPath>
									
										<clipPath id="SVGID_00000124139545841363612160000001053662662658989218_" style="clip-path:url(#SVGID_00000113350754167456298520000004620579234811367867_);">
										<use xlink:href="#SVGID_00000103256300148246976300000001310957338025993405_"  style="overflow:visible;"/>
									</clipPath>
								</g>
								<g>
									<defs>
										<polygon id="SVGID_00000053533669133272281970000002273635360277278090_" points="3,3 4,3 3,4 										"/>
									</defs>
									<defs>
										<polygon id="SVGID_00000170264606698209197310000015619552513728570783_" points="1,1 0,1 1,0 										"/>
									</defs>
									<defs>
										<polygon id="SVGID_00000045588750166114591820000012871302176943027631_" points="3,3 4,3 3,4 										"/>
									</defs>
									<defs>
										<polygon id="SVGID_00000052084034512117910020000005737022864599651741_" points="1,1 0,1 1,0 										"/>
									</defs>
									
										<clipPath id="SVGID_00000135678308161192972020000010893692785611097244_" style="clip-path:url(#SVGID_00000133528134186948342740000014282583820369410696_);">
										<use xlink:href="#SVGID_00000053533669133272281970000002273635360277278090_"  style="overflow:visible;"/>
									</clipPath>
									
										<clipPath id="SVGID_00000038382863418630212310000017901286656926538655_" style="clip-path:url(#SVGID_00000135678308161192972020000010893692785611097244_);">
										<use xlink:href="#SVGID_00000170264606698209197310000015619552513728570783_"  style="overflow:visible;"/>
									</clipPath>
									
										<clipPath id="SVGID_00000150098255671870825930000012506398273901917069_" style="clip-path:url(#SVGID_00000038382863418630212310000017901286656926538655_);">
										<use xlink:href="#SVGID_00000045588750166114591820000012871302176943027631_"  style="overflow:visible;"/>
									</clipPath>
									
										<clipPath id="SVGID_00000152222089601242359350000007015304135684171908_" style="clip-path:url(#SVGID_00000150098255671870825930000012506398273901917069_);">
										<use xlink:href="#SVGID_00000052084034512117910020000005737022864599651741_"  style="overflow:visible;"/>
									</clipPath>
									
										<radialGradient id="SVGID_00000089557163373602077420000001658734054139888292_" cx="307.9122" cy="1676.5775" r="74.1867" gradientTransform="matrix(1.3343 -0.9343 0.9343 1.3343 -1826.3237 -1798.425)" gradientUnits="userSpaceOnUse">
										<stop  offset="0.8468" style="stop-color:#FFFFFF"/>
										<stop  offset="0.9202" style="stop-color:#7E7E7E"/>
										<stop  offset="0.9753" style="stop-color:#242424"/>
										<stop  offset="1" style="stop-color:#000000"/>
									</radialGradient>
									
										<path style="clip-path:url(#SVGID_00000152222089601242359350000007015304135684171908_);fill:url(#SVGID_00000089557163373602077420000001658734054139888292_);" d="
										M248.7,82.5c37.7,53.9,24.6,128.3-29.3,166.2c-53.9,37.7-128.3,24.6-166.2-29.3C15.5,165.5,28.6,91.1,82.5,53.2
										C136.5,15.5,210.9,28.6,248.7,82.5z"/>
								</g>
							</g>
						</g>
					</mask>
					
						<radialGradient id="SVGID_00000136385722023329938780000009823155102236148410_" cx="307.9122" cy="1676.5775" r="74.1867" gradientTransform="matrix(1.3343 -0.9343 0.9343 1.3343 -1826.3237 -1798.425)" gradientUnits="userSpaceOnUse">
						<stop  offset="0.8468" style="stop-color:#FFFFFF"/>
						<stop  offset="0.9202" style="stop-color:#7E7E7E"/>
						<stop  offset="0.9753" style="stop-color:#242424"/>
						<stop  offset="1" style="stop-color:#000000"/>
					</radialGradient>
					
						<path style="clip-path:url(#SVGID_00000133528134186948342740000014282583820369410696_);mask:url(#SVGID_00000004521388826679815800000003821082489869214649_);fill:url(#SVGID_00000136385722023329938780000009823155102236148410_);" d="
						M248.7,82.5c37.7,53.9,24.6,128.3-29.3,166.2c-53.9,37.7-128.3,24.6-166.2-29.3C15.5,165.5,28.6,91.1,82.5,53.2
						C136.5,15.5,210.9,28.6,248.7,82.5z"/>
				</g>
			</g>
		</g>
		
			<linearGradient id="SVGID_00000083804388420213428420000004534009004365387452_" gradientUnits="userSpaceOnUse" x1="227.2924" y1="-17950.1895" x2="412.5454" y2="-17790.4863" gradientTransform="matrix(0.8192 -0.5736 -0.5736 -0.8192 -10362.6582 -14305.3486)">
			<stop  offset="0" style="stop-color:#FFFFFF"/>
			<stop  offset="0.7198" style="stop-color:#E7E9EC"/>
			<stop  offset="1" style="stop-color:#DDDFE4"/>
		</linearGradient>
		<path style="fill:url(#SVGID_00000083804388420213428420000004534009004365387452_);" d="M247.7,81.6
			c37.9,54,24.6,128.3-29.2,166.1c-54,37.9-128.3,24.7-166.1-29.2c-37.9-54-24.7-128.3,29.2-166.1C135.5,14.5,209.9,27.6,247.7,81.6
			z"/>
	</g>
	<g>
		<polygon class="st14" points="86.2,151.8 77.9,143.6 82.8,123.1 85.7,123.8 81.2,142.7 86.1,147.5 91,142 86.9,124.5 89.8,123.8 
			94.3,142.9 		"/>
		<path class="st14" d="M87.2,116.9c-8.4,0-15.3-6.9-15.3-15.3s6.9-15.3,15.3-15.3s15.3,6.9,15.3,15.3S95.6,116.9,87.2,116.9z
			 M87.2,89.3c-6.8,0-12.3,5.5-12.3,12.3s5.5,12.3,12.3,12.3s12.3-5.5,12.3-12.3S94,89.3,87.2,89.3z"/>
		<g>
			<g>
				<g>
					<path class="st14" d="M155.1,213.8h-36.9l-0.3-1.1c-0.4-1.5-0.7-3.2-0.7-5.3c0-10.6,8.7-19.3,19.5-19.3
						c10.7,0,19.5,8.6,19.5,19.3c0,1.7-0.3,3.5-0.7,5.3L155.1,213.8z M120.6,210.8h32.2c0.3-1.2,0.4-2.4,0.4-3.5
						c0-9-7.4-16.3-16.5-16.3s-16.5,7.3-16.5,16.3C120.2,208.6,120.4,209.7,120.6,210.8z"/>
				</g>
				<rect x="123.5" y="203.2" class="st14" width="3" height="8.9"/>
				<rect x="146.1" y="203.2" class="st14" width="3" height="8.9"/>
			</g>
			<g>
				<path class="st15" d="M144.1,185.2c0,4.1-3.3,7.4-7.4,7.4s-7.4-3.3-7.4-7.4c0-4.1,3.3-7.4,7.4-7.4S144.1,181.1,144.1,185.2z"/>
				<path class="st14" d="M136.8,194.1c-4.9,0-8.8-4-8.8-8.8s4-8.8,8.8-8.8c2.3-0.1,4.5,0.8,6.2,2.4c1.7,1.7,2.7,3.9,2.7,6.4
					C145.6,190.1,141.6,194.1,136.8,194.1z M137,179.4h-0.1c-3.3,0-5.9,2.6-5.9,5.9c0,3.2,2.6,5.9,5.9,5.9c3.2,0,5.9-2.6,5.9-5.9
					c0-1.6-0.6-3.2-1.8-4.3C139.8,179.9,138.4,179.4,137,179.4z"/>
			</g>
		</g>
		<g>
			<g>
				<g>
					<path class="st14" d="M192.2,213.8h-36.6l-0.3-1.1c-0.4-1.5-0.7-3.2-0.7-5.3c0-10.6,8.7-19.3,19.4-19.3s19.5,8.6,19.5,19.3
						c0,1.9-0.3,3.7-0.9,5.4L192.2,213.8z M157.9,210.8H190c0.3-1.1,0.4-2.3,0.4-3.5c0-9-7.4-16.3-16.5-16.3
						c-9,0-16.4,7.3-16.4,16.3C157.5,208.6,157.7,209.7,157.9,210.8z"/>
				</g>
				<rect x="160.7" y="203.2" class="st14" width="3" height="8.9"/>
				<rect x="183.4" y="203.2" class="st14" width="3" height="8.9"/>
			</g>
			<g>
				<path class="st15" d="M181.4,185.2c0,4.1-3.3,7.4-7.4,7.4c-4.1,0-7.4-3.3-7.4-7.4c0-4.1,3.3-7.4,7.4-7.4
					C178.1,177.8,181.4,181.1,181.4,185.2z"/>
				<path class="st14" d="M174,194.1c-4.9,0-8.8-4-8.8-8.8s4-8.8,8.8-8.8c2.3-0.1,4.5,0.8,6.2,2.4c1.7,1.7,2.7,3.9,2.7,6.4
					C182.9,190.1,178.9,194.1,174,194.1z M174.2,179.4h-0.1c-3.3,0-5.9,2.6-5.9,5.9c0,3.2,2.6,5.9,5.9,5.9c3.2,0,5.9-2.6,5.9-5.9
					c0-1.6-0.6-3.2-1.8-4.3C177.1,179.9,175.7,179.4,174.2,179.4z"/>
			</g>
		</g>
		<g>
			<g>
				<g>
					<path class="st14" d="M228.8,213.8h-36.6l-0.3-1.1c-0.4-1.5-0.7-3.2-0.7-5.3c0-10.6,8.7-19.3,19.4-19.3s19.5,8.6,19.5,19.3
						c0,1.9-0.3,3.7-0.9,5.4L228.8,213.8z M194.6,210.8h32.1c0.3-1.1,0.4-2.3,0.4-3.5c0-9-7.4-16.3-16.5-16.3
						c-9,0-16.4,7.3-16.4,16.3C194.2,208.6,194.4,209.7,194.6,210.8z"/>
				</g>
				<rect x="197.4" y="203.2" class="st14" width="3" height="8.9"/>
				<rect x="220" y="203.2" class="st14" width="3" height="8.9"/>
			</g>
			<g>
				<path class="st15" d="M218,185.2c0,4.1-3.3,7.4-7.4,7.4c-4.1,0-7.4-3.3-7.4-7.4c0-4.1,3.3-7.4,7.4-7.4
					C214.6,177.8,218,181.1,218,185.2z"/>
				<path class="st14" d="M210.7,194.1c-4.9,0-8.8-4-8.8-8.8s4-8.8,8.8-8.8c2.3-0.1,4.5,0.8,6.2,2.5s2.7,3.9,2.7,6.4
					C219.5,190.1,215.6,194.1,210.7,194.1z M210.9,179.4h-0.1c-3.3,0-5.9,2.6-5.9,5.9c0,3.2,2.6,5.9,5.9,5.9s5.9-2.6,5.9-5.9
					c0-1.6-0.6-3.1-1.8-4.3C213.7,180,212.3,179.4,210.9,179.4z"/>
			</g>
		</g>
		<path class="st14" d="M218.2,87.3h-84.8c-2.1,0-3.9-1.7-3.9-3.9c0-2.1,1.7-3.9,3.9-3.9h84.8c2.1,0,3.9,1.7,3.9,3.9
			C222.1,85.6,220.4,87.3,218.2,87.3"/>
		<path class="st14" d="M218.2,162.8h-84.8c-2.1,0-3.9-1.7-3.9-3.9c0-2.1,1.7-3.9,3.9-3.9h84.8c2.1,0,3.9,1.7,3.9,3.9
			C222.1,161.1,220.4,162.8,218.2,162.8"/>
		<path class="st14" d="M137.1,155.5h77.5V87h-77.5V155.5z M215.2,159.2h-78.9c-1.7,0-3.1-1.4-3.1-3.1V86.3c0-1.7,1.4-3.1,3.1-3.1
			h78.9c1.7,0,3.1,1.4,3.1,3.1v69.9C218.3,157.8,216.9,159.2,215.2,159.2"/>
		<g>
			<path class="st16" d="M170.7,100.5c-13.2,0-23.8,10.7-23.8,23.8c0,13.2,10.7,23.8,23.8,23.8c13.2,0,23.8-10.7,23.8-23.8h-23.8
				V100.5z"/>
			<path class="st14" d="M170.7,149.7c-14,0-25.3-11.4-25.3-25.3S156.8,99,170.7,99h1.5v23.8H196v1.5
				C196.1,138.3,184.7,149.7,170.7,149.7z M169.3,102.1c-11.6,0.8-20.9,10.5-20.9,22.3c0,12.3,10,22.3,22.3,22.3
				c11.8,0,21.5-9.2,22.3-20.9h-23.8L169.3,102.1L169.3,102.1z"/>
		</g>
		<path class="st14" d="M180.2,114.8h17.5c-0.7-9.2-8.1-16.7-17.4-17.4L180.2,114.8L180.2,114.8z M200.6,117.8h-23.4V94.4h1.5
			c12.1,0,22,9.8,22,22v1.4H200.6z"/>
		<path class="st14" d="M120.7,129.3c0,0,0-0.1,0.1-0.2l-3-0.3c0.2-1.4,8.6-13,25.1-34.6l2.4,1.8
			C136.2,107.8,121.5,127.4,120.7,129.3z"/>
		<path class="st14" d="M64.8,214.8l6-10.5v-37.5c-0.2,0.4-0.4,0.8-0.5,1.2c-1.9,4.4-2.7,6.4-4.5,6.3c-2.7-0.1-4.8-1.1-6.2-3
			c-2.7-3.8-1.2-9.7-0.9-11v-29.9v-0.2c1.9-8,7.9-9.9,10.9-9.7h54.7l0.3,0.1c0.2,0.1,4.5,1.9,5.1,5.6c0.4,2.4-0.8,4.9-3.7,7.4
			l-0.4,0.4h-23.7v69.6l7.7,10.4l-3-0.1c-0.1,0-8.4-0.2-16.3-0.3H89L86.6,186l-2.5,28l-1.3,0.1c-0.1,0-6,0.5-15.5,0.6L64.8,214.8z
			 M73.7,163.1v42l-3.8,6.6c5.5-0.1,9.5-0.3,11.4-0.5l3.3-38.1h3.7l3.3,37.7c4.5,0.1,9.1,0.2,11.9,0.2l-4.6-6.3v-41.5
			c-9.4,0-13.5,0-16.7-0.1C79.7,163.1,77.6,163.1,73.7,163.1z M65.9,171.3L65.9,171.3L65.9,171.3z M61.7,130.8v29.9l-0.1,0.2
			c-0.5,1.6-1.3,6.2,0.4,8.6c0.7,1,1.8,1.6,3.4,1.7c0.5-0.8,1.4-3,2.1-4.4c1.4-3.3,2.3-5.3,3.3-6.2V135h3v25.1c3.9,0,6,0,8.6,0
			c3.2,0.1,7.2,0.1,16.7,0.1v-29.1h25.5c1.3-1.2,2.5-2.8,2.3-4.3c-0.3-1.6-2.1-2.8-3-3.2H69.5C69.2,123.6,63.5,123.4,61.7,130.8z"/>
	</g>
</g>
</svg>
