<?xml version="1.0" encoding="utf-8"?>
<!-- Generator: Adobe Illustrator 26.5.3, SVG Export Plug-In . SVG Version: 6.00 Build 0)  -->
<svg version="1.1" id="圖層_1" xmlns="http://www.w3.org/2000/svg" xmlns:xlink="http://www.w3.org/1999/xlink" x="0px" y="0px"
	 viewBox="0 0 300 300" style="enable-background:new 0 0 300 300;" xml:space="preserve">
<style type="text/css">
	.st0{clip-path:url(#SVGID_00000072999633203291612190000010651021140557003421_);}
	.st1{filter:url(#Adobe_OpacityMaskFilter);}
	.st2{clip-path:url(#SVGID_00000063633794213219593660000012328640373393801108_);}
	.st3{clip-path:url(#SVGID_00000010992124824673092090000009077009672614756012_);}
	.st4{clip-path:url(#SVGID_00000142153139423656013950000003776532989318679187_);}
	.st5{clip-path:url(#SVGID_00000081626464124800712970000002748349072687118765_);}
	.st6{clip-path:url(#SVGID_00000111905131612323740430000006152242404044269490_);}
	.st7{clip-path:url(#SVGID_00000154409810774433095700000000070648323258922156_);}
	.st8{clip-path:url(#SVGID_00000010297079023598515100000016300841325054870956_);}
	
		.st9{clip-path:url(#SVGID_00000051375906800837597920000007890799731384691862_);fill:url(#SVGID_00000106126281242646613470000017112156833172240268_);}
	
		.st10{clip-path:url(#SVGID_00000063633794213219593660000012328640373393801108_);mask:url(#SVGID_00000083061199681055605130000016251546045301504678_);fill:url(#SVGID_00000013164483287124937030000009513622064336200592_);}
	.st11{fill:#A3C313;}
	.st12{opacity:0.9;}
	.st13{fill:url(#SVGID_00000093898539288049285210000009990203652371227300_);}
	.st14{fill:url(#SVGID_00000137130490243356086710000006043259374067520421_);}
	.st15{fill:#009944;}
	.st16{fill:#FFFFFF;}
	.st17{fill:#FFF100;}
</style>
<g>
	<g>
		<g>
			<defs>
				<polygon id="SVGID_1_" points="2,2 3,2 2,3 				"/>
			</defs>
			<clipPath id="SVGID_00000132801944803911833070000009921794494616705468_">
				<use xlink:href="#SVGID_1_"  style="overflow:visible;"/>
			</clipPath>
		</g>
		<g>
			<defs>
				<polygon id="SVGID_00000151516873108410803860000008794908383017989520_" points="2,2 3,2 2,3 				"/>
			</defs>
			<defs>
				<polygon id="SVGID_00000061447428686491342820000011008547969123159443_" points="0,0 -1,0 0,-1 				"/>
			</defs>
			<clipPath id="SVGID_00000145741820506747765470000005675481650337622419_">
				<use xlink:href="#SVGID_00000151516873108410803860000008794908383017989520_"  style="overflow:visible;"/>
			</clipPath>
			
				<clipPath id="SVGID_00000042716574459552576640000018199214897862100667_" style="clip-path:url(#SVGID_00000145741820506747765470000005675481650337622419_);">
				<use xlink:href="#SVGID_00000061447428686491342820000011008547969123159443_"  style="overflow:visible;"/>
			</clipPath>
			<defs>
				<filter id="Adobe_OpacityMaskFilter" filterUnits="userSpaceOnUse" x="30.9" y="30.9" width="240.2" height="240.2">
					<feColorMatrix  type="matrix" values="1 0 0 0 0  0 1 0 0 0  0 0 1 0 0  0 0 0 1 0"/>
				</filter>
			</defs>
			
				<mask maskUnits="userSpaceOnUse" x="30.9" y="30.9" width="240.2" height="240.2" id="SVGID_00000083061199681055605130000016251546045301504678_">
				<g class="st1">
					<g>
						<g>
							<defs>
								<polygon id="SVGID_00000141420452525770888710000005406838477220852874_" points="2,2 3,2 2,3 								"/>
							</defs>
							<defs>
								<polygon id="SVGID_00000168828506108448348260000016260554564253361571_" points="0,0 -1,0 0,-1 								"/>
							</defs>
							
								<clipPath id="SVGID_00000003817471400516814730000011833886423234728351_" style="clip-path:url(#SVGID_00000042716574459552576640000018199214897862100667_);">
								<use xlink:href="#SVGID_00000141420452525770888710000005406838477220852874_"  style="overflow:visible;"/>
							</clipPath>
							
								<clipPath id="SVGID_00000169518111496494755940000010724456106795251111_" style="clip-path:url(#SVGID_00000003817471400516814730000011833886423234728351_);">
								<use xlink:href="#SVGID_00000168828506108448348260000016260554564253361571_"  style="overflow:visible;"/>
							</clipPath>
						</g>
						<g>
							<defs>
								<polygon id="SVGID_00000016072344761009648300000009202705619730631344_" points="2,2 3,2 2,3 								"/>
							</defs>
							<defs>
								<polygon id="SVGID_00000158749188479678319110000011857771108996092074_" points="0,0 -1,0 0,-1 								"/>
							</defs>
							<defs>
								<polygon id="SVGID_00000039814689538394828240000009163779131663271048_" points="2,2 3,2 2,3 								"/>
							</defs>
							
								<clipPath id="SVGID_00000071546350292496159190000009858491800853829008_" style="clip-path:url(#SVGID_00000042716574459552576640000018199214897862100667_);">
								<use xlink:href="#SVGID_00000016072344761009648300000009202705619730631344_"  style="overflow:visible;"/>
							</clipPath>
							
								<clipPath id="SVGID_00000164514021942018390800000016091653403672121527_" style="clip-path:url(#SVGID_00000071546350292496159190000009858491800853829008_);">
								<use xlink:href="#SVGID_00000158749188479678319110000011857771108996092074_"  style="overflow:visible;"/>
							</clipPath>
							
								<clipPath id="SVGID_00000159440756102587801250000014388890624060368033_" style="clip-path:url(#SVGID_00000164514021942018390800000016091653403672121527_);">
								<use xlink:href="#SVGID_00000039814689538394828240000009163779131663271048_"  style="overflow:visible;"/>
							</clipPath>
						</g>
						<g>
							<defs>
								<polygon id="SVGID_00000093168010755705799830000007687974940739574921_" points="2,2 3,2 2,3 								"/>
							</defs>
							<defs>
								<polygon id="SVGID_00000071517543273125994890000003882266972422903978_" points="0,0 -1,0 0,-1 								"/>
							</defs>
							<defs>
								<polygon id="SVGID_00000095314849337561205120000007783505526777746825_" points="2,2 3,2 2,3 								"/>
							</defs>
							<defs>
								<polygon id="SVGID_00000014592148282628180240000006742540057387826099_" points="0,0 -1,0 0,-1 								"/>
							</defs>
							
								<clipPath id="SVGID_00000102545399233369376970000007246078478461055390_" style="clip-path:url(#SVGID_00000042716574459552576640000018199214897862100667_);">
								<use xlink:href="#SVGID_00000093168010755705799830000007687974940739574921_"  style="overflow:visible;"/>
							</clipPath>
							
								<clipPath id="SVGID_00000074440954121553522090000010233009643238196105_" style="clip-path:url(#SVGID_00000102545399233369376970000007246078478461055390_);">
								<use xlink:href="#SVGID_00000071517543273125994890000003882266972422903978_"  style="overflow:visible;"/>
							</clipPath>
							
								<clipPath id="SVGID_00000152263876495060884870000001982403350306525098_" style="clip-path:url(#SVGID_00000074440954121553522090000010233009643238196105_);">
								<use xlink:href="#SVGID_00000095314849337561205120000007783505526777746825_"  style="overflow:visible;"/>
							</clipPath>
							
								<clipPath id="SVGID_00000181807986436243085000000010101787121044958108_" style="clip-path:url(#SVGID_00000152263876495060884870000001982403350306525098_);">
								<use xlink:href="#SVGID_00000014592148282628180240000006742540057387826099_"  style="overflow:visible;"/>
							</clipPath>
							
								<radialGradient id="SVGID_00000180359961572636980590000004369221651106048674_" cx="-915.3652" cy="-1204.5341" r="75.7756" gradientTransform="matrix(1.3144 0.9203 -0.9203 1.3144 245.6233 2576.6501)" gradientUnits="userSpaceOnUse">
								<stop  offset="0.8468" style="stop-color:#FFFFFF"/>
								<stop  offset="0.9202" style="stop-color:#7E7E7E"/>
								<stop  offset="0.9753" style="stop-color:#242424"/>
								<stop  offset="1" style="stop-color:#000000"/>
							</radialGradient>
							
								<path style="clip-path:url(#SVGID_00000181807986436243085000000010101787121044958108_);fill:url(#SVGID_00000180359961572636980590000004369221651106048674_);" d="
								M249.4,219.9c-38,54.3-112.9,67.5-167.3,29.5c-54.3-38-67.5-112.9-29.5-167.3c38-54.3,112.9-67.5,167.3-29.5
								C274.2,90.7,287.4,165.6,249.4,219.9z"/>
						</g>
					</g>
				</g>
			</mask>
			
				<radialGradient id="SVGID_00000145767600590913455440000007833880700217937796_" cx="-915.3652" cy="-1204.5341" r="75.7756" gradientTransform="matrix(1.3144 0.9203 -0.9203 1.3144 245.6233 2576.6501)" gradientUnits="userSpaceOnUse">
				<stop  offset="0.8468" style="stop-color:#FFFFFF"/>
				<stop  offset="0.9202" style="stop-color:#7E7E7E"/>
				<stop  offset="0.9753" style="stop-color:#242424"/>
				<stop  offset="1" style="stop-color:#000000"/>
			</radialGradient>
			
				<path style="clip-path:url(#SVGID_00000042716574459552576640000018199214897862100667_);mask:url(#SVGID_00000083061199681055605130000016251546045301504678_);fill:url(#SVGID_00000145767600590913455440000007833880700217937796_);" d="
				M249.4,219.9c-38,54.3-112.9,67.5-167.3,29.5c-54.3-38-67.5-112.9-29.5-167.3c38-54.3,112.9-67.5,167.3-29.5
				C274.2,90.7,287.4,165.6,249.4,219.9z"/>
		</g>
	</g>
</g>
<g>
	<path class="st11" d="M272.9,236c-47.5,67.9-141,84.3-208.9,36.8S-20.4,131.8,27.1,64C74.6-3.9,168.2-20.4,236,27.1
		C303.9,74.6,320.4,168.2,272.9,236z"/>
	<g class="st12">
		
			<linearGradient id="SVGID_00000084530757093787785340000011113081342922726538_" gradientUnits="userSpaceOnUse" x1="-756.2285" y1="-14991.9414" x2="-1137.345" y2="-14981.9717" gradientTransform="matrix(0.8192 0.5736 0.5736 -0.8192 9508.7061 -11594.1318)">
			<stop  offset="5.618000e-03" style="stop-color:#2CAC38"/>
			<stop  offset="0.389" style="stop-color:#6CB92D"/>
			<stop  offset="0.7748" style="stop-color:#8FC31F"/>
			<stop  offset="1" style="stop-color:#9AC717"/>
		</linearGradient>
		<path style="fill:url(#SVGID_00000084530757093787785340000011113081342922726538_);" d="M266.8,231.8
			c-45.2,64.5-134.1,80.2-198.7,35C3.7,221.7-12,132.7,33.2,68.2C78.3,3.7,167.3-12,231.8,33.2C296.3,78.3,312,167.3,266.8,231.8z"
			/>
	</g>
	
		<linearGradient id="SVGID_00000018940525201441524340000001344030477824438715_" gradientUnits="userSpaceOnUse" x1="-1023.8187" y1="-15068.1396" x2="-837.2604" y2="-14907.3125" gradientTransform="matrix(0.8192 0.5736 0.5736 -0.8192 9508.7061 -11594.1318)">
		<stop  offset="0" style="stop-color:#FFFFFF"/>
		<stop  offset="0.7198" style="stop-color:#E7E9EC"/>
		<stop  offset="1" style="stop-color:#DDDFE4"/>
	</linearGradient>
	<path style="fill:url(#SVGID_00000018940525201441524340000001344030477824438715_);" d="M248.4,218.9
		c-38.1,54.3-112.9,67.6-167.2,29.5c-54.3-38-67.6-112.9-29.5-167.2s112.9-67.6,167.2-29.5C273.2,89.6,286.4,164.6,248.4,218.9z"/>
	<g>
		<g>
			<g>
				<path class="st15" d="M208.5,229.6H94.7l-0.3-1.1c-1.6-5.2-2.5-10.8-2.5-16.6c0-32.6,26.8-59.1,59.7-59.1s59.7,26.5,59.7,59.1
					c0,5.8-0.8,11.4-2.5,16.6L208.5,229.6z M96.9,226.6h109.4c1.3-4.6,2-9.6,2-14.7c0-30.9-25.4-56.1-56.7-56.1S94.9,181,94.9,211.9
					C94.9,217.1,95.6,222,96.9,226.6z"/>
			</g>
			<rect x="112.1" y="198.4" class="st15" width="3" height="29.3"/>
			<rect x="185.5" y="198.4" class="st15" width="3" height="29.3"/>
		</g>
		<polygon class="st15" points="151.8,213.9 139.1,201.3 146.9,168.1 149.8,168.8 142.4,200.4 151.6,209.5 160.8,199.2 153.8,170 
			156.7,169.3 164.1,200 		"/>
		<g>
			<ellipse class="st16" cx="151.7" cy="140.1" rx="24" ry="24"/>
			<path class="st15" d="M151.6,165.6c-5.1,0-10.1-1.6-14.4-4.5c-5.6-3.9-9.4-9.7-10.6-16.4s0.2-13.5,4.1-19.1l0,0
				c8-11.6,23.9-14.5,35.5-6.5c5.6,3.9,9.4,9.7,10.6,16.4c1.2,6.7-0.2,13.5-4.1,19.1c-3.9,5.6-9.7,9.4-16.4,10.6
				C154.7,165.5,153.2,165.6,151.6,165.6z M133.2,127.3c-3.4,4.9-4.7,10.9-3.6,16.8c1.1,5.9,4.4,11,9.3,14.5
				c4.9,3.4,10.9,4.7,16.8,3.6c5.9-1.1,11-4.4,14.5-9.3c3.4-4.9,4.7-10.9,3.6-16.8s-4.4-11-9.3-14.5c-4.9-3.4-10.9-4.7-16.8-3.6
				C141.7,119,136.6,122.4,133.2,127.3L133.2,127.3z"/>
		</g>
	</g>
	<path class="st15" d="M222.8,120.7c-0.8,3.6-4.4,5.9-8,5.1s-5.9-4.4-5.1-8c0.8-3.6,4.4-5.9,8-5.1
		C221.3,113.4,223.6,117,222.8,120.7z"/>
	<path class="st15" d="M211.8,137.8c-0.6,2.6-3.1,4.3-5.8,3.7c-2.6-0.6-4.3-3.1-3.7-5.8c0.6-2.6,3.1-4.3,5.8-3.7
		C210.7,132.6,212.4,135.2,211.8,137.8z"/>
	<path class="st15" d="M195.7,146.2c-0.4,1.7-2.1,2.8-3.8,2.4c-1.7-0.4-2.8-2.1-2.4-3.8c0.4-1.7,2.1-2.8,3.8-2.4
		S196.1,144.5,195.7,146.2z"/>
	<g>
		<path class="st17" d="M217.5,86.5c0,13.5-17.9,24.5-40.1,24.5c-22.1,0-40.1-11-40.1-24.5S155.2,62,177.4,62S217.5,73,217.5,86.5z"
			/>
		<path class="st15" d="M177.4,112.5c-22.9,0-41.6-11.7-41.6-26s18.7-26,41.6-26s41.6,11.7,41.6,26S200.3,112.5,177.4,112.5z
			 M177.4,63.5c-21.3,0-38.6,10.3-38.6,23s17.3,23,38.6,23s38.6-10.3,38.6-23S198.7,63.5,177.4,63.5z"/>
	</g>
	<path class="st15" d="M84.8,140.5c1.5,2.5,4.8,3.2,7.3,1.7s3.2-4.8,1.7-7.3s-4.8-3.2-7.3-1.7S83.3,138,84.8,140.5z"/>
	<path class="st15" d="M97.4,150.3c1.1,1.8,3.4,2.3,5.2,1.2c1.8-1.1,2.3-3.4,1.2-5.2c-1.1-1.8-3.4-2.3-5.2-1.2
		C96.8,146.2,96.3,148.5,97.4,150.3z"/>
	<path class="st15" d="M111.4,152.2c0.7,1.2,2.3,1.5,3.4,0.8c1.2-0.7,1.5-2.3,0.8-3.4c-0.7-1.2-2.3-1.5-3.4-0.8
		C111.1,149.5,110.7,151.1,111.4,152.2z"/>
	<ellipse class="st15" cx="85.2" cy="109.1" rx="27.9" ry="17"/>
</g>
</svg>
